<svg version="1.1" id="图层_1" xmlns="http://www.w3.org/2000/svg" xmlns:xlink="http://www.w3.org/1999/xlink" x="0" y="0" viewBox="0 0 248.77 144.24" style="enable-background:new 0 0 248.77 144.24" xml:space="preserve"><style>.st2,.st4{clip-path:url(#SVGID_4_)}.st2{opacity:.3}.st4{fill:none;stroke:#6d7381;stroke-width:.5;stroke-linecap:round;stroke-linejoin:round;stroke-miterlimit:10}.st5{opacity:.4}.st13,.st5,.st7,.st9{clip-path:url(#SVGID_4_)}.st7{fill:none;stroke:#6d7381;stroke-width:.25;stroke-linecap:round;stroke-linejoin:round;stroke-miterlimit:10}.st13,.st9{opacity:.15}.st13{opacity:.7}.st26,.st27{clip-path:url(#SVGID_42_);fill:none;stroke:#6d7381;stroke-width:.5;stroke-linecap:round;stroke-linejoin:round;stroke-miterlimit:10}.st27{clip-path:url(#SVGID_44_)}.st28{opacity:.5;clip-path:url(#SVGID_4_)}.st29{clip-path:url(#SVGID_46_);fill:none;stroke:#6d7381;stroke-width:.75;stroke-linecap:round;stroke-linejoin:round;stroke-miterlimit:10}.st30{opacity:.6;clip-path:url(#SVGID_4_)}.st31,.st33,.st34,.st36,.st37,.st38,.st39,.st40,.st41,.st42,.st43,.st44,.st45,.st46,.st47,.st48,.st54{clip-path:url(#SVGID_48_);fill:none;stroke:#6d7381;stroke-width:.25;stroke-linecap:round;stroke-linejoin:round;stroke-miterlimit:10}.st33,.st34,.st36,.st37,.st38,.st39,.st40,.st41,.st42,.st43,.st44,.st45,.st46,.st47,.st48,.st54{clip-path:url(#SVGID_52_)}.st34,.st36,.st37,.st38,.st39,.st40,.st41,.st42,.st43,.st44,.st45,.st46,.st47,.st48,.st54{clip-path:url(#SVGID_54_)}.st36,.st37,.st38,.st39,.st40,.st41,.st42,.st43,.st44,.st45,.st46,.st47,.st48,.st54{clip-path:url(#SVGID_56_);stroke-width:.5}.st37,.st38,.st39,.st40,.st41,.st42,.st43,.st44,.st45,.st46,.st47,.st48,.st54{clip-path:url(#SVGID_58_)}.st38,.st39,.st40,.st41,.st42,.st43,.st44,.st45,.st46,.st47,.st48,.st54{clip-path:url(#SVGID_60_)}.st39,.st40,.st41,.st42,.st43,.st44,.st45,.st46,.st47,.st48,.st54{clip-path:url(#SVGID_62_)}.st40,.st41,.st42,.st43,.st44,.st45,.st46,.st47,.st48,.st54{clip-path:url(#SVGID_64_)}.st41,.st42,.st43,.st44,.st45,.st46,.st47,.st48,.st54{clip-path:url(#SVGID_66_);stroke-width:.25}.st42,.st43,.st44,.st45,.st46,.st47,.st48,.st54{clip-path:url(#SVGID_68_)}.st43,.st44,.st45,.st46,.st47,.st48,.st54{clip-path:url(#SVGID_70_)}.st44,.st45,.st46,.st47,.st48,.st54{clip-path:url(#SVGID_72_);stroke-width:.5}.st45,.st46,.st47,.st48,.st54{clip-path:url(#SVGID_74_)}.st46,.st47,.st48,.st54{clip-path:url(#SVGID_76_);stroke-width:.25}.st47,.st48,.st54{clip-path:url(#SVGID_78_);stroke-width:.5}.st48,.st54{clip-path:url(#SVGID_80_);stroke-width:.25}.st54{clip-path:url(#SVGID_92_);stroke-width:.5}</style><defs><path id="SVGID_1_" d="M0 0h248.77v144.24H0z"/></defs><clipPath id="SVGID_2_"><use xlink:href="#SVGID_1_" style="overflow:visible"/></clipPath><path style="clip-path:url(#SVGID_2_);fill:#0f1116" d="M0 0h248.77v144.24H0z"/><g style="clip-path:url(#SVGID_2_)"><defs><path id="SVGID_3_" d="M0 0h248.77v144.24H0z"/></defs><clipPath id="SVGID_4_"><use xlink:href="#SVGID_3_" style="overflow:visible"/></clipPath><g class="st2"><defs><path id="SVGID_5_" d="M138.34 64.44h2.32V77.6h-2.32z"/></defs><clipPath id="SVGID_6_"><use xlink:href="#SVGID_5_" style="overflow:visible"/></clipPath><path d="m139.54 77.35.24-.75c.16-.54.29-1.1.39-1.66.16-.92.25-1.86.25-2.82 0-.63-.04-1.24-.11-1.85-.05-.45-.12-.9-.21-1.34-.09-.44-.2-.87-.32-1.3-.14-.48-.3-.95-.48-1.41-.21-.53-.44-1.04-.7-1.53" style="clip-path:url(#SVGID_6_);fill:none;stroke:#6d7381;stroke-width:.5;stroke-linecap:round;stroke-linejoin:round;stroke-miterlimit:10"/></g><path class="st4" d="M131.37 86.55c1.64-.8 3.13-1.87 4.4-3.15M116.06 85.82a15.964 15.964 0 0 0 4.9 1.96c1.1.24 2.25.37 3.42.37.4 0 .79-.01 1.19-.04.75-.06 1.49-.16 2.2-.32"/><g class="st5"><defs><path id="SVGID_7_" d="M107.85 65.75h5.14v17.62h-5.14z"/></defs><clipPath id="SVGID_8_"><use xlink:href="#SVGID_7_" style="overflow:visible"/></clipPath><path d="M109.46 66.25c-.23.57-.42 1.16-.58 1.77-.35 1.31-.53 2.68-.53 4.1 0 1.18.13 2.33.37 3.43.17.8.41 1.57.7 2.32.14.35.28.7.44 1.04a16.043 16.043 0 0 0 2.64 3.96" style="clip-path:url(#SVGID_8_);fill:none;stroke:#6d7381;stroke-linecap:round;stroke-linejoin:round;stroke-miterlimit:10"/></g><path class="st4" d="M127.95 56.49c-.71-.16-1.44-.28-2.18-.34-.46-.04-.92-.06-1.38-.06-.65 0-1.3.04-1.93.11-.63.08-1.26.19-1.86.34a16.132 16.132 0 0 0-2.72.92"/><path class="st7" d="M136.66 61.81c-.35-.42-.73-.82-1.12-1.2-.5-.49-1.03-.94-1.59-1.36M136.08 48.61a25.5 25.5 0 0 0-3.15-1.31M142.23 52.85c-.6-.55-1.22-1.08-1.86-1.57M146.36 86.5a26.416 26.416 0 0 0 4.13-11.51c.13-1.14.18-2.3.15-3.46-.02-.81-.07-1.62-.16-2.43s-.22-1.61-.39-2.42c-.09-.42-.19-.84-.3-1.25M124.23 98.38c.95.01 1.89-.04 2.84-.14.96-.1 1.92-.25 2.87-.46.95-.21 1.9-.47 2.83-.78 1.75-.59 3.47-1.38 5.12-2.37.56-.34 1.1-.69 1.63-1.06 1.01-.71 1.95-1.48 2.83-2.3M98.48 76.45c.17.99.39 1.99.67 2.97a26.432 26.432 0 0 0 6.12 10.72c.92.98 1.9 1.87 2.94 2.68a26.744 26.744 0 0 0 5.25 3.19c1.07.49 2.16.9 3.28 1.24M110.87 49.6c-.92.55-1.79 1.15-2.62 1.79-.83.64-1.61 1.32-2.34 2.05a25.93 25.93 0 0 0-3.04 3.6M126.97 45.99c-1.14-.11-2.29-.15-3.44-.12-2.45.08-4.91.5-7.31 1.29"/><path class="st4" d="M143.65 47.36c-.62-.48-1.24-.93-1.88-1.36"/><path class="st7" d="M155.67 69.8c-.1-1.38-.3-2.74-.58-4.09-.19-.91-.42-1.81-.69-2.7-.21-.69-.44-1.37-.7-2.04-.4-1.06-.86-2.1-1.38-3.11-.52-1.03-1.1-2.03-1.74-3M136.82 100.93c1.22-.53 2.41-1.13 3.56-1.81 1.04-.61 2.04-1.29 3.01-2.03 2.11-1.61 4.04-3.51 5.75-5.7.71-.91 1.36-1.85 1.95-2.8.59-.96 1.13-1.94 1.61-2.94.69-1.44 1.26-2.92 1.72-4.43.21-.71.4-1.42.56-2.13"/><g class="st5"><defs><path id="SVGID_9_" d="M111.03 100.25h17.02V104h-17.02z"/></defs><clipPath id="SVGID_10_"><use xlink:href="#SVGID_9_" style="overflow:visible"/></clipPath><path d="M111.53 100.75a31.736 31.736 0 0 0 5.32 1.83c1.76.43 3.54.71 5.33.84 1.79.12 3.58.09 5.36-.09" style="clip-path:url(#SVGID_10_);fill:none;stroke:#6d7381;stroke-linecap:round;stroke-linejoin:round;stroke-miterlimit:10"/></g><g class="st9"><defs><path id="SVGID_11_" d="M93.9 80.25h11.47v16.88H93.9z"/></defs><clipPath id="SVGID_12_"><use xlink:href="#SVGID_11_" style="overflow:visible"/></clipPath><path d="M94.15 80.5a31.24 31.24 0 0 0 8.89 14.62c.66.61 1.35 1.19 2.07 1.75" style="clip-path:url(#SVGID_12_);fill:none;stroke:#6d7381;stroke-width:.5;stroke-linecap:round;stroke-linejoin:round;stroke-miterlimit:10"/></g><g class="st9"><defs><path id="SVGID_13_" d="M92.51 66.01h1.5v7.79h-1.5z"/></defs><clipPath id="SVGID_14_"><use xlink:href="#SVGID_13_" style="overflow:visible"/></clipPath><path d="M93.51 66.51c-.16.9-.29 1.81-.37 2.72a32.6 32.6 0 0 0-.11 4.07" style="clip-path:url(#SVGID_14_);fill:none;stroke:#6d7381;stroke-linecap:round;stroke-linejoin:round;stroke-miterlimit:10"/></g><g class="st9"><defs><path id="SVGID_15_" d="M94.72 55.34h3.35v5.71h-3.35z"/></defs><clipPath id="SVGID_16_"><use xlink:href="#SVGID_15_" style="overflow:visible"/></clipPath><path d="M97.57 55.84a31.731 31.731 0 0 0-2.35 4.71" style="clip-path:url(#SVGID_16_);fill:none;stroke:#6d7381;stroke-linecap:round;stroke-linejoin:round;stroke-miterlimit:10"/></g><g class="st13"><defs><path id="SVGID_17_" d="M103.14 42.87h9.52v6.18h-9.52z"/></defs><clipPath id="SVGID_18_"><use xlink:href="#SVGID_17_" style="overflow:visible"/></clipPath><path d="M112.41 43.12c-.89.37-1.77.78-2.63 1.23-.86.45-1.7.94-2.52 1.48-.43.28-.85.57-1.27.87-.9.65-1.76 1.35-2.6 2.1" style="clip-path:url(#SVGID_18_);fill:none;stroke:#6d7381;stroke-width:.5;stroke-linecap:round;stroke-linejoin:round;stroke-miterlimit:10"/></g><g class="st13"><defs><path id="SVGID_19_" d="M120.09 40.5h12.58v1.54h-12.58z"/></defs><clipPath id="SVGID_20_"><use xlink:href="#SVGID_19_" style="overflow:visible"/></clipPath><path d="M132.42 41.79c-.5-.13-.99-.25-1.49-.35-3.5-.74-7.08-.88-10.59-.42" style="clip-path:url(#SVGID_20_);fill:none;stroke:#6d7381;stroke-width:.5;stroke-linecap:round;stroke-linejoin:round;stroke-miterlimit:10"/></g><path class="st7" d="M155.23 37.03a47.844 47.844 0 0 0-6.05-4.52 46.467 46.467 0 0 0-9.53-4.56M166.08 51.04a46.55 46.55 0 0 0-2.1-3.71"/><g class="st2"><defs><path id="SVGID_21_" d="M168.63 58.16h2.92v12.25h-2.92z"/></defs><clipPath id="SVGID_22_"><use xlink:href="#SVGID_21_" style="overflow:visible"/></clipPath><path d="M171.05 69.92c-.09-1.86-.28-3.69-.58-5.49-.33-1.96-.78-3.88-1.34-5.76" style="clip-path:url(#SVGID_22_);fill:none;stroke:#6d7381;stroke-linecap:round;stroke-linejoin:round;stroke-miterlimit:10"/></g><g class="st5"><defs><path id="SVGID_23_" d="M162.92 79.07H171v19.22h-8.08z"/></defs><clipPath id="SVGID_24_"><use xlink:href="#SVGID_23_" style="overflow:visible"/></clipPath><path d="M163.42 97.79c1.16-1.77 2.21-3.62 3.13-5.55.98-2.05 1.82-4.19 2.49-6.4.62-2.03 1.11-4.12 1.45-6.27" style="clip-path:url(#SVGID_24_);fill:none;stroke:#6d7381;stroke-linecap:round;stroke-linejoin:round;stroke-miterlimit:10"/></g><g class="st13"><defs><path id="SVGID_25_" d="M146.46 106.89h9.11v6.46h-9.11z"/></defs><clipPath id="SVGID_26_"><use xlink:href="#SVGID_25_" style="overflow:visible"/></clipPath><path d="M146.58 113.23c1.78-.96 3.5-2.04 5.13-3.23 1.29-.93 2.54-1.93 3.72-2.99" style="clip-path:url(#SVGID_26_);fill:none;stroke:#6d7381;stroke-width:.25;stroke-linecap:round;stroke-linejoin:round;stroke-miterlimit:10"/></g><g class="st5"><defs><path id="SVGID_27_" d="M101.51 112.64h37.29v6.7h-37.29z"/></defs><clipPath id="SVGID_28_"><use xlink:href="#SVGID_27_" style="overflow:visible"/></clipPath><path d="M102.01 113.14c1.27.69 2.58 1.33 3.92 1.91.7.3 1.41.58 2.13.85a46.09 46.09 0 0 0 12.89 2.81c1.81.13 3.61.16 5.39.09 1.32-.05 2.64-.16 3.93-.33 1.3-.16 2.58-.38 3.85-.65 1.42-.3 2.82-.67 4.19-1.1" style="clip-path:url(#SVGID_28_);fill:none;stroke:#6d7381;stroke-linecap:round;stroke-linejoin:round;stroke-miterlimit:10"/></g><g class="st5"><defs><path id="SVGID_29_" d="M77.29 44.6h16.53v62.9H77.29z"/></defs><clipPath id="SVGID_30_"><use xlink:href="#SVGID_29_" style="overflow:visible"/></clipPath><path d="M86.36 44.98c-.98 1.37-1.89 2.8-2.72 4.27-.84 1.5-1.6 3.04-2.28 4.64s-1.27 3.24-1.76 4.92c-.93 3.15-1.55 6.46-1.8 9.87-.08 1.16-.13 2.31-.13 3.46 0 2.19.15 4.35.44 6.47a46.348 46.348 0 0 0 2.83 10.73c1.97 4.95 4.76 9.5 8.22 13.47a47.16 47.16 0 0 0 4.28 4.32" style="clip-path:url(#SVGID_30_);fill:none;stroke:#6d7381;stroke-width:.75;stroke-linecap:round;stroke-linejoin:round;stroke-miterlimit:10"/></g><g class="st5"><defs><path id="SVGID_31_" d="M95.18 25.37h23.09v10.39H95.18z"/></defs><clipPath id="SVGID_32_"><use xlink:href="#SVGID_31_" style="overflow:visible"/></clipPath><path d="M117.77 25.87c-2.36.34-4.66.85-6.9 1.52-1.05.32-2.09.67-3.1 1.06-2.4.92-4.72 2.03-6.92 3.31a45.4 45.4 0 0 0-5.16 3.5" style="clip-path:url(#SVGID_32_);fill:none;stroke:#6d7381;stroke-linecap:round;stroke-linejoin:round;stroke-miterlimit:10"/></g><path class="st7" d="M152.04 99.5a38.825 38.825 0 0 0 6.15-8.1c.6-1.04 1.14-2.11 1.64-3.21s.95-2.22 1.34-3.37c.21-.6.4-1.21.58-1.82.38-1.32.7-2.67.94-4.04.39-2.22.6-4.51.6-6.84 0-1.52-.09-3.01-.26-4.48-.13-1.1-.3-2.18-.51-3.25-.21-1.07-.47-2.12-.77-3.15-.34-1.16-.73-2.3-1.17-3.41-.5-1.28-1.07-2.52-1.71-3.72-.53-1.01-1.1-1.99-1.71-2.94-.91-1.42-1.91-2.78-3-4.07a39.098 39.098 0 0 0-10.86-8.97 38.886 38.886 0 0 0-10.27-3.94c-1.73-.39-3.5-.67-5.3-.82-1.11-.09-2.23-.14-3.36-.14-1.59 0-3.16.1-4.69.28"/><g class="st2"><defs><path id="SVGID_33_" d="M123.88 107.44h16.24v4.1h-16.24z"/></defs><clipPath id="SVGID_34_"><use xlink:href="#SVGID_33_" style="overflow:visible"/></clipPath><path d="M124.38 111.03c.97 0 1.93-.03 2.88-.11 1.82-.13 3.6-.39 5.35-.77 2.43-.52 4.78-1.27 7.01-2.23" style="clip-path:url(#SVGID_34_);fill:none;stroke:#6d7381;stroke-linecap:round;stroke-linejoin:round;stroke-miterlimit:10"/></g><g class="st2"><defs><path id="SVGID_35_" d="M101.43 103.41h10.94v6.07h-10.94z"/></defs><clipPath id="SVGID_36_"><use xlink:href="#SVGID_35_" style="overflow:visible"/></clipPath><path d="M101.93 103.91c.73.51 1.47 1.01 2.23 1.47 1.2.73 2.44 1.4 3.72 1.99 1.29.61 2.63 1.14 3.99 1.61" style="clip-path:url(#SVGID_36_);fill:none;stroke:#6d7381;stroke-linecap:round;stroke-linejoin:round;stroke-miterlimit:10"/></g><g class="st2"><defs><path id="SVGID_37_" d="M84.97 71.62h3.58v14.97h-3.58z"/></defs><clipPath id="SVGID_38_"><use xlink:href="#SVGID_37_" style="overflow:visible"/></clipPath><path d="M85.47 72.12c0 2.86.31 5.65.89 8.33.42 1.94.99 3.82 1.69 5.64" style="clip-path:url(#SVGID_38_);fill:none;stroke:#6d7381;stroke-linecap:round;stroke-linejoin:round;stroke-miterlimit:10"/></g><g class="st2"><defs><path id="SVGID_39_" d="M87.66 35.27h23.3v23.1h-23.3z"/></defs><clipPath id="SVGID_40_"><use xlink:href="#SVGID_39_" style="overflow:visible"/></clipPath><path d="M110.46 35.77a39.123 39.123 0 0 0-12.94 8.2c-4.05 3.87-7.27 8.6-9.35 13.9" style="clip-path:url(#SVGID_40_);fill:none;stroke:#6d7381;stroke-linecap:round;stroke-linejoin:round;stroke-miterlimit:10"/></g><g class="st13"><defs><path id="SVGID_41_" d="M65.66 13.4H183.1v117.44H65.66z"/></defs><clipPath id="SVGID_42_"><use xlink:href="#SVGID_41_" style="overflow:visible"/></clipPath><path class="st26" d="M99.33 19.3a58.05 58.05 0 0 0-10.73 6.58c-2.36 1.82-4.55 3.8-6.57 5.92a58.115 58.115 0 0 0-8.2 10.95 59.85 59.85 0 0 0-3.46 7 58.946 58.946 0 0 0-3.59 12.36M169.77 35.26a57.66 57.66 0 0 0-5.02-5.44c-.75-.71-1.51-1.41-2.29-2.08a58.648 58.648 0 0 0-17.17-10.21 58.525 58.525 0 0 0-24.89-3.75M182.73 75.92c.36-5.45-.04-11-1.27-16.48-.58-2.59-1.34-5.17-2.29-7.72-.59-1.56-1.24-3.12-1.97-4.65M173.95 103.13c1.34-2.15 2.54-4.39 3.59-6.68a58.73 58.73 0 0 0 2.2-5.55M133.67 129.85c2.04-.33 4.07-.77 6.09-1.32 3.27-.89 6.5-2.09 9.67-3.59a61.12 61.12 0 0 0 5.92-3.23 58.615 58.615 0 0 0 7.86-5.87c1.36-1.21 2.65-2.47 3.88-3.78M105.03 127.28c2.39.84 4.84 1.53 7.33 2.05 2.51.53 5.06.9 7.63 1.09 1.79.14 3.6.19 5.41.16M73.56 101.01a57.941 57.941 0 0 0 12.02 14.86M65.91 72.42c.01 2.15.14 4.3.39 6.45.25 2.15.62 4.31 1.12 6.45"/></g><g class="st9"><defs><path id="SVGID_43_" d="M18.13-34.24h212.8v212.12H18.13z"/></defs><clipPath id="SVGID_44_"><use xlink:href="#SVGID_43_" style="overflow:visible"/></clipPath><path class="st27" d="M18.38 77.66c.4 7.79 1.63 15.35 3.6 22.58 1.42 5.22 3.23 10.28 5.39 15.14 1.01 2.28 2.1 4.51 3.27 6.7 2.75 5.17 5.91 10.07 9.44 14.67 2.88 3.76 6.01 7.32 9.35 10.66 5.53 5.51 11.65 10.41 18.26 14.6M94.04-29.57c-4.33 1.29-8.54 2.85-12.62 4.65-1.72.76-3.41 1.57-5.08 2.41A106.49 106.49 0 0 0 47.28-.75c-10.5 11.11-18.61 24.46-23.56 39.2M210.92 10.5c-2.68-3.75-5.6-7.31-8.73-10.67-2.47-2.65-5.07-5.17-7.8-7.55M227.86 96.67c.86-3.65 1.53-7.37 2-11.15.76-6.11 1-12.37.68-18.73-.21-4.13-.66-8.2-1.32-12.19-.5-2.97-1.12-5.91-1.85-8.79-.74-2.88-1.59-5.71-2.55-8.49-1.08-3.12-2.31-6.17-3.66-9.14M203.67 143c3.07-3.44 5.92-7.08 8.53-10.89a106.196 106.196 0 0 0 11.14-21.02"/></g><g class="st28"><defs><path id="SVGID_45_" d="M23.96-30H226.7v204.41H23.96z"/></defs><clipPath id="SVGID_46_"><use xlink:href="#SVGID_45_" style="overflow:visible"/></clipPath><path class="st29" d="M24.51 91.59c1.42 7.35 3.6 14.35 6.44 20.95 2.05 4.77 4.44 9.33 7.15 13.65 1.27 2.03 2.6 4 4 5.93 3.3 4.53 6.96 8.77 10.92 12.66a102.54 102.54 0 0 0 29.6 20.27M81.96-20.33c-3.94 1.81-7.73 3.85-11.35 6.11-1.53.95-3.03 1.94-4.49 2.97a102.003 102.003 0 0 0-24.68 24.54C32.96 25.25 27.05 39 24.33 53.66M198.27 2.04a102.856 102.856 0 0 0-18.13-15.09M225.9 81.57c.33-3.58.47-7.2.41-10.85-.09-5.9-.7-11.87-1.87-17.87-.76-3.89-1.72-7.69-2.89-11.39-.87-2.76-1.85-5.46-2.93-8.09a98.319 98.319 0 0 0-3.56-7.72 102.87 102.87 0 0 0-4.7-8.19M209.15 128.78c2.46-3.68 4.67-7.51 6.64-11.48 1.98-4 3.7-8.14 5.15-12.39 1.01-2.97 1.88-5.99 2.62-9.06"/></g><path class="st7" d="M73.4 82.05c.73 3.75 1.84 7.33 3.29 10.71 1.05 2.44 2.27 4.76 3.65 6.97a52.367 52.367 0 0 0 7.63 9.5 52.69 52.69 0 0 0 5.27 4.53c3.06 2.29 6.36 4.25 9.86 5.83M102.75 24.87a51.994 51.994 0 0 0-8.1 4.64c-4.92 3.45-9.18 7.7-12.61 12.54a52.185 52.185 0 0 0-8.74 20.62M140.66 22.71a51.61 51.61 0 0 0-21.64-2.29c-1.48.16-2.96.38-4.45.67M162.17 36.3a53.82 53.82 0 0 0-4.97-4.58 50.726 50.726 0 0 0-4.3-3.13M176.28 76.93c.17-1.83.24-3.68.21-5.54-.05-3.01-.36-6.07-.95-9.13-.39-1.99-.88-3.93-1.48-5.82-.44-1.41-.94-2.79-1.5-4.13a52.044 52.044 0 0 0-4.22-8.12M167.72 101.05c1.25-1.88 2.39-3.84 3.39-5.86 1.01-2.05 1.89-4.16 2.63-6.33.52-1.52.96-3.06 1.34-4.63M138.11 122.36c2.35-.64 4.63-1.43 6.82-2.37 3.06-1.3 5.94-2.88 8.64-4.7M111.78 122.62c1.85.47 3.74.83 5.65 1.09 1.91.26 3.85.42 5.8.46"/><g class="st30"><defs><path id="SVGID_47_" d="M59.09 6.56h130.94v130.47H59.09z"/></defs><clipPath id="SVGID_48_"><use xlink:href="#SVGID_47_" style="overflow:visible"/></clipPath><path class="st31" d="M148.5 11.18c-2.15-.85-4.33-1.58-6.54-2.19-1.85-.51-3.71-.94-5.58-1.29-2.8-.52-5.62-.85-8.45-1.01M137.58 136.31c1.47-.3 2.93-.65 4.38-1.05a65.716 65.716 0 0 0 13.3-5.32c2.14-1.14 4.24-2.42 6.26-3.82a65.75 65.75 0 0 0 13.84-12.84c1.93-2.39 3.67-4.88 5.22-7.45 2.16-3.59 3.93-7.33 5.34-11.18.37-1 .71-2.02 1.03-3.04a65.73 65.73 0 0 0 2.34-10.5c.52-3.79.71-7.62.57-11.44-.11-2.84-.4-5.68-.87-8.49-.27-1.62-.61-3.23-1-4.83a65.887 65.887 0 0 0-3.04-9.28 64.636 64.636 0 0 0-4.17-8.33 64.518 64.518 0 0 0-6.23-8.76 63.44 63.44 0 0 0-5.37-5.66 63.125 63.125 0 0 0-3.73-3.24c-.68-.55-1.38-1.09-2.08-1.61a62.545 62.545 0 0 0-4.58-3.11M59.22 79.02c.58 5.47 1.84 10.87 3.78 16.07a67.3 67.3 0 0 0 2.17 5.13c1.08 2.27 2.29 4.5 3.65 6.66 1.71 2.73 3.64 5.36 5.79 7.87 1.54 1.8 3.2 3.53 4.96 5.18 1.46 1.37 2.97 2.66 4.52 3.87 2.17 1.7 4.42 3.24 6.74 4.62a65.56 65.56 0 0 0 8.88 4.42c1.43.58 2.87 1.1 4.32 1.58 3.43 1.12 6.94 1.95 10.47 2.48M76.58 27.31a65.583 65.583 0 0 0-9.27 12.6 64.096 64.096 0 0 0-3.61 7.47c-.44 1.07-.85 2.15-1.22 3.25-.83 2.39-1.51 4.82-2.06 7.27M112.74 7.63c-2.81.51-5.6 1.2-8.34 2.07-1.9.61-3.79 1.3-5.64 2.09-2.07.88-4.11 1.87-6.1 2.97-1.68.93-3.32 1.94-4.93 3.02"/></g><path class="st7" d="M46.59 150.54c1.79 1.78 3.65 3.51 5.57 5.16 3.01 2.6 6.17 5.05 9.46 7.33 3.33 2.31 6.81 4.44 10.42 6.38 3.61 1.94 7.34 3.69 11.2 5.23 7.22 2.89 14.86 5.06 22.84 6.4a110.972 110.972 0 0 0 23.43 1.43c7.05-.32 13.97-1.31 20.68-2.93 1.75-.42 3.49-.89 5.22-1.39 5.83-1.71 11.49-3.9 16.92-6.52 5.81-2.81 11.36-6.11 16.59-9.87 3.89-2.8 7.6-5.85 11.11-9.14 2.02-1.89 3.97-3.87 5.84-5.91 1.41-1.53 2.77-3.11 4.09-4.73 2.15-2.63 4.19-5.37 6.1-8.21 1.91-2.84 3.7-5.77 5.35-8.8.86-1.58 1.68-3.18 2.47-4.82a109.505 109.505 0 0 0 6.5-16.91c1.21-4.16 2.2-8.43 2.94-12.81a112.195 112.195 0 0 0 1.39-12.67c.16-3.13.19-6.25.09-9.34s-.33-6.16-.69-9.19c-.4-3.41-.96-6.78-1.67-10.11-.81-3.81-1.82-7.55-3.02-11.22-1-3.07-2.14-6.08-3.4-9.04a110.41 110.41 0 0 0-6.47-12.8M53.9-12.92a110.45 110.45 0 0 0-24.21 28.13c-2.19 3.63-4.17 7.41-5.94 11.33a109.53 109.53 0 0 0-5.64 15.47c-1.08 3.84-1.97 7.78-2.65 11.81-.56 3.33-.97 6.66-1.22 9.96-.36 4.63-.42 9.23-.2 13.77.27 5.62.97 11.16 2.08 16.58.52 2.54 1.12 5.06 1.81 7.54 1.63 5.86 3.74 11.55 6.29 17.02"/><path class="st7" d="M196.95 56.68c-.55-2.56-1.22-5.07-2.03-7.54M175.17 126.18c1.36-1.27 2.66-2.6 3.92-3.97.95-1.03 1.86-2.09 2.75-3.17 1.45-1.77 2.81-3.61 4.1-5.51 1.28-1.91 2.48-3.88 3.59-5.91.58-1.06 1.13-2.14 1.66-3.23 1.14-2.36 2.16-4.79 3.05-7.3a73.12 73.12 0 0 0 3.29-12.66c.31-1.85.55-3.7.72-5.54.09-.99.16-1.98.21-2.97.11-2.1.13-4.19.06-6.27M112.09 145.26c1.82.31 3.63.54 5.44.71 3.46.32 6.9.4 10.3.25 4.73-.22 9.38-.88 13.88-1.97 1.18-.28 2.35-.6 3.5-.94 3.92-1.15 7.72-2.62 11.36-4.38M72.14 124.78a74.154 74.154 0 0 0 10.09 8.39c2.24 1.55 4.58 2.98 7 4.28M53.02 51.9a75.477 75.477 0 0 0-2.6 14.62c-.24 3.11-.28 6.2-.13 9.25.18 3.78.65 7.5 1.39 11.13.35 1.71.75 3.4 1.22 5.06 1.09 3.94 2.51 7.76 4.22 11.43M77.05 15.01A74.142 74.142 0 0 0 60.79 33.9M158.58 6.28a72.8 72.8 0 0 0-5.94-2.75M177.88 20.74a74.354 74.354 0 0 0-7.17-6.56"/><g class="st13"><defs><path id="SVGID_49_" d="M38.42-13.84h171.92v171.92H38.42z"/></defs><clipPath id="SVGID_50_"><use xlink:href="#SVGID_49_" style="overflow:visible"/></clipPath><path d="M38.67 72.12c0 6.3.68 12.44 1.97 18.35a84.785 84.785 0 0 0 6.08 17.96c2 4.28 4.35 8.36 7 12.21a86.7 86.7 0 0 0 7.1 8.98c4.23 4.67 8.96 8.87 14.12 12.52 1.6 1.13 3.24 2.21 4.92 3.24a85.585 85.585 0 0 0 16.97 7.93c3.01 1.02 6.1 1.88 9.25 2.56a86.22 86.22 0 0 0 18.3 1.96c2.13 0 4.25-.08 6.34-.23 4.01-.29 7.94-.86 11.78-1.69 5.35-1.15 10.52-2.8 15.45-4.9 1.29-.55 2.56-1.13 3.81-1.74a85.778 85.778 0 0 0 23.53-16.85c2.62-2.64 5.07-5.46 7.32-8.42 2.28-2.99 4.36-6.14 6.24-9.42a85.75 85.75 0 0 0 7.84-18.5c.84-2.9 1.54-5.88 2.07-8.9.87-4.89 1.32-9.92 1.32-15.07 0-3.34-.19-6.63-.56-9.88-.28-2.42-.65-4.8-1.13-7.16-.47-2.35-1.04-4.67-1.71-6.95-.74-2.56-1.6-5.07-2.57-7.52a85.62 85.62 0 0 0-3.76-8.2 86.692 86.692 0 0 0-3.76-6.48 86.46 86.46 0 0 0-12.57-15.37A86.26 86.26 0 0 0 166.06-2.8c-7-3.9-14.6-6.85-22.62-8.68-3.8-.86-7.7-1.48-11.67-1.81-2.44-.21-4.91-.31-7.4-.31-3.5 0-6.95.21-10.34.62-3.39.41-6.72 1.01-9.98 1.81-3.54.86-7 1.94-10.36 3.23-1.4.54-2.79 1.12-4.17 1.74A85.713 85.713 0 0 0 65.2 10.13c-8.92 8.52-16 18.94-20.6 30.62-1.2 3.06-2.24 6.21-3.09 9.43a85.8 85.8 0 0 0-2.84 21.94z" style="clip-path:url(#SVGID_50_);fill:none;stroke:#6d7381;stroke-width:.5;stroke-linecap:round;stroke-linejoin:round;stroke-miterlimit:10"/></g><g class="st5"><defs><path id="SVGID_51_" d="M24.29-27.97h200.19v199.92H24.29z"/></defs><clipPath id="SVGID_52_"><use xlink:href="#SVGID_51_" style="overflow:visible"/></clipPath><path class="st33" d="M213 25.82c-1.36-2.59-2.82-5.11-4.39-7.56-2.34-3.65-4.91-7.14-7.69-10.45-2.19-2.61-4.52-5.1-6.97-7.47-3.12-3.03-6.45-5.86-9.94-8.46M203.97 132.62a99.36 99.36 0 0 0 7.27-10.98c1.53-2.67 2.93-5.42 4.21-8.24 1.28-2.82 2.43-5.71 3.45-8.66.53-1.54 1.03-3.1 1.48-4.67.99-3.39 1.8-6.85 2.42-10.38a100.8 100.8 0 0 0 1.54-17.57c0-3.9-.22-7.74-.66-11.52-.32-2.82-.76-5.6-1.32-8.35-.55-2.74-1.22-5.45-1.99-8.1M50.24 139.18a99.916 99.916 0 0 0 16.47 14.6c1.87 1.32 3.78 2.58 5.74 3.77 3.08 1.87 6.26 3.59 9.54 5.13M27.72 46.53c-2.16 8.17-3.3 16.74-3.3 25.59 0 7.34.79 14.5 2.3 21.4a99.305 99.305 0 0 0 7.09 20.95"/></g><path class="st7" d="M244.17 24.8c-1.67-4.22-3.55-8.33-5.64-12.32-1.75-3.33-3.63-6.58-5.65-9.73-3.01-4.71-6.33-9.2-9.91-13.46M241.68 125.29c1.65-3.63 3.13-7.35 4.44-11.15.68-1.98 1.32-3.99 1.91-6.01 1.27-4.36 2.31-8.82 3.12-13.37 1.3-7.35 1.98-14.91 1.98-22.63a129.537 129.537 0 0 0-2.55-25.58M-1.42 99.68c1.4 6.41 3.28 12.65 5.59 18.66 1.09 2.82 2.27 5.6 3.54 8.32 3.01 6.42 6.53 12.56 10.51 18.35 3.26 4.73 6.82 9.24 10.66 13.48M35.47-21.01c-13.4 12.8-24.04 28.46-30.94 46-1.81 4.6-3.36 9.33-4.64 14.17"/><path class="st7" d="M252.35 49.78a127.942 127.942 0 0 0-4.47-17.9c-1.43-4.35-3.09-8.66-5.01-12.9-3.09-6.86-6.83-13.54-11.22-19.97a131.46 131.46 0 0 0-9.14-11.87c-2.41-2.79-4.92-5.45-7.53-7.99M205.4 173.69c4.76-3.79 9.2-7.86 13.29-12.17 5.71-6.01 10.76-12.49 15.13-19.33M-2.5 45.23c-3.88 18.27-3.84 37.36.39 55.89C-1 105.98.4 110.8 2.08 115.56"/><g class="st2"><defs><path id="SVGID_53_" d="M5.2-47.14h240.34v239.9H5.2z"/></defs><clipPath id="SVGID_54_"><use xlink:href="#SVGID_53_" style="overflow:visible"/></clipPath><path class="st34" d="M230.35 14.44c-2.53-4.56-5.35-8.95-8.44-13.15M242.74 97.68c1.18-5.5 1.96-11.01 2.36-16.49.56-7.65.37-15.24-.52-22.69M206.31 161.22c3.2-2.91 6.24-6.01 9.12-9.27 2.92-3.3 5.66-6.78 8.22-10.43 2.55-3.64 4.92-7.45 7.08-11.42M18.79 127.76c7.94 15.34 19.17 28.96 33.05 39.72 3.64 2.82 7.47 5.45 11.47 7.86M53.01-23.16A119.65 119.65 0 0 0 41.1-12.89c-8 7.87-14.95 16.92-20.56 27-2.65 4.77-5.01 9.76-7.03 14.97a120.48 120.48 0 0 0-3.33 9.82c-1.38 4.7-2.45 9.42-3.24 14.14-.78 4.72-1.28 9.43-1.5 14.11-.24 5.1-.14 10.18.27 15.19"/></g><path class="st7" d="M226.22 14.45c-2.51-4.41-5.31-8.66-8.37-12.71M239.24 95.37c1.09-5.37 1.79-10.75 2.11-16.09.45-7.45.18-14.84-.76-22.09M204.49 157.67c3.08-2.87 6.01-5.92 8.78-9.13 2.8-3.25 5.43-6.67 7.88-10.25s4.71-7.31 6.76-11.2M21.49 127.22c7.91 14.84 19 27.98 32.64 38.31 3.58 2.71 7.33 5.22 11.25 7.53M53.09-20.14c-4.03 3.12-7.87 6.5-11.48 10.14-7.7 7.75-14.37 16.65-19.71 26.52-2.53 4.67-4.77 9.57-6.67 14.66-1.17 3.13-2.22 6.33-3.13 9.6-1.29 4.6-2.28 9.2-2.99 13.81-.71 4.6-1.14 9.2-1.3 13.76-.17 4.97-.02 9.91.43 14.79"/><g style="opacity:.19;clip-path:url(#SVGID_4_)"><defs><path id="SVGID_55_" d="M9.39-42.88h229.99v229.99H9.39z"/></defs><clipPath id="SVGID_56_"><use xlink:href="#SVGID_55_" style="overflow:visible"/></clipPath><path class="st36" d="M215.73 141.57c3.05-4 5.84-8.21 8.35-12.61 1.75-3.07 3.37-6.22 4.84-9.46 1.47-3.24 2.79-6.55 3.96-9.94.61-1.77 1.18-3.55 1.7-5.36 1.13-3.89 2.06-7.86 2.78-11.91 1.16-6.55 1.77-13.29 1.77-20.17 0-4.47-.26-8.88-.75-13.22-.37-3.24-.88-6.43-1.51-9.58-.64-3.15-1.4-6.25-2.29-9.3-1-3.42-2.15-6.78-3.45-10.07a115.93 115.93 0 0 0-5.03-10.98c-1.56-2.97-3.24-5.86-5.04-8.67M17.25 113.31a114.754 114.754 0 0 0 12.53 23.76c2.9 4.22 6.08 8.23 9.5 12.02 5.66 6.25 12 11.88 18.9 16.76 2.14 1.52 4.34 2.96 6.59 4.33M17.57 30.12c-1.61 4.1-3 8.32-4.14 12.63a115.12 115.12 0 0 0-3.79 29.37"/></g><g class="st2"><defs><path id="SVGID_57_" d="M41.76-10.5h165.25v165.25H41.76z"/></defs><clipPath id="SVGID_58_"><use xlink:href="#SVGID_57_" style="overflow:visible"/></clipPath><path class="st37" d="M205.49 86.6c.83-4.7 1.27-9.54 1.27-14.48 0-3.21-.18-6.38-.54-9.49a86.43 86.43 0 0 0-1.08-6.88 82.39 82.39 0 0 0-4.11-13.91 82.097 82.097 0 0 0-7.23-14.11 82.602 82.602 0 0 0-6.34-8.61c-1.81-2.15-3.72-4.2-5.74-6.16a82.56 82.56 0 0 0-8.19-6.97 82.024 82.024 0 0 0-9.06-5.87M182.92 130.07c2.52-2.54 4.87-5.25 7.04-8.1 2.19-2.88 4.19-5.9 5.99-9.05 1.26-2.2 2.42-4.47 3.47-6.79 1.05-2.32 2-4.7 2.84-7.14M81.59 142.52c2.53 1.54 5.16 2.96 7.86 4.22 2.74 1.28 5.56 2.42 8.45 3.4M49.74 107.01c1.92 4.11 4.18 8.03 6.73 11.74 2.08 3.03 4.36 5.91 6.82 8.63M42.01 72.12c0 6.05.65 11.95 1.89 17.63"/></g><g class="st2"><defs><path id="SVGID_59_" d="M118.53 66.14h11.84v11.95h-11.84z"/></defs><clipPath id="SVGID_60_"><use xlink:href="#SVGID_59_" style="overflow:visible"/></clipPath><path class="st38" d="M129.72 70.01c-.07-.19-.16-.37-.25-.55a6.034 6.034 0 0 0-.69-1.03c-.13-.15-.26-.29-.4-.43-.18-.17-.37-.34-.57-.49-.2-.15-.41-.29-.63-.41-.47-.26-.98-.46-1.51-.58-.25-.06-.51-.1-.78-.12-.16-.01-.33-.02-.5-.02-.23 0-.46.01-.69.04-.23.03-.45.07-.67.12-.24.06-.47.13-.69.22M124.81 77.84c.27-.02.53-.06.79-.11.36-.08.7-.19 1.03-.33.09-.04.17-.08.26-.12.59-.28 1.12-.67 1.57-1.13.18-.18.34-.36.49-.56.15-.2.29-.41.42-.63.09-.15.17-.31.24-.47.07-.16.14-.33.2-.5l.09-.27c.06-.19.1-.39.14-.6a5.58 5.58 0 0 0 .05-1.67c-.02-.16-.04-.32-.07-.48M120.13 75.97c.28.31.6.59.94.84.11.07.22.15.33.22.18.11.36.21.55.29.19.09.39.17.59.24.2.07.41.13.62.17M118.78 73.35a5.692 5.692 0 0 0 .41 1.2M120.42 67.97c-.6.57-1.07 1.27-1.38 2.05"/></g><path class="st7" d="M204.2 30.41c-1.22-2.33-2.54-4.6-3.95-6.81a91.533 91.533 0 0 0-6.93-9.41M213.83 61.75c-.29-2.54-.69-5.05-1.19-7.52-.5-2.47-1.1-4.9-1.79-7.3M209.52 101.5c.48-1.39.92-2.79 1.33-4.2.89-3.05 1.62-6.17 2.18-9.35M163.65 153.17a90.131 90.131 0 0 0 24.72-17.71c2.75-2.78 5.32-5.73 7.69-8.85a91.03 91.03 0 0 0 6.55-9.89M36.41 91.39c.98 4.48 2.29 8.84 3.91 13.05.76 1.97 1.59 3.91 2.48 5.82 2.1 4.49 4.57 8.78 7.35 12.83a90.603 90.603 0 0 0 22.29 22.58c1.68 1.19 3.41 2.32 5.17 3.4a89.546 89.546 0 0 0 17.84 8.34M87.76-10.16A90.59 90.59 0 0 0 62.2 6.99a90.209 90.209 0 0 0-21.64 32.17 89.697 89.697 0 0 0-3.25 9.91"/><g class="st30"><defs><path id="SVGID_61_" d="M83.04 30.78h82.68v82.68H83.04z"/></defs><clipPath id="SVGID_62_"><use xlink:href="#SVGID_61_" style="overflow:visible"/></clipPath><path class="st39" d="M164.66 63.95c-.23-1.13-.5-2.24-.82-3.33-.36-1.23-.77-2.43-1.23-3.61-.53-1.35-1.13-2.66-1.8-3.93-.56-1.06-1.16-2.1-1.8-3.11a41.547 41.547 0 0 0-6.02-7.36 42.45 42.45 0 0 0-4.09-3.48 42.068 42.068 0 0 0-4.52-2.93M160.08 92.47c.63-1.1 1.21-2.23 1.73-3.39a40.593 40.593 0 0 0 2.03-5.48c.4-1.39.74-2.82.99-4.27.42-2.35.63-4.76.63-7.22M124.38 113.21c1.02 0 2.03-.04 3.04-.11 1.92-.14 3.81-.41 5.65-.81 2.57-.55 5.04-1.34 7.4-2.35.62-.26 1.23-.54 1.83-.83 4.21-2.04 8.02-4.79 11.28-8.08M106.96 109.34c1.37.64 2.77 1.21 4.22 1.7M90.51 95.38c1.04 1.51 2.18 2.95 3.4 4.3 2.03 2.24 4.3 4.25 6.77 6M83.29 72.12c0 3.02.33 5.96.94 8.8.45 2.05 1.05 4.04 1.78 5.96M127.93 31.18a41.611 41.611 0 0 0-8.51.15c-1.63.2-3.22.49-4.78.86-1.7.41-3.36.93-4.97 1.55-.68.26-1.35.54-2.01.83A41.103 41.103 0 0 0 96 42.4a41.156 41.156 0 0 0-9.88 14.68"/></g><g class="st2"><defs><path id="SVGID_63_" d="M57.12 4.86h134.53v133.68H57.12z"/></defs><clipPath id="SVGID_64_"><use xlink:href="#SVGID_63_" style="overflow:visible"/></clipPath><path class="st40" d="M187.75 93.92a66.29 66.29 0 0 0 1.99-6.98 66.488 66.488 0 0 0 1.66-14.8c0-4.72-.51-9.51-1.55-14.3a67.409 67.409 0 0 0-4.48-13.52 65.68 65.68 0 0 0-6.32-10.98 67.33 67.33 0 0 0-26.4-21.98M138.66 137.58a66.914 66.914 0 0 0 26.39-12.19 66.55 66.55 0 0 0 8.16-7.38c2.05-2.18 3.94-4.49 5.67-6.92M64.16 101.51c1.25 2.56 2.65 5.02 4.19 7.37.65.99 1.33 1.96 2.02 2.91a67.2 67.2 0 0 0 16.52 15.85 67.104 67.104 0 0 0 26.82 10.63M60.23 52.76a66.516 66.516 0 0 0-2.3 27.93c.25 1.9.58 3.8.99 5.7M138.4 6.59c-2.03-.43-4.09-.78-6.16-1.02-1.08-.13-2.17-.23-3.27-.3-2.36-.16-4.74-.2-7.14-.1a67.641 67.641 0 0 0-19.17 3.58c-1.8.61-3.56 1.3-5.28 2.06a66.66 66.66 0 0 0-5.02 2.46c-1.83.99-3.6 2.07-5.31 3.22a69.076 69.076 0 0 0-5.64 4.23c-1.5 1.26-2.94 2.58-4.32 3.95a67.035 67.035 0 0 0-5.74 6.53c-1.39 1.81-2.7 3.69-3.9 5.63"/></g><g class="st28"><defs><path id="SVGID_65_" d="M116.27 63.82h16.36v16.6h-16.36z"/></defs><clipPath id="SVGID_66_"><use xlink:href="#SVGID_65_" style="overflow:visible"/></clipPath><path class="st41" d="M132.5 71.18c-.03-.23-.06-.46-.11-.68-.05-.22-.1-.44-.16-.66-.07-.24-.15-.48-.24-.72-.11-.27-.23-.53-.36-.78-.11-.21-.23-.42-.36-.62-.19-.3-.4-.58-.63-.85a8.224 8.224 0 0 0-4.44-2.71 8.253 8.253 0 0 0-2.81-.14c-.33.04-.64.1-.95.17M130.19 77.87c.25-.25.48-.52.7-.8.22-.29.42-.59.6-.9.13-.22.24-.44.34-.67.1-.23.2-.47.28-.71.04-.13.08-.25.12-.38.08-.28.15-.56.2-.85M121.76 79.86c.29.1.58.18.88.25.56.12 1.15.19 1.75.19.2 0 .4-.01.6-.02.38-.03.76-.08 1.12-.16.51-.11 1-.27 1.47-.47M117.64 76.75a8.05 8.05 0 0 0 2.03 2.05c.15.11.31.21.47.31M116.4 73.87c.09.41.21.8.35 1.19M121.06 64.65c-.86.38-1.65.91-2.32 1.56"/></g><g class="st30"><defs><path id="SVGID_67_" d="M67.65 15.38h113.47v113.47H67.65z"/></defs><clipPath id="SVGID_68_"><use xlink:href="#SVGID_67_" style="overflow:visible"/></clipPath><path class="st42" d="M181 72.12c0-2.21-.13-4.38-.37-6.52-.18-1.6-.43-3.17-.75-4.73-.31-1.55-.69-3.08-1.13-4.59-.49-1.69-1.06-3.35-1.7-4.97a55.28 55.28 0 0 0-2.48-5.42c-.77-1.47-1.6-2.89-2.49-4.28M173.57 100.16c.86-1.51 1.66-3.07 2.39-4.67a56.205 56.205 0 0 0 2.8-7.54M124.38 128.73c1.41 0 2.8-.05 4.19-.15 2.65-.19 5.24-.57 7.78-1.12 3.54-.76 6.95-1.85 10.2-3.24.85-.36 1.69-.74 2.52-1.15a56.97 56.97 0 0 0 15.54-11.13M71.68 51.4c-.8 2.02-1.48 4.1-2.04 6.23a56.704 56.704 0 0 0-1.87 14.49c0 4.16.45 8.21 1.3 12.12a56.261 56.261 0 0 0 4.02 11.86 56.91 56.91 0 0 0 4.62 8.07 56.945 56.945 0 0 0 14.02 14.2c1.06.75 2.14 1.46 3.25 2.14 1.74 1.06 3.55 2.03 5.4 2.9 1.88.88 3.82 1.66 5.81 2.34M163.78 31.47a57.179 57.179 0 0 0-5.63-4.79 57.14 57.14 0 0 0-6.23-4.03 55.994 55.994 0 0 0-14.94-5.73c-2.51-.57-5.08-.97-7.71-1.2a57.065 57.065 0 0 0-18.31 1.39 55.965 55.965 0 0 0-9.61 3.28"/></g><path class="st7" d="M202.88 24.93a93.888 93.888 0 0 0-4.69-7.06 91.648 91.648 0 0 0-8.43-9.92M204.24 116.93c1.11-1.99 2.15-4 3.1-6.03 1.82-3.89 3.35-7.85 4.59-11.86a90.344 90.344 0 0 0 3.51-16.96c.16-1.49.29-2.97.38-4.46a91.65 91.65 0 0 0-3.4-30.74M53.44 130.06c2.22 2.72 4.62 5.33 7.17 7.81a91.97 91.97 0 0 0 18.96 14.11 92.177 92.177 0 0 0 18.12 7.76 90.22 90.22 0 0 0 13.52 3.03 90.96 90.96 0 0 0 21.43.56c4.07-.37 8.1-1.01 12.07-1.92a92.26 92.26 0 0 0 19.05-6.61c1.89-.9 3.76-1.86 5.59-2.9 2.88-1.62 5.67-3.39 8.37-5.33 2.74-1.96 5.37-4.07 7.9-6.34M98.22-15.64a93.006 93.006 0 0 0-11.21 4.15 91.236 91.236 0 0 0-10.62 5.6 91.054 91.054 0 0 0-19.91 16.54 90.67 90.67 0 0 0-7.79 9.93 91.267 91.267 0 0 0-4.16 6.73 92.09 92.09 0 0 0-4.83 9.96 91.58 91.58 0 0 0-5.94 21.58c-.23 1.6-.43 3.21-.57 4.81M175.28 19.6a75.189 75.189 0 0 0-7.27-6.19c-2.56-1.9-5.25-3.65-8.05-5.21M191.01 102.32c.94-2.06 1.78-4.18 2.52-6.34.39-1.13.75-2.26 1.08-3.42.72-2.48 1.31-5.01 1.77-7.59.74-4.17 1.13-8.47 1.13-12.86 0-2.85-.16-5.66-.48-8.43-.24-2.06-.56-4.1-.96-6.11-.4-2.01-.89-3.98-1.46-5.93-.63-2.18-1.37-4.32-2.2-6.42-.95-2.4-2.02-4.73-3.2-7-.99-1.89-2.06-3.74-3.21-5.53M176.36 123.57c2.23-2.26 4.32-4.66 6.25-7.19"/><path class="st7" d="M100.88 141.4c2.57.87 5.2 1.6 7.89 2.19 5.03 1.1 10.26 1.67 15.62 1.67a73.701 73.701 0 0 0 15.46-1.64c4.57-.98 8.97-2.39 13.18-4.18M51.25 72.12c0 5.37.58 10.61 1.68 15.66.79 3.64 1.86 7.18 3.17 10.6.62 1.6 1.29 3.18 2.01 4.72 1.71 3.65 3.71 7.13 5.97 10.42 1.85 2.69 3.88 5.25 6.06 7.66 3.61 3.99 7.65 7.57 12.05 10.68 1.37.97 2.77 1.89 4.2 2.76M130.7-.75c-2.08-.18-4.19-.27-6.31-.27-2.99 0-5.93.18-8.82.53a72.47 72.47 0 0 0-17.35 4.3c-1.21.46-2.4.96-3.58 1.48"/><g class="st28"><defs><path id="SVGID_69_" d="M113.41 61.15h21.94v21.94h-21.94z"/></defs><clipPath id="SVGID_70_"><use xlink:href="#SVGID_69_" style="overflow:visible"/></clipPath><path class="st43" d="M132.69 65.14c-.24-.28-.49-.55-.76-.81-.34-.33-.7-.64-1.08-.92M133.02 78.68c.29-.38.55-.78.79-1.19.17-.29.32-.59.46-.89.14-.31.26-.62.38-.94.06-.17.11-.34.16-.51.11-.37.19-.74.26-1.13a10.942 10.942 0 0 0 .1-3.16c-.04-.31-.08-.61-.14-.91-.06-.3-.13-.59-.22-.88-.09-.32-.2-.64-.33-.95-.14-.36-.3-.7-.47-1.04M120.9 82.39c.38.13.77.24 1.17.32a11.067 11.067 0 0 0 3.12.22c.51-.04 1.01-.11 1.49-.21.68-.15 1.33-.35 1.95-.62.16-.07.32-.14.48-.22M113.9 69.34c-.23.89-.36 1.82-.36 2.78 0 .8.09 1.57.25 2.32a10.518 10.518 0 0 0 .77 2.27c.25.54.55 1.06.89 1.54a10.776 10.776 0 0 0 2.69 2.72c.2.14.41.28.62.41M126.8 61.54c-.48-.11-.97-.19-1.48-.23-.31-.03-.62-.04-.94-.04-.44 0-.88.03-1.31.08-.43.05-.85.13-1.26.23-.45.11-.89.25-1.31.41-.18.07-.36.14-.53.22-1.14.51-2.18 1.21-3.08 2.07"/></g><g class="st5"><defs><path id="SVGID_71_" d="M114.24 61.97h20.29v20.29h-20.29z"/></defs><clipPath id="SVGID_72_"><use xlink:href="#SVGID_71_" style="overflow:visible"/></clipPath><path class="st44" d="M132.98 77.02c.15-.26.29-.54.42-.82s.24-.57.34-.86c.05-.15.1-.31.15-.46.1-.33.18-.68.24-1.03.1-.57.15-1.15.15-1.74 0-.39-.02-.77-.07-1.14-.03-.28-.07-.55-.13-.83-.05-.27-.12-.54-.2-.8-.09-.29-.19-.58-.3-.87-.13-.32-.27-.64-.43-.95-.13-.26-.28-.51-.43-.75-.23-.36-.49-.71-.76-1.03a9.977 9.977 0 0 0-1.68-1.58M121.2 81.49a9.814 9.814 0 0 0 3.18.53c.25 0 .49-.01.73-.03.46-.03.92-.1 1.36-.19.62-.13 1.21-.32 1.78-.57M114.49 72.12a9.837 9.837 0 0 0 .66 3.55c.08.22.17.43.27.64.23.49.5.97.81 1.41a9.719 9.719 0 0 0 3.02 2.85M120.84 62.88a10.13 10.13 0 0 0-3.29 2.09 9.926 9.926 0 0 0-2.38 3.53M126.58 62.47c-.44-.1-.89-.17-1.35-.21-.28-.02-.57-.04-.86-.04-.4 0-.8.02-1.19.07"/></g><g class="st5"><defs><path id="SVGID_73_" d="M103.39 51.13h41.98v41.98h-41.98z"/></defs><clipPath id="SVGID_74_"><use xlink:href="#SVGID_73_" style="overflow:visible"/></clipPath><path class="st45" d="M139.12 86.71c.63-.64 1.23-1.32 1.77-2.04a20.452 20.452 0 0 0 2.38-3.99 20.454 20.454 0 0 0 1.53-4.92 20.822 20.822 0 0 0 .18-6.04c-.07-.58-.16-1.16-.27-1.73-.12-.57-.25-1.13-.41-1.68-.18-.62-.39-1.23-.62-1.82a20.978 20.978 0 0 0-1.82-3.56 21.28 21.28 0 0 0-1.6-2.17c-.46-.54-.94-1.06-1.45-1.55a21.4 21.4 0 0 0-2.06-1.75c-.73-.54-1.49-1.03-2.28-1.48-1.69-.94-3.53-1.66-5.48-2.1a21.244 21.244 0 0 0-4.61-.52 20.594 20.594 0 0 0-4.91.59c-.86.21-1.69.47-2.51.78-.34.13-.68.27-1.01.42M117.72 91.77c.73.25 1.47.46 2.24.62a20.876 20.876 0 0 0 8.81 0c1.29-.28 2.54-.68 3.74-1.19M105.07 64.53a20.612 20.612 0 0 0-1.44 7.59c0 1.52.16 3.01.48 4.44.22 1.03.53 2.04.9 3.01.18.46.37.9.57 1.34.48 1.04 1.05 2.02 1.69 2.96.52.76 1.1 1.49 1.72 2.17 1.02 1.13 2.17 2.15 3.42 3.03.39.27.79.53 1.19.78"/></g><g class="st5"><defs><path id="SVGID_75_" d="M97.44 44.82h53.8v54.61h-53.8z"/></defs><clipPath id="SVGID_76_"><use xlink:href="#SVGID_75_" style="overflow:visible"/></clipPath><path class="st46" d="M150.98 66.53c-.24-1.15-.56-2.29-.95-3.41a25.79 25.79 0 0 0-1.4-3.29c-.38-.75-.79-1.48-1.24-2.19-.45-.71-.93-1.41-1.45-2.08-.27-.35-.55-.7-.84-1.03-.62-.73-1.29-1.43-1.99-2.1-1.14-1.08-2.4-2.08-3.76-2.98a28.5 28.5 0 0 0-2.71-1.58c-.69-.35-1.39-.66-2.09-.95-.71-.28-1.42-.54-2.14-.76a27.5 27.5 0 0 0-7.63-1.21 27.483 27.483 0 0 0-6.26.64c-1.15.26-2.29.59-3.41.99-1.11.4-2.2.88-3.26 1.43a27.399 27.399 0 0 0-6.25 4.47c-.89.86-1.73 1.78-2.52 2.77-.48.61-.94 1.24-1.38 1.9-.61.93-1.16 1.88-1.64 2.85-.48.97-.91 1.95-1.26 2.95-.39 1.09-.71 2.19-.95 3.31-.1.47-.19.94-.27 1.41M141.06 93.58c.8-.62 1.56-1.28 2.29-2 1.37-1.34 2.62-2.84 3.71-4.5a27.107 27.107 0 0 0 4.06-10.07M102.15 87.76c.6.85 1.25 1.68 1.96 2.46a27.324 27.324 0 0 0 10.51 7.26c1.29.5 2.61.89 3.94 1.18.62.14 1.25.25 1.88.34 1.48.22 2.97.31 4.46.28 1.21-.02 2.42-.13 3.61-.31a27.137 27.137 0 0 0 7.5-2.29"/></g><g class="st9"><defs><path id="SVGID_77_" d="M74.91 21.49h100.11v101.26H74.91z"/></defs><clipPath id="SVGID_78_"><use xlink:href="#SVGID_77_" style="overflow:visible"/></clipPath><path class="st47" d="M113.63 121.35c3.47.75 7.07 1.15 10.76 1.15a51.227 51.227 0 0 0 10.65-1.13c3.15-.68 6.18-1.65 9.08-2.88a50.332 50.332 0 0 0 16.07-10.93c1.54-1.55 2.98-3.21 4.3-4.95a50.13 50.13 0 0 0 7.53-14.06c.27-.78.52-1.56.75-2.35.5-1.71.9-3.45 1.22-5.23.51-2.88.77-5.83.77-8.86a50.779 50.779 0 0 0-1.99-14.1c-.44-1.5-.94-2.98-1.51-4.42-.65-1.65-1.39-3.26-2.21-4.82-.68-1.3-1.42-2.57-2.21-3.81-1.18-1.84-2.48-3.6-3.88-5.27M82.85 100.64a51.72 51.72 0 0 0 4.17 5.28 50.504 50.504 0 0 0 16 11.84M75.16 82.9c.55 2.51 1.28 4.95 2.19 7.3M77.48 53.68c-.71 1.8-1.32 3.65-1.82 5.55M128.73 21.92a52.001 52.001 0 0 0-10.43.18c-1.99.24-3.95.6-5.86 1.06a50.033 50.033 0 0 0-8.55 2.92M154.43 31.68a50.94 50.94 0 0 0-5.54-3.59"/></g><g class="st5"><defs><path id="SVGID_79_" d="M64.64 12.38h119.48v119.48H64.64z"/></defs><clipPath id="SVGID_80_"><use xlink:href="#SVGID_79_" style="overflow:visible"/></clipPath><path class="st48" d="M175.42 102.92c2.16-3.59 3.98-7.47 5.39-11.61.48-1.4.9-2.81 1.27-4.22.7-2.71 1.21-5.42 1.53-8.13a59.073 59.073 0 0 0-.06-14.17 59.79 59.79 0 0 0-5.83-19.27 58.372 58.372 0 0 0-3.91-6.71 58.742 58.742 0 0 0-4.8-6.21c-1.21-1.38-2.5-2.7-3.84-3.96a60.964 60.964 0 0 0-4.23-3.61c-.77-.6-1.55-1.17-2.35-1.73a57.98 57.98 0 0 0-5.39-3.36 59.822 59.822 0 0 0-9.62-4.24c-2.2-.75-4.41-1.36-6.63-1.84-1.65-.36-3.31-.64-4.96-.86a59.263 59.263 0 0 0-10.49-.42c-2.1.1-4.18.32-6.24.64-1.72.27-3.43.61-5.11 1.03-2.51.62-4.97 1.4-7.38 2.34M140.51 129.5a59.774 59.774 0 0 0 18.9-9.15c1.1-.8 2.18-1.64 3.23-2.52 1.65-1.38 3.23-2.85 4.73-4.4M117.71 131.36c3.02.34 6.03.45 9.01.33M85.87 117.62c1.75 1.48 3.59 2.86 5.52 4.15M69.82 48.13c-.68 1.56-1.31 3.16-1.86 4.8-.78 2.3-1.42 4.62-1.91 6.95-.49 2.32-.84 4.65-1.04 6.97-.23 2.53-.29 5.04-.19 7.54.04 1.05.11 2.1.21 3.15M90.53 23.06a60.609 60.609 0 0 0-6.13 4.84"/></g><g class="st28"><defs><path id="SVGID_81_" d="M165.45 16.27H183v18.78h-17.55z"/></defs><clipPath id="SVGID_82_"><use xlink:href="#SVGID_81_" style="overflow:visible"/></clipPath><path d="M182.74 34.8c-1.62-2.53-3.4-4.95-5.33-7.24a67.581 67.581 0 0 0-4.83-5.18c-2.16-2.1-4.47-4.06-6.89-5.86" style="clip-path:url(#SVGID_82_);fill:none;stroke:#6d7381;stroke-width:.5;stroke-linecap:round;stroke-linejoin:round;stroke-miterlimit:10"/></g><g class="st9"><defs><path id="SVGID_83_" d="M188.57 46.42h2.58V53h-2.58z"/></defs><clipPath id="SVGID_84_"><use xlink:href="#SVGID_83_" style="overflow:visible"/></clipPath><path d="M190.9 52.74c-.6-2.07-1.3-4.09-2.08-6.08" style="clip-path:url(#SVGID_84_);fill:none;stroke:#6d7381;stroke-width:.5;stroke-linecap:round;stroke-linejoin:round;stroke-miterlimit:10"/></g><path class="st4" d="M192.58 84.29c.7-3.95 1.07-8.02 1.07-12.17 0-2.7-.15-5.36-.45-7.98M187.48 100.72c.89-1.95 1.68-3.96 2.39-6"/><g class="st9"><defs><path id="SVGID_85_" d="M154.34 113.79h25.43v20.93h-25.43z"/></defs><clipPath id="SVGID_86_"><use xlink:href="#SVGID_85_" style="overflow:visible"/></clipPath><path d="M154.59 134.47a69.622 69.622 0 0 0 24.94-20.43" style="clip-path:url(#SVGID_86_);fill:none;stroke:#6d7381;stroke-width:.5;stroke-linecap:round;stroke-linejoin:round;stroke-miterlimit:10"/></g><path class="st7" d="M124.38 141.38c1.72 0 3.43-.06 5.12-.19 3.24-.24 6.42-.7 9.52-1.36"/><g class="st2"><defs><path id="SVGID_87_" d="M84.18 128.45h18.2v9.53h-18.2z"/></defs><clipPath id="SVGID_88_"><use xlink:href="#SVGID_87_" style="overflow:visible"/></clipPath><path d="M84.43 128.7c1.29.92 2.62 1.79 3.98 2.62 2.13 1.3 4.34 2.48 6.61 3.55 2.3 1.08 4.67 2.04 7.11 2.86" style="clip-path:url(#SVGID_88_);fill:none;stroke:#6d7381;stroke-width:.5;stroke-linecap:round;stroke-linejoin:round;stroke-miterlimit:10"/></g><path class="st4" d="M61.63 101.46a68.73 68.73 0 0 0 5.66 9.87M55.12 72.12c0 5.09.55 10.05 1.59 14.83"/><g class="st5"><defs><path id="SVGID_89_" d="M59.66 2.61h80.38v44.41H59.66z"/></defs><clipPath id="SVGID_90_"><use xlink:href="#SVGID_89_" style="overflow:visible"/></clipPath><path d="M139.79 4.58a69.629 69.629 0 0 0-15.41-1.73c-2.83 0-5.62.17-8.36.5a68.95 68.95 0 0 0-16.43 4.07c-1.14.44-2.27.91-3.39 1.4a69.258 69.258 0 0 0-19.65 13.19A69.44 69.44 0 0 0 59.9 46.75" style="clip-path:url(#SVGID_90_);fill:none;stroke:#6d7381;stroke-width:.5;stroke-linecap:round;stroke-linejoin:round;stroke-miterlimit:10"/></g><g class="st13"><defs><path id="SVGID_91_" d="M46.62-5.64h155.53v155.53H46.62z"/></defs><clipPath id="SVGID_92_"><use xlink:href="#SVGID_91_" style="overflow:visible"/></clipPath><path class="st54" d="M124.38-5.4a77.865 77.865 0 0 0-18.37 2.19 77.75 77.75 0 0 0-9.37 2.92C95.36.2 94.1.72 92.85 1.28M183.73 22.25c-1.7-2.02-3.51-3.96-5.4-5.8a80.47 80.47 0 0 0-4.67-4.18M196.5 43.63c-1-2.54-2.14-5.01-3.4-7.42M200.7 85.74c.33-1.84.59-3.71.78-5.59.27-2.64.41-5.32.41-8.03 0-3.02-.17-6-.51-8.93-.25-2.19-.59-4.34-1.02-6.47M179.47 126.65c2.37-2.39 4.58-4.94 6.62-7.62 2.06-2.71 3.95-5.55 5.64-8.52M66.9 124.12a77.75 77.75 0 0 0 12.77 11.32c1.45 1.02 2.93 2 4.45 2.93 2.39 1.45 4.86 2.78 7.4 3.97M49.43 52.28a77.683 77.683 0 0 0-2.56 19.84 77.438 77.438 0 0 0 7.27 32.84M70.85 16.05a78.048 78.048 0 0 0-10.78 12.78"/></g><path class="st4" d="M13.44 61.61c-.43 4.53-.58 9.02-.47 13.46.11 4.44.49 8.82 1.11 13.13.68 4.69 1.66 9.3 2.91 13.81.53 1.9 1.11 3.78 1.73 5.64M209.9.67c-3.1-3.71-6.45-7.23-10.01-10.51-3.59-3.32-7.41-6.4-11.43-9.23M230.55 106.08c2.38-7.48 4.01-15.32 4.78-23.45.26-2.76.42-5.51.48-8.23.11-5.23-.14-10.39-.74-15.46M191.02 161.45c6.56-4.9 12.58-10.51 17.94-16.74 1.66-1.93 3.26-3.93 4.79-5.98 2.4-3.22 4.64-6.57 6.69-10.05M36.88 141.13a112.77 112.77 0 0 0 16.82 17.16"/></g></svg>