<svg xmlns="http://www.w3.org/2000/svg"><defs><font id="UnivaNova-Regular" horiz-adv-x="1106" vert-adv-y="2048"><font-face font-family="Univa Nova" font-weight="400" units-per-em="2048" panose-1="0 0 5 0 0 0 0 0 0 0" ascent="1638" descent="-410" x-height="1087" cap-height="1482" bbox="-131 -480 2482 2141" underline-thickness="50" underline-position="-150" unicode-range="U+0020-F8FF"/><glyph glyph-name="f_f.liga" unicode="ff" horiz-adv-x="1541" vert-adv-y="2275" d="M465 962V0H328v962H110v125h218v166q0 144 79 227 40 41 105.5 61.5T643 1562q47 0 78-11l12-5-1-136-31 19q-15 10-53 10-17 0-26-1-87-8-122-52t-35-131v-168h560v166q0 144 80 227 40 41 105.5 61.5T1341 1562q48 0 77-11l13-5-2-136-31 19q-15 10-53 10-17 0-25-1-87-8-122-52t-35-131v-168h261V962h-261V0h-138v962H465z"/><glyph glyph-name="f_f_t.liga" unicode="fft" horiz-adv-x="2170" vert-adv-y="2275" d="M1909-2q-213 0-213 240v724h-533V0h-138v962H465V0H328v962H110v125h218v166q0 144 79 227 40 41 105.5 61.5T643 1562q47 0 78-11l12-5-1-136-31 19q-15 10-53 10-17 0-26-1-87-8-122-52t-35-131v-168h560v166q0 144 80 227 40 41 105.5 61.5T1341 1562q48 0 77-11l13-5-2-136-31 19q-15 10-53 10-17 0-25-1-87-8-122-52t-35-131v-168h533v444h138v-444h225V962h-225V255q0-71 20-101.5t83-30.5q34 0 102 2l21 1V3l-19-1q-15 0-61-2t-71-2z"/><glyph glyph-name="f_t.liga" unicode="ft" horiz-adv-x="1498" vert-adv-y="2275" d="M1237-2q-213 0-213 240v724H465V0H328v962H110v125h218v166q0 144 79 227 40 41 105.5 61.5T643 1562q47 0 78-11l12-5-1-136-31 19q-15 10-53 10-17 0-26-1-86-8-121.5-52T465 1255v-168h559v444h138v-444h225V962h-225V255q0-71 20-101.5t84-30.5q34 0 102 2l20 1V3l-19-1q-15 0-61-2t-71-2z"/><glyph glyph-name=".notdef" horiz-adv-x="932" vert-adv-y="2275" d="M832 1167V9H100v1158h732zm-101-70H201l265-438zm28-98L511 588l248-413v824zM422 588 174 996V177zM731 80 467 516 203 80h528z"/><glyph glyph-name=".null" horiz-adv-x="0" vert-adv-y="2275"/><glyph glyph-name="nonmarkingreturn" horiz-adv-x="682"/><glyph glyph-name="space" horiz-adv-x="541" vert-adv-y="2275"/><glyph glyph-name="exclam" unicode="!" horiz-adv-x="530" vert-adv-y="2275" d="M340 1482 324 257H204l-18 1225h154zM264-17q-45 0-74.5 29T160 84t28.5 73 75.5 30q46 0 75.5-30.5T369 84t-30-71.5T264-17z"/><glyph glyph-name="quotedbl" unicode="&quot;" horiz-adv-x="844" vert-adv-y="2275" d="M326 1482V862H187v620h139zm331 0V862H517v620h140z"/><glyph glyph-name="numbersign" unicode="#" horiz-adv-x="1317" vert-adv-y="2275" d="M464 447 369 0H233l94 447H98l25 127h233l68 327H192l27 128h234l96 453h136l-97-453h262l96 453h136l-97-453h235l-27-128H957l-68-327h237l-27-127H860L765 0H630l94 447H464zm357 454H561l-69-327h261z"/><glyph glyph-name="dollar" unicode="$" horiz-adv-x="1241" vert-adv-y="2275" d="M712-25v-226H586v223Q369-17 243 93.5T88 409l-3 22h142l2-17q42-295 357-312v601l-14 4q-88 24-157 55t-131 79-96 118.5-34 159.5q0 72 31 149t101 133.5 156 81.5q71 20 144 26v225h126v-225q198-16 308-131.5t132-307.5l3-21h-142l-2 17q-9 80-51 155-76 132-248 158V809l4-1q75-20 132.5-42t118-57 100-78 64.5-105.5 25-138.5q0-83-26-144-25-62-69-114-47-55-137-99-83-42-212-55zM586 843v537q-135-11-213-73.5T295 1123q0-117 77-179 70-58 214-101zm126-176V105q135 15 219 83.5t84 188.5q0 121-78 186-74 60-225 104z"/><glyph glyph-name="percent" unicode="%" horiz-adv-x="1962" vert-adv-y="2275" d="M489 541q-80 0-141 32.5t-96 81T195 770t-29.5 126-7.5 121q0 63 7.5 122t29.5 126 57 116 96 81.5 141 32.5q67 0 121-22t88.5-61 59.5-86 37.5-103.5 18-105.5 5.5-100q0-63-7-121.5T783 770t-57-115.5-96-81T489 541zm978 941L641 0H494l828 1482h145zM489 665q112 0 160 124 35 88 35 228t-34 230q-50 123-161 123-112 0-161-124-35-88-35-229 0-140 35-228 49-124 161-124zm984-677q-80 0-141 32.5t-96 81-57 115.5-29.5 125.5T1142 464t7.5 122 29.5 126 57 115.5 96 81 141 32.5 141-32.5 96-81.5 57-115.5 29.5-125.5 7.5-122q0-62-7.5-121T1767 217t-57-115.5-96-81T1473-12zm0 123q113 0 161 124 35 89 35 229 0 141-35 229-48 124-161 124-112 0-160-124-35-88-35-229 0-140 35-229 48-124 160-124z"/><glyph glyph-name="ampersand" unicode="&amp;" horiz-adv-x="1451" vert-adv-y="2275" d="M593-36q-70 0-148 16-152 31-240 137.5T117 370q0 260 308 411-185 179-185 355 0 159 111 265.5T632 1508q64 0 120-13 146-34 228-164 46-75 46-169 0-81-29-148t-83.5-116.5-114.5-85T661 746l413-380q87 145 79 344l-1 19 144 9v-19l1-31q0-232-121-416l271-249-196-7-158 148Q896-36 593-36zm-36 877q83 34 135 60 84 43 128 87 61 61 61 169 0 102-68.5 162T634 1379q-58 0-120-25-56-23-94-79-34-50-34-129 0-91 42.5-158.5T557 841zm33-748q113 0 219 43t182 121L526 688q-124-57-194-131.5T262 372q0-136 89-207.5T590 93z"/><glyph glyph-name="quotesingle" unicode="'" horiz-adv-x="513" vert-adv-y="2275" d="M326 1482V862H187v620h139z"/><glyph glyph-name="parenleft" unicode="(" horiz-adv-x="670" vert-adv-y="2275" d="m570-309 17-29H442l-6 10Q312-128 249.5 118.5T187 613t62.5 495T436 1554l6 9h145l-17-28q-242-407-242-922t242-922z"/><glyph glyph-name="parenright" unicode=")" horiz-adv-x="670" vert-adv-y="2275" d="m234-328-6-10H83l17 29Q342 98 342 613t-242 922l-17 28h145l6-9q124-199 186.5-446T483 613t-62.5-494.5T234-328z"/><glyph glyph-name="asterisk" unicode="*" horiz-adv-x="852" vert-adv-y="2275" d="m580 841-155 214-154-214-106 80 157 211-253 79 41 122 251-83-2 262h134l-2-264 252 83 41-122-255-79 158-213z"/><glyph glyph-name="plus" unicode="+" horiz-adv-x="1238" vert-adv-y="2275" d="M688 464V0H552v464H71v133h481v466h136V597h480V464H688z"/><glyph glyph-name="comma" unicode="," horiz-adv-x="474" vert-adv-y="2275" d="M351 185 196-200H69l116 385h166z"/><glyph glyph-name="hyphen" unicode="-" horiz-adv-x="846" vert-adv-y="2275" d="M755 595V468H91v127h664z"/><glyph glyph-name="period" unicode="." horiz-adv-x="459" vert-adv-y="2275" d="M229-17q-45 0-74.5 29T125 84t28.5 73 75.5 30q46 0 75.5-30.5T334 84q0-41-30-71t-75-30z"/><glyph glyph-name="slash" unicode="/" horiz-adv-x="852" vert-adv-y="2275" d="M806 1482 196 0H46l609 1482h151z"/><glyph glyph-name="zero" unicode="0" horiz-adv-x="1239" vert-adv-y="2275" d="M616-51Q469-51 351.5 50t-183 280.5T103 735q0 224 65.5 403.5t183 280.5T616 1520q148 0 265-101t182.5-280 65.5-404-65.5-404.5T880.5 50 616-51zm0 109q117 6 209.5 94t144 240.5T1021 735q0 288-114 477.5T616 1411q-177-9-291-198.5T211 735q0-190 51.5-342.5t144-240.5T616 58z"/><glyph glyph-name="one" unicode="1" horiz-adv-x="1241" vert-adv-y="2275" d="M1085 132V0H233v132h355v1211H233v139h497V132h355z"/><glyph glyph-name="two" unicode="2" horiz-adv-x="1239" vert-adv-y="2275" d="M1112 134V0H116v114l595 531q219 195 219 397 0 156-85 248.5T599 1383q-142 0-222.5-72.5T277 1102l-2-16H129l3 21q23 188 145 296.5T599 1512t332-108q75-62 110-158t35-198q0-264-278-506L334 134h778z"/><glyph glyph-name="three" unicode="3" horiz-adv-x="1239" vert-adv-y="2275" d="M620-30q-142 0-255 48.5T183 167t-69 237v19h145v-19q0-137 95-221 96-84 266-84 161 0 260.5 79.5T980 404q0 145-99 220.5T620 700H490v125h130q145 0 234 75.5t89 208.5-88.5 203.5T620 1383q-147 0-235-70.5T297 1109v-19H156v19q0 80 30 152 34 85 102.5 142.5t152 83T620 1512q77 0 163-21 138-35 219.5-140.5T1084 1109q0-106-49-195T894 770q108-53 169.5-151.5T1125 404q0-103-39.5-186.5T977 80.5t-160.5-82T620-30z"/><glyph glyph-name="four" unicode="4" horiz-adv-x="1238" vert-adv-y="2275" d="M951 374V0H811v374H62v119l754 989h135V506h208V374H951zM811 506v749L239 506h572z"/><glyph glyph-name="five" unicode="5" horiz-adv-x="1242" vert-adv-y="2275" d="M624-30q-269 0-413 193-71 97-88 239l-2 21h142l3-16q25-145 116-226.5T624 99q154 0 252 107 100 107 100 281 0 159-94.5 257T622 842q-90 0-165-39-77-39-114-87-37-46-52-81l-5-12H162l69 859h828v-134H368l-38-475q35 27 97 56 95 43 207 43 152 0 273.5-76.5T1082 685q40-101 40-198 0-134-59.5-251t-175-191.5T624-30z"/><glyph glyph-name="six" unicode="6" horiz-adv-x="1239" vert-adv-y="2275" d="M635-33q-71 0-128 15-85 23-141 57-60 37-117 104-115 138-115 361 0 141 42.5 280t119 262 171 229.5T676 1478l5 4 209 11-45-37q-176-142-324-324-103-125-165-255 62 46 142.5 69.5T660 970q145 0 259.5-71T1094 714t60-247q0-210-148-355T635-33zm2 129q167 0 268 102t101 261v27q-10 166-117 264-98 91-244 91-165 0-266-104T278 475v-26q10-168 117-264 99-89 242-89z"/><glyph glyph-name="seven" unicode="7" horiz-adv-x="1239" vert-adv-y="2275" d="m566 17-2-17H414l3 22q52 380 177.5 706T942 1348H96v134h1039v-113l-4-5q-255-318-386.5-633.5T566 17z"/><glyph glyph-name="eight" unicode="8" horiz-adv-x="1239" vert-adv-y="2275" d="M620-30q-142 0-255 48.5T183 167t-69 237q0 116 61.5 214.5T345 770q-91 55-140 144.5T156 1109q0 80 30 152 34 85 102.5 142.5t152 83T620 1512q77 0 163-21 138-35 219.5-140.5T1084 1109q0-106-49-195T894 770q108-53 169.5-151.5T1125 404q0-103-39.5-186.5T977 80.5t-160.5-82T620-30zm0 855q146 0 234.5 75t88.5 209q0 133-88.5 203.5T620 1383q-147 0-235-70.5T297 1109q0-135 88-209.5T620 825zm0-726q161 0 260.5 79.5T980 404q0 145-99 220.5T620 700q-163 0-262-75t-99-221q0-147 99.5-226T620 99z"/><glyph glyph-name="nine" unicode="9" horiz-adv-x="1239" vert-adv-y="2275" d="m565-15-5-4-209-10 45 36q169 135 324 324 103 126 165 256-61-46-142-70t-162-24q-145 0-259.5 71T147 749 87 996q0 137 66.5 251.5t186 182T607 1497q66 0 127-16 80-20 141-57 63-39 117-104 115-138 115-361 0-141-42.5-280t-119-261.5-171-229T565-15zm31 637q165 0 266 104t101 262v27q-10 167-117 263-98 89-242 89-166 0-267.5-102.5T235 1004v-27q10-165 117-264 100-91 244-91z"/><glyph glyph-name="colon" unicode=":" horiz-adv-x="459" vert-adv-y="2275" d="M229 876q-46 0-75 29.5T125 977q0 43 28.5 73t75.5 30q46 0 75.5-30.5T334 977q0-41-30-71t-75-30zm0-893q-45 0-74.5 29T125 84t28.5 73 75.5 30q46 0 75.5-30.5T334 84q0-41-30-71t-75-30z"/><glyph glyph-name="semicolon" unicode=";" horiz-adv-x="474" vert-adv-y="2275" d="M235 876q-46 0-75 29.5T131 977q0 43 28.5 73t75.5 30q46 0 75.5-30.5T340 977q0-41-30-71t-75-30zm116-691L196-200H69l116 385h166z"/><glyph glyph-name="less" unicode="&lt;" horiz-adv-x="1239" vert-adv-y="2275" d="m307 532 820-329V57L112 474v114l1015 418V861z"/><glyph glyph-name="equal" unicode="=" horiz-adv-x="1238" vert-adv-y="2275" d="M1168 801V667H71v134h1097zm0-407V260H71v134h1097z"/><glyph glyph-name="greater" unicode="&gt;" horiz-adv-x="1239" vert-adv-y="2275" d="M1127 588V474L112 57v146l820 329-820 329v145z"/><glyph glyph-name="question" unicode="?" horiz-adv-x="1111" vert-adv-y="2275" d="M595 414V244H457v170q0 105 65 195 21 31 65 77l73 69q47 44 73.5 71.5t58 71 46 91T852 1091q0 135-81 213.5T548 1383q-146 0-229-89.5T236 1064q0-14 2.5-41.5T241 984l2-20H97l-1 18q-5 72-5 86 0 190 127.5 317T548 1512q200 0 324.5-114T997 1097q0-115-49-205T804 713q-12-11-39-35.5T717.5 634 680 597q-60-62-77-122-8-27-8-61zM530-17q-47 0-76 29t-29 72q0 44 28 73.5t77 29.5q46 0 75-30.5T634 84q0-41-30-71t-74-30z"/><glyph glyph-name="at" unicode="@" horiz-adv-x="1745" vert-adv-y="2275" d="M883-248q-180 0-326.5 58t-243 161.5-148 244T114 521q0 163 57 308t158.5 252.5 252 170T910 1314q207 0 370.5-80t257-230.5T1631 657q0-199-102-351-62-88-142-128-86-44-161-44-63 0-108 30t-68 82q-95-112-248-112-140 0-225 94-84 92-84 251 0 84 23 168 36 122 129.5 203T870 931q72 0 133-28t99-80l8 37h138l-87-429q-5-26-5-63 0-48 21-77t63-29q60 0 120 37 69 43 103 144.5t34 203.5q0 251-159 396.5T910 1189q-150 0-274.5-52T427 994.5 297 782t-46-261q0-190 70.5-334.5T536-42t347-84q166 0 293 60 130 62 197 144l6 7h153l-21-30q-104-144-271.5-223.5T883-248zm-62 503q47 0 100 34 59 38 92.5 125.5T1047 585q0 98-40 160.5T876 808q-64 0-112.5-29t-76-77.5-41-104T633 481q0-127 51-177 52-49 137-49z"/><glyph glyph-name="A" unicode="A" horiz-adv-x="1629" vert-adv-y="2275" d="M436 408 264 0H110l636 1482h138L1519 0h-157l-172 408H436zm696 134-319 756-320-756h639z"/><glyph glyph-name="B" unicode="B" horiz-adv-x="1338" vert-adv-y="2275" d="M702 0H110v1482h584q249 0 373-107t124-292q0-84-35-162t-102-126q-27-20-65-40 111-43 175-135.5t64-209.5q0-89-28-159.5t-76.5-117-116-77-143-43.5T702 0zM250 1348V819h452q81 0 141.5 13T952 874t73 81.5 25 127.5q0 265-348 265H250zm465-663H250V134h463q81 0 146.5 14.5t118 45.5 81.5 85.5 29 130.5q0 74-29 128.5t-81 86-117.5 46T715 685z"/><glyph glyph-name="C" unicode="C" horiz-adv-x="1667" vert-adv-y="2275" d="M848-30Q722-30 597 9 468 48 359 144q-108 95-162 212-87 185-87 385 0 116 34 246 35 130 117.5 245T460 1411q184 101 388 101 269 0 458-148t246-395l5-23h-146l-3 14q-46 193-198 308t-362 115q-132 0-238-46-119-51-201-146.5T291 982t-36-241q0-127 36-240.5T409 291t201-146q110-46 238-46 210 0 362 115t198 307l3 15h146l-5-23q-57-247-246-395T848-30z"/><glyph glyph-name="D" unicode="D" horiz-adv-x="1501" vert-adv-y="2275" d="M566 0H110v1482h456q245 0 430-85.5t290-254T1391 741t-105-401.5-290-254T566 0zm-8 1348H250V134h308q325 0 506.5 153.5T1246 741t-182 453.5T558 1348z"/><glyph glyph-name="E" unicode="E" horiz-adv-x="1215" vert-adv-y="2275" d="M1105 134V0H110v1482h995v-134H250V819h720V685H250V134h855z"/><glyph glyph-name="F" unicode="F" horiz-adv-x="1215" vert-adv-y="2275" d="M250 685V0H110v1482h995v-134H250V819h720V685H250z"/><glyph glyph-name="G" unicode="G" horiz-adv-x="1662" vert-adv-y="2275" d="M848-30Q722-30 597 9 468 48 359 144q-108 95-162 212-87 185-87 385 0 116 34 246 35 130 117.5 245T460 1411q184 101 388 101 264 0 451-137.5T1546 997l6-23h-146l-4 14q-51 186-199 290.5T848 1383q-132 0-238-46-119-51-201-146.5T291 982t-36-241 36-241 118-208.5T610 145q110-46 238-46 114 0 220 41 165 65 254 207t94 318H829v134h720V0h-133v264q-90-142-238-218T848-30z"/><glyph glyph-name="H" unicode="H" horiz-adv-x="1394" vert-adv-y="2275" d="M250 685V0H110v1482h140V819h894v663h140V0h-140v685H250z"/><glyph glyph-name="I" unicode="I" horiz-adv-x="690" vert-adv-y="2275" d="M580 127V0H110v127h164v1228H110v127h470v-127H416V127h164z"/><glyph glyph-name="J" unicode="J" horiz-adv-x="1396" vert-adv-y="2275" d="M698-30q-204 0-344.5 94T151 339q-37 109-41 260v20l142-2v-18q0-104 27-193t80-158.5 140-109T698 99t199 39.5 140 109 80 158.5 27 193v883h142V617q0-108-20.5-202T1200 238.5 1087.5 97t-167-93T698-30z"/><glyph glyph-name="K" unicode="K" horiz-adv-x="1411" vert-adv-y="2275" d="M250 540V0H110v1482h140V733l845 749h206L587 842 1269 0h-180L485 750z"/><glyph glyph-name="L" unicode="L" horiz-adv-x="1215" vert-adv-y="2275" d="M1105 134V0H110v1482h140V134h855z"/><glyph glyph-name="M" unicode="M" horiz-adv-x="1564" vert-adv-y="2275" d="M250 1228V0H110v1482h119l552-699 553 699h120V0h-142v1228L795 578h-28z"/><glyph glyph-name="N" unicode="N" horiz-adv-x="1394" vert-adv-y="2275" d="M250 1246V0H110v1482h142l892-1248v1248h140V0h-141z"/><glyph glyph-name="O" unicode="O" horiz-adv-x="1741" vert-adv-y="2275" d="M870-30q-137 0-258 40T400 122 243 290t-99.5 211.5T110 741q0 156 53.5 296t150 245.5 241 167.5 315.5 62 316-62 241.5-167.5 150-245.5 53.5-296-53.5-296-150-245.5T1186 32 870-30zm0 129q130 0 244 46 122 50 207 144.5t124.5 209T1485 741q0 198-95 359.5T1114 1337q-114 46-244 46-128 0-242-46-182-75-277.5-236.5T255 741q0-129 40-243.5T420.5 289 628 145q113-46 242-46z"/><glyph glyph-name="P" unicode="P" horiz-adv-x="1301" vert-adv-y="2275" d="M250 685V0H110v1482h584q249 0 373-107 124-106 124-292 0-184-124-291T694 685H250zm0 663V819h452q348 0 348 265 0 264-348 264H250z"/><glyph glyph-name="Q" unicode="Q" horiz-adv-x="1741" vert-adv-y="2275" d="m1324 110 251-204-98-97-279 228q-153-67-328-67-171 0-315.5 62t-241 167.5-150 245.5T110 741t54 296.5T314.5 1283 555 1450t315 62 316-62 241.5-167.5 150-245.5 53.5-296q0-187-78-355t-229-276zM870 99q130 0 244 46 122 50 207 144.5t124.5 209T1485 741q0 198-95 359.5T1114 1337q-114 46-244 46-128 0-242-46-182-75-277.5-236.5T255 741q0-129 40-243.5T420.5 289 628 145q113-46 242-46z"/><glyph glyph-name="R" unicode="R" horiz-adv-x="1307" vert-adv-y="2275" d="M250 685V0H110v1482h584q249 0 373-107 124-106 124-292 0-175-105-273.5T799 691L1197 0h-170L644 685H250zm0 663V819h452q348 0 348 265 0 264-348 264H250z"/><glyph glyph-name="S" unicode="S" horiz-adv-x="1339" vert-adv-y="2275" d="M670-28Q449-28 304 77q-83 61-132 148.5T112 414l-2 20h150l2-16q16-129 119-219 105-93 289-93 142 0 240 47 166 83 166 235 0 98-69 166-41 41-173 80-67 19-202 46-114 22-185 41-101 27-167 64-168 96-168 303 0 102 51 184t133 131.5 178.5 76T670 1506t196-26 169-79q169-123 192-337l2-21h-150l-2 17q-17 130-118 219-108 93-289 93-143 0-240-47-167-83-167-235 0-98 69-166 41-41 173-80 71-20 203-46 114-22 185-41 101-27 166-64 168-96 168-303 0-102-51-184T1043 74.5t-178.5-76T670-28z"/><glyph glyph-name="T" unicode="T" horiz-adv-x="1340" vert-adv-y="2275" d="M740 1348V0H599v1348H110v134h1120v-134H740z"/><glyph glyph-name="U" unicode="U" horiz-adv-x="1395" vert-adv-y="2275" d="M697-30Q574-30 474.5 4T308 97 195.5 238.5t-65.5 177T110 617v865h141V599q0-104 27-193t80-158.5 140-109T697 99t199 39.5 140.5 109T1117 406t27 193v883h141V617q0-108-20.5-202T1199 238.5 1086.5 97t-167-93T697-30z"/><glyph glyph-name="V" unicode="V" horiz-adv-x="1586" vert-adv-y="2275" d="M1476 1482 863 0H724L110 1482h156L796 188l528 1294h152z"/><glyph glyph-name="W" unicode="W" horiz-adv-x="2305" vert-adv-y="2275" d="M2195 1482 1706-2h-145l-408 1282L742 0H596L110 1482h155L670 202l410 1280h149l408-1282 407 1282h151z"/><glyph glyph-name="X" unicode="X" horiz-adv-x="1596" vert-adv-y="2275" d="M799 644 293 0H111l600 751-601 731h183l506-624 508 624h179L886 751 1485 0h-178z"/><glyph glyph-name="Y" unicode="Y" horiz-adv-x="1596" vert-adv-y="2275" d="M866 727V0H726v733l-616 749h183l506-624 508 624h179z"/><glyph glyph-name="Z" unicode="Z" horiz-adv-x="1384" vert-adv-y="2275" d="M1274 134V0H110v108l966 1240H119v134h1146v-109L300 134h974z"/><glyph glyph-name="bracketleft" unicode="[" horiz-adv-x="636" vert-adv-y="2275" d="M591-210v-128H160v1901h431v-127H297V-210h294z"/><glyph glyph-name="backslash" unicode="\" horiz-adv-x="852" vert-adv-y="2275" d="M196 1482 806 0H655L46 1482h150z"/><glyph glyph-name="bracketright" unicode="]" horiz-adv-x="636" vert-adv-y="2275" d="M476 1563V-338H46v128h294v1646H46v127h430z"/><glyph glyph-name="asciicircum" unicode="^" horiz-adv-x="1259" vert-adv-y="2275" d="M630 1288 299 480H150l421 1002h117l422-1002H961z"/><glyph glyph-name="underscore" unicode="_" horiz-adv-x="1069" vert-adv-y="2275" d="M1069-166v-127H0v127h1069z"/><glyph glyph-name="grave" unicode="`" horiz-adv-x="776" vert-adv-y="2275" d="m391 1659 154-384H411l-176 384h156z"/><glyph glyph-name="a" unicode="a" horiz-adv-x="1141" vert-adv-y="2275" d="M515-24q-285 0-373 180-32 65-32 146 0 118 64.5 199T360 611q43 10 104 15 11 1 48.5 3.5T567 634l327 21v31q0 278-307 278-306 0-306-278v-19l-137-3v20q0 195 117 299t326 104 326.5-104T1031 684V0H894v118Q763-24 515-24zm0 123q119 0 202 41 86 42 131.5 114.5T894 419v115l-219-15q-116-7-160-11-118-13-150-28-116-50-116-178 0-105 72-154t194-49z"/><glyph glyph-name="b" unicode="b" horiz-adv-x="1274" vert-adv-y="2275" d="M636-24q-114 0-216 45T247 148V0H110v1482h137V915q71 82 173 127t216 45q119 0 220-47t167.5-125T1127 737.5t37-205.5-37-206-103.5-178T856 23 636-24zm0 125q103 0 196 55 94 53 143 156.5t49 219.5q0 115-49.5 218.5T832 908q-95 54-196 54-102 0-196-54T296.5 750 247 532q0-115 49.5-218.5T440 156q93-55 196-55z"/><glyph glyph-name="c" unicode="c" horiz-adv-x="1264" vert-adv-y="2275" d="M638-23q-119 0-220 47T250.5 149 147 326.5 110 532t37 205.5T250.5 915 418 1040t220 47q195 0 329.5-115.5T1148 674l6-23h-142l-4 14q-46 169-174 243-95 54-196 54-102 0-196-54T298.5 750 249 532t49.5-218T442 156q91-54 196-54 103 0 196 54 128 74 174 243l4 14h142l-6-24q-46-181-181-296.5T638-23z"/><glyph glyph-name="d" unicode="d" horiz-adv-x="1274" vert-adv-y="2275" d="M638-24q-119 0-220 47T250.5 148 147 326t-37 206 37 205.5T250.5 915 418 1040t220 47q115 0 216-45t172-127v567h138V0h-138v148Q955 66 854 21T638-24zm0 125q103 0 196 55 94 53 143 156.5t49 219.5q0 115-49.5 218.5T834 908q-95 54-196 54-102 0-196-54T298.5 750 249 532q0-115 49.5-218.5T442 156q93-55 196-55z"/><glyph glyph-name="e" unicode="e" horiz-adv-x="1305" vert-adv-y="2275" d="M653-24q-121 0-224.5 46T256 145 148.5 322.5 110 532t38.5 209.5 107.5 177T428.5 1041t224.5 46 224-46 172-122.5 107.5-177T1195 532q0-20-1-29l-2-17H252q8-106 57.5-192.5T449 154t204-53q133 0 232 71t142 192l7 17 130-38-6-19q-57-157-193-252.5T653-24zM255 612h794q-22 152-129 251t-267 99q-87 0-165-33-97-43-156-126.5T255 612z"/><glyph glyph-name="f" unicode="f" horiz-adv-x="843" vert-adv-y="2275" d="M465 962V0H328v962H110v125h218v166q0 144 79 227 40 41 105.5 61.5T643 1562q47 0 78-11l12-5-1-136-31 19q-15 10-53 10-17 0-26-1-87-8-122-52t-35-131v-168h261V962H465z"/><glyph glyph-name="g" unicode="g" horiz-adv-x="1274" vert-adv-y="2275" d="M663-445q-130 0-228 41-101 43-155 100t-78 110q-24 52-30 74l-7 24h147l4-14q14-45 59-97 47-54 127.5-83.5T667-320q167 0 263.5 100T1027 40v111Q876-24 638-24q-119 0-220 47T250.5 148 147 326t-37 206 37 205.5T250.5 915 418 1040t220 47q238 0 389-175v151h137V74q0-110-31.5-204T1040-294.5 882-405t-219-40zm-25 546q103 0 196 55 94 53 143 156.5t49 219.5q0 115-49.5 218.5T834 908q-95 54-196 54-102 0-196-54T298.5 750 249 532q0-115 49.5-218.5T442 156q93-55 196-55z"/><glyph glyph-name="h" unicode="h" vert-adv-y="2275" d="M247 687V0H110v1482h137v-479q55 45 140 64.5t166 19.5q224 0 333-115 110-113 110-292V0H859v651q0 155-73 234t-233 79q-162 0-234-80-33-37-52.5-91.5T247 687z"/><glyph glyph-name="i" unicode="i" horiz-adv-x="421" vert-adv-y="2275" d="M210 1287q-43 0-71.5 28.5T110 1384q0 41 27.5 69.5T210 1482q44 0 72.5-29t28.5-69-29-68.5-72-28.5zm68-200V0H141v1087h137z"/><glyph glyph-name="j" unicode="j" horiz-adv-x="556" vert-adv-y="2275" d="M346 1287q-44 0-72 28.5t-28 68.5q0 41 27.5 69.5T346 1482q44 0 72-29t28-69-28.5-68.5T346 1287zM201-446q-2 0-71 3h-20v126l21-1q48-3 49-3 58 0 77 32t19 100v1276h138V-205q0-241-213-241z"/><glyph glyph-name="k" unicode="k" horiz-adv-x="1216" vert-adv-y="2275" d="M250 322V-1H110v1483h140V514l648 574h208L587 624 1093-1H914L485 532z"/><glyph glyph-name="l" unicode="l" horiz-adv-x="524" vert-adv-y="2275" d="M323-2Q110-2 110 238v1244h137V255q0-68 19.5-100t77.5-32q16 0 48 2l22 1V1l-20-1q-48-2-71-2z"/><glyph glyph-name="m" unicode="m" horiz-adv-x="1722" vert-adv-y="2275" d="M248 651V0H110v1087h137v-90q105 86 276 86 84 0 164.5-28T821 972q21-21 41-51 108 162 342 162 191 0 299.5-112T1612 680V0h-137v651q0 153-72 233-71 78-199 78h-4q-140-4-205-87t-65-224V0H794v651q0 152-73 233-71 78-199 78h-4q-139-4-204.5-87T248 651z"/><glyph glyph-name="n" unicode="n" vert-adv-y="2275" d="M247 687V0H110v1087h137v-84q55 45 140 64.5t166 19.5q224 0 333-115 110-113 110-292V0H859v651q0 155-73 234t-233 79q-162 0-234-80-33-37-52.5-91.5T247 687z"/><glyph glyph-name="o" unicode="o" horiz-adv-x="1276" vert-adv-y="2275" d="M638-24q-119 0-220 47T250.5 148 147 326t-37 206 37 205.5T250.5 915 418 1040t220 47 220-47 167.5-125T1129 737.5t37-205.5-37-206-103.5-178T858 23 638-24zm0 125q103 0 196 55 94 53 143 156.5t49 219.5q0 115-49.5 218.5T834 908q-95 54-196 54-102 0-196-54T298.5 750 249 532q0-115 49.5-218.5T442 156q93-55 196-55z"/><glyph glyph-name="p" unicode="p" horiz-adv-x="1274" vert-adv-y="2275" d="M247 149v-592H110v1530h137V916q71 82 173 127t216 45q119 0 220-47t167.5-125T1127 738t37-206-37-205.5T1023.5 149 856 24 636-23q-114 0-216 45T247 149zm389-47q103 0 196 54 93 53 142.5 157t49.5 219q0 116-49 219.5T832 908q-96 55-196 55t-196-55q-94-54-143.5-157.5T247 532q0-114 49.5-218.5T440 156q91-54 196-54z"/><glyph glyph-name="q" unicode="q" horiz-adv-x="1274" vert-adv-y="2275" d="M1164 1087V-443h-138v592Q955 67 854 22T638-23q-119 0-220 47T250.5 149 147 326.5 110 532t37 206 103.5 178T418 1041t220 47q115 0 216-45t172-127v171h138zM638 102q103 0 196 54 93 53 142.5 157t49.5 219q0 116-49 219.5T834 908q-96 55-196 55t-196-55q-94-54-143.5-157.5T249 532q0-114 49.5-218.5T442 156q91-54 196-54z"/><glyph glyph-name="r" unicode="r" horiz-adv-x="683" vert-adv-y="2275" d="M247 687V0H110v1087h137v-84q55 45 140 64.5t166 19.5h20V964h-20q-162-2-234-80-33-36-52.5-91.5T247 687z"/><glyph glyph-name="s" unicode="s" horiz-adv-x="1018" vert-adv-y="2275" d="M511-14q-250 0-355 185-39 70-45 150l-1 20h137l2-17q10-99 81.5-155T511 113q75 0 143 25.5t94 76.5q21 40 21 77 0 93-91 135-39 19-101 32-16 4-120 24-42 8-71 14.5t-68 19-66 27-55.5 37-46 50T122 696t-11 84q0 125 111 216 108 91 286 91 248 0 354-184 39-67 45-150l1-21H771l-1 17q-11 100-82.5 155.5T508 960q-76 0-143-25.5T271 858q-22-42-22-76 0-92 91-136 37-17 102-32 22-5 64.5-13t55.5-10q42-8 71-15t68-19.5 65.5-26.5 55.5-36.5 46-50 28-65.5 11-84q0-124-111-217-109-91-285-91z"/><glyph glyph-name="t" unicode="t" horiz-adv-x="803" vert-adv-y="2275" d="M542-2Q329-2 329 238v724H110v125h219v444h137v-444h226V962H466V255q0-71 20-101.5t84-30.5q34 0 102 2l21 1V3l-20-1q-15 0-61-2t-70-2z"/><glyph glyph-name="u" unicode="u" vert-adv-y="2275" d="M553 0Q329 0 219 115 110 230 110 408v679h137V436q0-154 73.5-233.5T553 123q160 0 234 81 32 36 51.5 91T858 401v686h138V0H858v85q-54-45-139.5-65T553 0z"/><glyph glyph-name="v" unicode="v" horiz-adv-x="1292" vert-adv-y="2275" d="M1182 1089 716 0H578L110 1089h152l383-906 383 906h154z"/><glyph glyph-name="w" unicode="w" horiz-adv-x="1863" vert-adv-y="2275" d="M933 863 627-5H498L110 1094h143l308-885 297 855-31 30h188l-11-27 299-857 307 884h143L1365-5h-127z"/><glyph glyph-name="x" unicode="x" horiz-adv-x="1299" vert-adv-y="2275" d="M651 432 311 0H130l432 540-452 549h181l360-443 360 443h178L738 540 1168 0H992z"/><glyph glyph-name="y" unicode="y" horiz-adv-x="1292" vert-adv-y="2275" d="M1182 1089 526-445H378L574 19 110 1089h152l383-906 383 906h154z"/><glyph glyph-name="z" unicode="z" horiz-adv-x="1100" vert-adv-y="2275" d="M990 125V0H112v103l676 859H110v125h877v-98L310 125h680z"/><glyph glyph-name="braceleft" unicode="{" horiz-adv-x="658" vert-adv-y="2275" d="M488-338q-122 0-184.5 74.5T241-75v534q0 46-19.5 68T157 549H83v127h74q45 0 64.5 23t19.5 69v532q0 116 62 189.5t185 73.5q70 0 110-10l15-4v-129l-25 6q-44 10-94 10-61 0-88-31t-27-93V784q0-120-62-171 62-53 62-171V-87q0-62 27-92.5t88-30.5q51 0 94 10l25 5v-127l-15-4q-43-12-110-12z"/><glyph glyph-name="bar" unicode="|" horiz-adv-x="594" vert-adv-y="2275" d="M366 1563V0H229v1563h137z"/><glyph glyph-name="braceright" unicode="}" horiz-adv-x="658" vert-adv-y="2275" d="M171-338q-67 0-110 12l-15 4v127l25-5q43-10 93-10 61 0 88.5 30.5T280-87v529q0 119 61 171-61 50-61 171v528q0 62-27.5 93t-88.5 31q-50 0-93-10l-25-6v129l15 4q40 10 110 10 123 0 184.5-74t61.5-189V768q0-92 85-92h73V549h-73q-45 0-65-22.5T417 459V-75q0-114-62-188.5T171-338z"/><glyph glyph-name="asciitilde" unicode="~" horiz-adv-x="1251" vert-adv-y="2275" d="m237 422-12-18-109 84 8 14q22 36 70 76 86 70 220 70 77 0 223-48 84-27 104-31 53-14 99-14 51 0 98.5 23.5T1013 641l13 18 109-84-9-14q-23-38-70-76-88-70-218-70-78 0-224 48-84 27-104 31-51 14-98 14-51 0-99.5-23.5T237 422z"/><glyph glyph-name="exclamdown" unicode="¡" horiz-adv-x="530" vert-adv-y="2275" d="M264 884q-47 0-75.5 30T160 987q0 42 29.5 71t74.5 29 75-29.5 30-70.5q0-42-29.5-72.5T264 884zm60-71 16-1224H186l18 1224h120z"/><glyph glyph-name="cent" unicode="¢" horiz-adv-x="1244" vert-adv-y="2275" d="M696 189V-36H568v225q-72 8-148 40-182 75-270 281-46 108-46 231 0 133 53.5 251t161 201T568 1293v225h128v-225q170-17 284.5-125T1133 897l5-23H998l-4 14q-31 114-107 187.5T696 1167V314q52 9 104 31 72 30 122.5 98.5T994 593l4 15h140l-5-23q-38-163-152.5-271T696 189zM568 315v852q-84-15-156-64-84-58-126.5-155.5T243 741q0-108 43-207.5T412 378q73-50 156-63z"/><glyph glyph-name="sterling" unicode="£" horiz-adv-x="1250" vert-adv-y="2275" d="m162-14-16-17-80 96 12 12q39 39 98 70 6 3 22 9.5t23 10.5q7 5 20 16l6.5 6.5 7.5 7.5 6 6q101 100 101 261 0 66-23 130H83v133h194q-49 93-70 150-36 95-36 195 0 203 128.5 321.5T644 1512q226 0 351.5-132.5T1121 1034q0-1-3-40l-1-18H977l1 20q0 6 1 17t1 17q0 98-37 185-37 84-116 126t-183 42q-161 0-246-84.5T313 1061q0-120 69-250 4-8 19.5-38t24.5-46h436V594H483q17-65 17-130 0-159-82-267 40-4 80-15 41-10 111-35 142-48 220-48 85 0 149 42 66 44 92 94l11 20 103-72-8-14q-22-38-73-88-58-54-137-82.5T804-30q-95 0-219 45-71 27-114 39-65 17-115 17-48 0-103.5-25T162-14z"/><glyph glyph-name="currency" unicode="¤" horiz-adv-x="1293" vert-adv-y="2275" d="m435 195-18 12L264 56l-96 97 152 150q-35 48-54.5 109.5T246 532q0 57 19.5 119T320 760L168 912l96 95 153-153q104 75 231 75 58 0 121-20.5T879 854l152 151 97-95-152-151q75-110 75-227 0-125-74-230l149-149-95-94-153 148q-109-73-230-73-96 0-179 44-17 8-34 17zm213 67q115 0 193.5 80T920 532q0 108-79.5 189T648 802q-107 0-190-81-82-79-82-189 0-109 79-189.5T648 262z"/><glyph glyph-name="yen" unicode="¥" horiz-adv-x="1268" vert-adv-y="2275" d="M703 327V0H563v327H260v128h303v151H260v128h286L89 1482h156l389-642 380 642h165L718 734h290V606H703V455h305V327H703z"/><glyph glyph-name="brokenbar" unicode="¦" horiz-adv-x="594" vert-adv-y="2275" d="M366 1561V911H229v650h137zm0-911V0H229v650h137z"/><glyph glyph-name="section" unicode="§" horiz-adv-x="1204" vert-adv-y="2275" d="M596-385q-183 0-286 98-102 96-120 255l-2 21h136l2-17q13-100 79-165 67-64 191-64 123 0 187 55 63 54 63 134 0 155-234 251l-85 34q-209 85-299 175-97 94-97 233 0 101 56 183t151 129q-117 102-117 252 0 144 109 234 107 89 279 89 182 0 285-96 103-98 120-257l3-21H881l-2 17q-14 100-79 166-65 64-191 64-131 0-190-55-60-56-60-133 0-87 63.5-146.5T593 946l84-35q215-90 300-174 97-96 97-234 0-52-21-113-21-63-71.5-115T865 190Q984 92 984-60q0-103-55-178T787.5-349 596-385zm-7 718 153-66q39 12 84 38 51 30 82.5 84T940 501q0 75-55 138-53 62-269 156l-155 66q-88-26-142.5-88.5T264 627q0-72 56-138 59-68 269-156z"/><glyph glyph-name="dieresis" unicode="¨" horiz-adv-x="813" vert-adv-y="2275" d="M266 1300q-44 0-72 28t-28 68q0 41 28 70t72 29 72.5-29.5T367 1396t-28.5-68-72.5-28zm280 0q-44 0-72 27.5t-28 68.5 28 70 72 29 72.5-29.5T647 1396t-28.5-68-72.5-28z"/><glyph glyph-name="copyright" unicode="©" horiz-adv-x="1695" vert-adv-y="2275" d="M847-26q-172 0-319 61T281.5 200t-156 244.5T69 743t56.5 299T282 1287t246.5 164.5T847 1512q228 0 407.5-104t275.5-278.5 96-386.5q0-158-56.5-299T1413 199 1166 34.5 847-26zm0 121q195 0 343 86.5T1414.5 414t76.5 329q0 136-45 254.5t-127 206-204 137.5-268 50-268-50-203.5-137.5-126.5-206T204 743q0-182 76.5-328.5t224-233T847 95zm-2 230q-123 0-224 69T478 572q-33 85-33 171 0 64 18 133 22 75 73 138t123 102q82 45 186 45 113 0 211-52t144-146q31-65 37-116l3-21h-136l-3 16q-21 115-126 169-53 27-128 27-126 0-193.5-84T586 743q0-22 9-83 8-56 41-103.5t84-77.5q50-30 127-30t128 26 83.5 70.5T1101 645l3 16h136l-3-22q-5-51-34-108-49-101-143.5-153.5T845 325z"/><glyph glyph-name="ordfeminine" unicode="ª" horiz-adv-x="598" vert-adv-y="2275" d="M272 857q-94 0-156 44t-62 134q0 55 27 96.5t78 61.5l-89-2v29q0 103 63.5 159t173.5 56q109 0 173-56t64-159V869H436v33q-65-45-164-45zm-93 355v-12l12 3q30 7 53 8 18 2 52 4l140 9q-1 59-32.5 86t-96.5 27q-70 0-99-29t-29-96zm93-257q72 0 118 36.5t46 100.5v35q-12-1-33-2t-38.5-2-33.5-2q-42-3-66-6-48-7-57-11-45-20-45-69 0-80 109-80z"/><glyph glyph-name="guillemotleft" unicode="«" horiz-adv-x="1026" vert-adv-y="1800" d="M302 532 538 85H382L145 532l237 446h156zm343 0L881 85H725L490 532l235 446h156z"/><glyph glyph-name="logicalnot" unicode="¬" horiz-adv-x="1238" vert-adv-y="2275" d="M1168 597V91h-137v373H71v133h1097z"/><glyph glyph-name="registered" unicode="®" horiz-adv-x="1263" vert-adv-y="2275" d="M631 400q-164 0-293.5 76t-199 202.5T69 957t69.5 278 199 201.5T631 1512t294-75.5 200-202 70-277.5-70-278-200-203-294-76zm0 118q203 0 318.5 122T1065 957q0 194-115.5 316T631 1395q-202 0-317.5-122.5T198 957q0-194 115.5-316.5T631 518zm-82 327V673H422v565h217q104 0 171.5-49t67.5-147q0-112-90-163l111-206H752l-87 174q-25-2-116-2zm105 274H549V965h105q44 0 69.5 19.5T749 1042t-25.5 57.5T654 1119z"/><glyph glyph-name="macron" unicode="¯" horiz-adv-x="846" vert-adv-y="2275" d="M755 1439v-127H91v127h664z"/><glyph glyph-name="degree" unicode="°" horiz-adv-x="831" vert-adv-y="2275" d="M414 817q-152 0-253 103.5T60 1166q0 143 100.5 244.5T414 1512q152 0 251-101.5t99-244.5-99-246-251-103zm0 124q95 0 153.5 65.5T626 1166t-58 158.5-154 64.5q-98 0-156.5-63.5T199 1166q0-64 31-121.5t86-81.5q52-22 98-22z"/><glyph glyph-name="plusminus" unicode="±" horiz-adv-x="1238" vert-adv-y="2275" d="M688 566V204H552v362H71v133h481v364h136V699h480V566H688zm480-432V0H71v134h1097z"/><glyph glyph-name="uni00B2" unicode="²" horiz-adv-x="488" vert-adv-y="1800" d="M445 977V869H40v83l212 188q64 55 64 110 0 84-79 84-77 0-77-84 0-22 2-32l2-22H44l1 20q0 5-.5 14.5T44 1245q0 85 51 140t142 55 143.5-51.5T433 1252q0-100-106-193l-94-82h212z"/><glyph glyph-name="uni00B3" unicode="³" horiz-adv-x="492" vert-adv-y="1800" d="M247 865q-97 0-147.5 54.5T41 1064l-2 20h116l3-24q11-88 89-88 85 0 85 75 0 43-48 55-24 6-53 6h-76v108h80q40 0 65 15t25 44q0 65-82 65-38 0-54.5-20t-21.5-62l-1-17H49l3 31q9 77 59 125.5t133 48.5q85 0 141-45.5t56-125.5q0-64-47-109 54-45 54-119 0-84-56-133t-145-49z"/><glyph glyph-name="acute" unicode="´" horiz-adv-x="776" vert-adv-y="2275" d="m541 1659-175-384H231l155 384h155z"/><glyph glyph-name="paragraph" unicode="¶" horiz-adv-x="1251" vert-adv-y="2275" d="M734 1355V-402H598v968q-323 7-441 249-43 89-43 208 0 95 35 178 57 139 182 210t287 71h404V-402H885v1757H734z"/><glyph glyph-name="periodcentered" unicode="·" horiz-adv-x="459" vert-adv-y="2275" d="M229 438q-45 0-74.5 29T125 538q0 43 28.5 72.5T229 640q46 0 75.5-30t29.5-72q0-41-30-70.5T229 438z"/><glyph glyph-name="cedilla" unicode="¸" horiz-adv-x="620" vert-adv-y="2275" d="M294-480q-101 0-162 57l-11 10 64 103 19-18q34-34 94-34 45 0 72 23.5t27 64.5q0 42-24 64.5T304-187q-25 0-48.5-10T221-224l-11-14-87 47L228 66h122L291-78q11 2 32 2 91 0 148-56.5T528-274q0-93-67.5-149.5T294-480z"/><glyph glyph-name="uni00B9" unicode="¹" horiz-adv-x="489" vert-adv-y="1800" d="M436 973V865H80v108h121v345H87v109l228-1V973h121z"/><glyph glyph-name="ordmasculine" unicode="º" horiz-adv-x="681" vert-adv-y="2275" d="M340 865q-127 0-206.5 88.5T54 1161t80 207 206 88q127 0 207-88t80-207-79.5-207.5T340 865zm0 118q41 0 80 22 38 22 58 65t20 91q0 74-43 126t-115 52-114.5-52-42.5-126q0-48 20-91t58-65 79-22z"/><glyph glyph-name="guillemotright" unicode="»" horiz-adv-x="1026" vert-adv-y="1800" d="M536 532 302 85H145l237 447-237 446h157zm343 0L646 85H488l237 447-237 446h157z"/><glyph glyph-name="questiondown" unicode="¿" horiz-adv-x="1103" vert-adv-y="2275" d="M558 870q-46 0-75 30.5T454 973q0 41 30 71t74 30q47 0 76-29t29-72q0-44-28-73.5T558 870zM541-455q-200 0-325 114T91-40q0 115 49 205t144 179q12 11 39 35.5t47.5 43.5 37.5 37q60 60 77 122 9 30 9 62v169h137V644q0-106-65-196-21-31-65-77-23-23-73-69-47-44-73.5-71.5t-58-71-46-91T236-34q0-135 81-213.5T541-326q145 0 228 89.5T852-7q0 13-5 80l-1 20h145l1-18q5-72 5-86 0-190-127-317T541-455z"/><glyph glyph-name="Agrave" unicode="À" horiz-adv-x="1629" vert-adv-y="2275" d="m814 2054 155-384H834l-176 384h156zM436 408 264 0H110l636 1482h138L1519 0h-157l-172 408H436zm696 134-319 756-320-756h639z"/><glyph glyph-name="Aacute" unicode="Á" horiz-adv-x="1629" vert-adv-y="2275" d="m970 2054-175-384H660l155 384h155zM436 408 264 0H110l636 1482h138L1519 0h-157l-172 408H436zm696 134-319 756-320-756h639z"/><glyph glyph-name="Acircumflex" unicode="Â" horiz-adv-x="1629" vert-adv-y="2275" d="m1093 1666-279 140-279-140v145l279 142 279-142v-145zM436 408 264 0H110l636 1482h138L1519 0h-157l-172 408H436zm696 134-319 756-320-756h639z"/><glyph glyph-name="Atilde" unicode="Ã" horiz-adv-x="1629" vert-adv-y="2275" d="M944 1767q-57 0-147 42-42 20-62 28-31 11-54 11-33 0-49.5-13.5T609 1789l-3-16H473l3 21q11 82 66 132.5t143 50.5q59 0 149-42 47-22 61-28 30-11 53-11 35 0 50.5 13t23.5 47l3 15h131l-2-21q-11-82-66-132.5T944 1767zM436 408 264 0H110l636 1482h138L1519 0h-157l-172 408H436zm696 134-319 756-320-756h639z"/><glyph glyph-name="Adieresis" unicode="Ä" horiz-adv-x="1629" vert-adv-y="2275" d="M674 1694q-44 0-72 28t-28 69q0 40 28 69t72 29 72.5-29 28.5-69-28.5-68.5T674 1694zm280 0q-44 0-72 28t-28 69 27.5 69.5T954 1889q44 0 72.5-29t28.5-69-28.5-68.5T954 1694zM436 408 264 0H110l636 1482h138L1519 0h-157l-172 408H436zm696 134-319 756-320-756h639z"/><glyph glyph-name="Aring" unicode="Å" horiz-adv-x="1629" vert-adv-y="2275" d="M816 1672q-52 0-106 23-63 26-99 85.5T575 1906q0 97 69 166t172 69q47 0 104-24 63-26 98.5-85.5T1054 1906q0-97-67-165.5T816 1672zm0 117q50 0 80.5 33t30.5 84-30.5 84-80.5 33q-51 0-81.5-33t-30.5-84 30.5-84 81.5-33zM436 408 264 0H110l636 1482h138L1519 0h-157l-172 408H436zm696 134-319 756-320-756h639z"/><glyph glyph-name="AE" unicode="Æ" horiz-adv-x="2801" vert-adv-y="2275" d="M467 483 264 0H110l636 1482h1041v-134H932V819h719V685H932V134h855V0H792v483H467zm57 134h268v647q-30-77-97-238.5T576 740z"/><glyph glyph-name="Ccedilla" unicode="Ç" horiz-adv-x="1667" vert-adv-y="2275" d="M798-480q-100 0-161 57l-12 10 64 103 19-18q34-34 94-34 45 0 72.5 23.5T902-274q0 42-24.5 64.5T808-187q-24 0-48-10.5T725-223l-11-15-86 47 71 175Q501 18 359 144q-108 95-162 212-52 108-70 213-17 97-17 172 0 116 34 246 35 129 118 244.5T460 1411q184 101 388 101 269 0 458-148t246-395l5-23h-146l-3 14q-46 193-198 308t-362 115q-132 0-238-46-119-51-201-146.5T291 982t-36-241q0-127 36-240.5T409 291t201-146q110-46 238-46 210 0 362 115t198 307l3 15h146l-5-23q-57-247-246-395T848-30h-33l-20-48q11 2 32 2 91 0 148-56.5t57-141.5q0-93-67.5-149.5T798-480z"/><glyph glyph-name="Egrave" unicode="È" horiz-adv-x="1215" vert-adv-y="2275" d="m607 2054 155-384H627l-175 384h155zm498-1920V0H110v1482h995v-134H250V819h720V685H250V134h855z"/><glyph glyph-name="Eacute" unicode="É" horiz-adv-x="1215" vert-adv-y="2275" d="m764 2054-176-384H453l155 384h156zm341-1920V0H110v1482h995v-134H250V819h720V685H250V134h855z"/><glyph glyph-name="Ecircumflex" unicode="Ê" horiz-adv-x="1215" vert-adv-y="2275" d="m887 1666-280 140-278-140v145l278 142 280-142v-145zm218-1532V0H110v1482h995v-134H250V819h720V685H250V134h855z"/><glyph glyph-name="Edieresis" unicode="Ë" horiz-adv-x="1215" vert-adv-y="2275" d="M468 1694q-44 0-72.5 28t-28.5 69q0 40 28.5 69t72.5 29q43 0 71.5-29.5T568 1791q0-40-28.5-68.5T468 1694zm280 0q-45 0-73 28t-28 69 28 69.5 73 28.5q43 0 71.5-29.5T848 1791q0-40-28.5-68.5T748 1694zm357-1560V0H110v1482h995v-134H250V819h720V685H250V134h855z"/><glyph glyph-name="Igrave" unicode="Ì" horiz-adv-x="690" vert-adv-y="2275" d="m345 2054 155-384H365l-175 384h155zM580 127V0H110v127h164v1228H110v127h470v-127H416V127h164z"/><glyph glyph-name="Iacute" unicode="Í" horiz-adv-x="690" vert-adv-y="2275" d="m501 2054-175-384H191l155 384h155zm79-1927V0H110v127h164v1228H110v127h470v-127H416V127h164z"/><glyph glyph-name="Icircumflex" unicode="Î" horiz-adv-x="689" vert-adv-y="2275" d="m624 1666-279 140-279-140v145l278 142 280-142v-145zM579 127V0H110v127h164v1228H110v127h469v-127H415V127h164z"/><glyph glyph-name="Idieresis" unicode="Ï" horiz-adv-x="690" vert-adv-y="2275" d="M205 1694q-44 0-72 28t-28 69q0 40 28 69t72 29 72.5-29 28.5-69-28.5-68.5T205 1694zm280 0q-44 0-72 28t-28 69 27.5 69.5T485 1889q44 0 72.5-29t28.5-69-28.5-68.5T485 1694zm95-1567V0H110v127h164v1228H110v127h470v-127H416V127h164z"/><glyph glyph-name="Ntilde" unicode="Ñ" horiz-adv-x="1394" vert-adv-y="2275" d="M827 1767q-58 0-148 42-42 20-62 28-30 11-53 11-34 0-50.5-13.5T492 1789l-3-16H356l2 21q11 82 66 132.5t144 50.5q60 0 148-42 42-20 61-28 31-11 54-11 34 0 49.5 13t23.5 47l3 15h132l-3-21q-11-82-66-132.5T827 1767zm-577-521V0H110v1482h142l892-1248v1248h140V0h-141z"/><glyph glyph-name="Ograve" unicode="Ò" horiz-adv-x="1741" vert-adv-y="2275" d="m871 2054 154-384H891l-176 384h156zM870-30q-137 0-258 40T400 122 243 290t-99.5 211.5T110 741q0 156 53.5 296t150 245.5 241 167.5 315.5 62 316-62 241.5-167.5 150-245.5 53.5-296-53.5-296-150-245.5T1186 32 870-30zm0 129q130 0 244 46 122 50 207 144.5t124.5 209T1485 741q0 198-95 359.5T1114 1337q-114 46-244 46-128 0-242-46-182-75-277.5-236.5T255 741q0-129 40-243.5T420.5 289 628 145q113-46 242-46z"/><glyph glyph-name="Oacute" unicode="Ó" horiz-adv-x="1741" vert-adv-y="2275" d="m1027 2054-176-384H716l155 384h156zM870-30q-137 0-258 40T400 122 243 290t-99.5 211.5T110 741q0 156 53.5 296t150 245.5 241 167.5 315.5 62 316-62 241.5-167.5 150-245.5 53.5-296-53.5-296-150-245.5T1186 32 870-30zm0 129q130 0 244 46 122 50 207 144.5t124.5 209T1485 741q0 198-95 359.5T1114 1337q-114 46-244 46-128 0-242-46-182-75-277.5-236.5T255 741q0-129 40-243.5T420.5 289 628 145q113-46 242-46z"/><glyph glyph-name="Ocircumflex" unicode="Ô" horiz-adv-x="1741" vert-adv-y="2275" d="m1150 1666-280 140-278-140v145l278 142 280-142v-145zM870-30q-137 0-258 40T400 122 243 290t-99.5 211.5T110 741q0 156 53.5 296t150 245.5 241 167.5 315.5 62 316-62 241.5-167.5 150-245.5 53.5-296-53.5-296-150-245.5T1186 32 870-30zm0 129q130 0 244 46 122 50 207 144.5t124.5 209T1485 741q0 198-95 359.5T1114 1337q-114 46-244 46-128 0-242-46-182-75-277.5-236.5T255 741q0-129 40-243.5T420.5 289 628 145q113-46 242-46z"/><glyph glyph-name="Otilde" unicode="Õ" horiz-adv-x="1741" vert-adv-y="2275" d="M1000 1767q-58 0-148 42-46 22-62 28-30 11-53 11-34 0-50.5-13.5T665 1789l-3-16H529l3 21q11 82 65.5 132.5T741 1977q59 0 149-42 36-18 61-28 30-11 53-11 34 0 49.5 13t23.5 47l3 15h132l-3-21q-11-82-66-132.5t-143-50.5zM870-30q-137 0-258 40T400 122 243 290t-99.5 211.5T110 741q0 156 53.5 296t150 245.5 241 167.5 315.5 62 316-62 241.5-167.5 150-245.5 53.5-296-53.5-296-150-245.5T1186 32 870-30zm0 129q130 0 244 46 122 50 207 144.5t124.5 209T1485 741q0 198-95 359.5T1114 1337q-114 46-244 46-128 0-242-46-182-75-277.5-236.5T255 741q0-129 40-243.5T420.5 289 628 145q113-46 242-46z"/><glyph glyph-name="Odieresis" unicode="Ö" horiz-adv-x="1741" vert-adv-y="2275" d="M731 1694q-44 0-72.5 28t-28.5 69q0 40 28.5 69t72.5 29q43 0 71.5-29.5T831 1791q0-40-28.5-68.5T731 1694zm280 0q-44 0-72.5 28t-28.5 69 28 69.5 73 28.5q43 0 71.5-29.5t28.5-68.5q0-40-28.5-68.5T1011 1694zM870-30q-137 0-258 40T400 122 243 290t-99.5 211.5T110 741q0 156 53.5 296t150 245.5 241 167.5 315.5 62 316-62 241.5-167.5 150-245.5 53.5-296-53.5-296-150-245.5T1186 32 870-30zm0 129q130 0 244 46 122 50 207 144.5t124.5 209T1485 741q0 198-95 359.5T1114 1337q-114 46-244 46-128 0-242-46-182-75-277.5-236.5T255 741q0-129 40-243.5T420.5 289 628 145q113-46 242-46z"/><glyph glyph-name="multiply" unicode="×" horiz-adv-x="1255" vert-adv-y="2275" d="M1010 59 628 437 243 56l-95 95 384 381-384 380 95 95 385-381 382 379 96-95-383-378 383-379z"/><glyph glyph-name="Oslash" unicode="Ø" horiz-adv-x="1741" vert-adv-y="2275" d="M641 1 526-280l-130 50L512 52q-195 98-298.5 285T110 741q0 156 54 296.5T314.5 1283 555 1450t315 62q123 0 230-30l109 268 130-46-111-273q130-64 223-176.5t136.5-243T1631 741q0-156-53.5-296t-150-245.5T1186 32 870-30Q745-30 641 1zm-78 175 487 1183q-82 24-180 24-128 0-242-46-182-75-277.5-236T255 741q0-177 78.5-330T563 176zm307-77q130 0 244 46 122 50 207 144.5t124.5 209T1485 741q0 178-78.5 330.5T1177 1306L691 124q85-25 179-25z"/><glyph glyph-name="Ugrave" unicode="Ù" horiz-adv-x="1395" vert-adv-y="2275" d="m697 2054 155-384H718l-176 384h155zm0-2084Q574-30 474.5 4T308 97 195.5 238.5t-65.5 177T110 617v865h141V599q0-104 27-193t80-158.5 140-109T697 99t199 39.5 140.5 109T1117 406t27 193v883h141V617q0-108-20.5-202T1199 238.5 1086.5 97t-167-93T697-30z"/><glyph glyph-name="Uacute" unicode="Ú" horiz-adv-x="1395" vert-adv-y="2275" d="m854 2054-176-384H543l155 384h156zM697-30Q574-30 474.5 4T308 97 195.5 238.5t-65.5 177T110 617v865h141V599q0-104 27-193t80-158.5 140-109T697 99t199 39.5 140.5 109T1117 406t27 193v883h141V617q0-108-20.5-202T1199 238.5 1086.5 97t-167-93T697-30z"/><glyph glyph-name="Ucircumflex" unicode="Û" horiz-adv-x="1395" vert-adv-y="2275" d="m977 1666-280 140-278-140v145l278 142 280-142v-145zM697-30Q574-30 474.5 4T308 97 195.5 238.5t-65.5 177T110 617v865h141V599q0-104 27-193t80-158.5 140-109T697 99t199 39.5 140.5 109T1117 406t27 193v883h141V617q0-108-20.5-202T1199 238.5 1086.5 97t-167-93T697-30z"/><glyph glyph-name="Udieresis" unicode="Ü" horiz-adv-x="1395" vert-adv-y="2275" d="M558 1694q-44 0-72.5 28t-28.5 69q0 40 28.5 69t72.5 29q43 0 71.5-29.5T658 1791q0-40-28.5-68.5T558 1694zm280 0q-45 0-73 28t-28 69 28 69.5 73 28.5q43 0 71.5-29.5T938 1791q0-40-28.5-68.5T838 1694zM697-30Q574-30 474.5 4T308 97 195.5 238.5t-65.5 177T110 617v865h141V599q0-104 27-193t80-158.5 140-109T697 99t199 39.5 140.5 109T1117 406t27 193v883h141V617q0-108-20.5-202T1199 238.5 1086.5 97t-167-93T697-30z"/><glyph glyph-name="Yacute" unicode="Ý" horiz-adv-x="1596" vert-adv-y="2275" d="m954 2054-176-384H643l155 384h156zM866 727V0H726v733l-616 749h183l506-624 508 624h179z"/><glyph glyph-name="germandbls" unicode="ß" horiz-adv-x="1240" vert-adv-y="2275" d="m369 1109-1-1523H232l-9 1521 2 15q0 9 2 13 11 67 41 129 60 119 169.5 183.5T688 1512q150 0 270-59t174-183q36-84 36-175 0-84-36.5-159.5T1026 811q-37-27-76-46 116-43 178.5-134.5T1191 417q0-209-134.5-328T698-30h-20V99h20q165 0 256 82.5t91 235.5q0 73-28.5 127T936 629.5 820 676t-142 15H522v134h141q112 0 190 33 81 33 125.5 94.5T1023 1095q0 143-90 215.5T686 1383q-76 0-148-29-72-28-115-97-39-60-51-130l-2-11q-1-2-1-7z"/><glyph glyph-name="agrave" unicode="à" horiz-adv-x="1141" vert-adv-y="2275" d="m571 1659 155-384H591l-176 384h156zM515-24q-285 0-373 180-32 65-32 146 0 118 64.5 199T360 611q43 10 104 15 11 1 48.5 3.5T567 634l327 21v31q0 278-307 278-306 0-306-278v-19l-137-3v20q0 195 117 299t326 104 326.5-104T1031 684V0H894v118Q763-24 515-24zm0 123q119 0 202 41 86 42 131.5 114.5T894 419v115l-219-15q-116-7-160-11-118-13-150-28-116-50-116-178 0-105 72-154t194-49z"/><glyph glyph-name="aacute" unicode="á" horiz-adv-x="1141" vert-adv-y="2275" d="m727 1659-176-384H417l154 384h156zM515-24q-285 0-373 180-32 65-32 146 0 118 64.5 199T360 611q43 10 104 15 11 1 48.5 3.5T567 634l327 21v31q0 278-307 278-306 0-306-278v-19l-137-3v20q0 195 117 299t326 104 326.5-104T1031 684V0H894v118Q763-24 515-24zm0 123q119 0 202 41 86 42 131.5 114.5T894 419v115l-219-15q-116-7-160-11-118-13-150-28-116-50-116-178 0-105 72-154t194-49z"/><glyph glyph-name="acircumflex" unicode="â" horiz-adv-x="1141" vert-adv-y="2275" d="m850 1272-279 140-279-141v145l279 143 279-143v-144zM515-24q-285 0-373 180-32 65-32 146 0 118 64.5 199T360 611q43 10 104 15 11 1 48.5 3.5T567 634l327 21v31q0 278-307 278-306 0-306-278v-19l-137-3v20q0 195 117 299t326 104 326.5-104T1031 684V0H894v118Q763-24 515-24zm0 123q119 0 202 41 86 42 131.5 114.5T894 419v115l-219-15q-116-7-160-11-118-13-150-28-116-50-116-178 0-105 72-154t194-49z"/><glyph glyph-name="atilde" unicode="ã" horiz-adv-x="1141" vert-adv-y="2275" d="M700 1372q-57 0-147 43-51 23-62 27-34 12-54 12-33 0-49.5-14t-22.5-46l-3-16H229l3 22q11 82 66 132.5t143 50.5q57 0 149-43 45-21 61-27 33-12 53-12 35 0 50 13.5t23 47.5l4 15h131l-3-22q-11-82-65.5-132.5T700 1372zM515-24q-285 0-373 180-32 65-32 146 0 118 64.5 199T360 611q43 10 104 15 11 1 48.5 3.5T567 634l327 21v31q0 278-307 278-306 0-306-278v-19l-137-3v20q0 195 117 299t326 104 326.5-104T1031 684V0H894v118Q763-24 515-24zm0 123q119 0 202 41 86 42 131.5 114.5T894 419v115l-219-15q-116-7-160-11-118-13-150-28-116-50-116-178 0-105 72-154t194-49z"/><glyph glyph-name="adieresis" unicode="ä" horiz-adv-x="1141" vert-adv-y="2275" d="M431 1300q-44 0-72 27.5t-28 68.5 28 70 72 29 72-29.5 28-69.5-28.5-68-71.5-28zm280 0q-44 0-72 27.5t-28 68.5 28 70 72 29 72-29.5 28-69.5-28.5-68-71.5-28zM515-24q-285 0-373 180-32 65-32 146 0 118 64.5 199T360 611q43 10 104 15 11 1 48.5 3.5T567 634l327 21v31q0 278-307 278-306 0-306-278v-19l-137-3v20q0 195 117 299t326 104 326.5-104T1031 684V0H894v118Q763-24 515-24zm0 123q119 0 202 41 86 42 131.5 114.5T894 419v115l-219-15q-116-7-160-11-118-13-150-28-116-50-116-178 0-105 72-154t194-49z"/><glyph glyph-name="aring" unicode="å" horiz-adv-x="1141" vert-adv-y="2275" d="M573 1277q-50 0-107 24-63 26-98.5 85.5T332 1512q0 97 68.5 165.5T573 1746q49 0 104-23 62-26 97.5-85.5T810 1512q0-98-66.5-166.5T573 1277zm0 118q50 0 80.5 33t30.5 84-30.5 84-80.5 33q-51 0-81.5-33t-30.5-84 30.5-84 81.5-33zM515-24q-285 0-373 180-32 65-32 146 0 118 64.5 199T360 611q43 10 104 15 11 1 48.5 3.5T567 634l327 21v31q0 278-307 278-306 0-306-278v-19l-137-3v20q0 195 117 299t326 104 326.5-104T1031 684V0H894v118Q763-24 515-24zm0 123q119 0 202 41 86 42 131.5 114.5T894 419v115l-219-15q-116-7-160-11-118-13-150-28-116-50-116-178 0-105 72-154t194-49z"/><glyph glyph-name="ae" unicode="æ" horiz-adv-x="2347" vert-adv-y="2275" d="M515-24q-285 0-373 180-32 65-32 146 0 118 64.5 199.5T360 611q43 10 104 15 13 1 49.5 3.5T567 634l327 21v31q0 278-307 278-306 0-306-278v-19l-137-3v20q0 195 117 299t326 104q278 0 389-178 13-21 21-40 74 103 188 160.5t248 57.5q121 0 224.5-46T1830 918.5t107.5-177T1976 532q0-20-1-29l-2-17h-941q13-164 122-274.5T1433 101q134 0 233 71t142 192l6 17 131-38-7-19q-57-157-193-252.5T1433-24q-119 0-223.5 45.5T1031 151V0H894v118Q763-24 515-24zm521 636h794q-22 152-129.5 251T1433 962q-86 0-164-33-98-42-156.5-126T1036 612zM515 99q119 0 202 41 86 42 131.5 114.5T894 419q0 1-3 115l-217-15q-116-7-159-11-117-13-150-28-116-50-116-178 0-105 72-154t194-49z"/><glyph glyph-name="ccedilla" unicode="ç" horiz-adv-x="1264" vert-adv-y="2275" d="M596-480q-100 0-161 57l-12 10 64 103 19-18q36-34 94-34 46 0 73 23.5t27 64.5q0 42-24.5 64.5T606-187q-24 0-47.5-10T523-224l-10-14-87 47L501-7Q319 43 214.5 195.5T110 532q0 106 37 205.5T250.5 915 418 1040t220 47q195 0 330-115.5T1148 674l6-23h-142l-4 14q-46 169-174 243-95 54-196 54-102 0-196-54T298.5 750 249 532t49.5-218.5T442 156q91-54 196-54 103 0 196 54 128 72 174 243l4 14h142l-6-23q-45-182-180-297.5T638-23h-22l-22-55q10 2 31 2 91 0 148-56.5T830-274q0-93-67.5-149.5T596-480z"/><glyph glyph-name="egrave" unicode="è" horiz-adv-x="1305" vert-adv-y="2275" d="m653 1659 155-384H673l-176 384h156zm0-1683q-121 0-224.5 46T256 145 148.5 322.5 110 532t38.5 209.5 107.5 177T428.5 1041t224.5 46 224-46 172-122.5 107.5-177T1195 532q0-20-1-29l-2-17H252q8-106 57.5-192.5T449 154t204-53q133 0 232 71t142 192l7 17 130-38-6-19q-57-157-193-252.5T653-24zM255 612h794q-22 152-129 251t-267 99q-87 0-165-33-97-43-156-126.5T255 612z"/><glyph glyph-name="eacute" unicode="é" horiz-adv-x="1305" vert-adv-y="2275" d="m809 1659-176-384H499l155 384h155zM653-24q-121 0-224.5 46T256 145 148.5 322.5 110 532t38.5 209.5 107.5 177T428.5 1041t224.5 46 224-46 172-122.5 107.5-177T1195 532q0-20-1-29l-2-17H252q8-106 57.5-192.5T449 154t204-53q133 0 232 71t142 192l7 17 130-38-6-19q-57-157-193-252.5T653-24zM255 612h794q-22 152-129 251t-267 99q-87 0-165-33-97-43-156-126.5T255 612z"/><glyph glyph-name="ecircumflex" unicode="ê" horiz-adv-x="1305" vert-adv-y="2275" d="m932 1272-279 140-279-141v145l279 143 279-143v-144zM653-24q-121 0-224.5 46T256 145 148.5 322.5 110 532t38.5 209.5 107.5 177T428.5 1041t224.5 46 224-46 172-122.5 107.5-177T1195 532q0-20-1-29l-2-17H252q8-106 57.5-192.5T449 154t204-53q133 0 232 71t142 192l7 17 130-38-6-19q-57-157-193-252.5T653-24zM255 612h794q-22 152-129 251t-267 99q-87 0-165-33-97-43-156-126.5T255 612z"/><glyph glyph-name="edieresis" unicode="ë" horiz-adv-x="1305" vert-adv-y="2275" d="M513 1300q-44 0-72 27.5t-28 68.5 28 70 72 29 72.5-29.5T614 1396t-28.5-68-72.5-28zm280 0q-44 0-72 27.5t-28 68.5 28 70 72 29 72.5-29.5T894 1396t-28.5-68-72.5-28zM653-24q-121 0-224.5 46T256 145 148.5 322.5 110 532t38.5 209.5 107.5 177T428.5 1041t224.5 46 224-46 172-122.5 107.5-177T1195 532q0-20-1-29l-2-17H252q8-106 57.5-192.5T449 154t204-53q133 0 232 71t142 192l7 17 130-38-6-19q-57-157-193-252.5T653-24zM255 612h794q-22 152-129 251t-267 99q-87 0-165-33-97-43-156-126.5T255 612z"/><glyph glyph-name="igrave" unicode="ì" horiz-adv-x="439" vert-adv-y="2275" d="m221 1659 154-384H241L65 1659h156zm67-572V0H151v1087h137z"/><glyph glyph-name="iacute" unicode="í" horiz-adv-x="439" vert-adv-y="2275" d="m375 1659-175-384H65l155 384h155zm-88-572V0H149v1087h138z"/><glyph glyph-name="icircumflex" unicode="î" horiz-adv-x="417" vert-adv-y="2275" d="m488 1272-280 140-279-140v144l279 143 280-143v-144zm-212-185V0H139v1087h137z"/><glyph glyph-name="idieresis" unicode="ï" horiz-adv-x="418" vert-adv-y="2275" d="M69 1300q-44 0-72.5 27.5T-32 1396t28.5 70 72.5 29 72.5-29.5T170 1396t-28.5-68-72.5-28zm280 0q-44 0-72 27.5t-28 68.5 28 70 72 29 72.5-29.5T450 1396t-28.5-68-72.5-28zm-72-213V0H139v1087h138z"/><glyph glyph-name="ntilde" unicode="ñ" vert-adv-y="2275" d="M682 1372q-55 0-147 43-42 20-62 27-34 12-54 12-33 0-49.5-14t-22.5-46l-3-16H211l3 22q11 82 66 132.5t143 50.5q57 0 149-43 45-21 61-27 33-12 53-12 35 0 50.5 13.5T760 1562l3 15h131l-3-22q-10-82-65-132.5T682 1372zM247 687V0H110v1087h137v-84q55 45 140 64.5t166 19.5q224 0 333-115 110-113 110-292V0H859v651q0 155-73 234t-233 79q-162 0-234-80-33-37-52.5-91.5T247 687z"/><glyph glyph-name="ograve" unicode="ò" horiz-adv-x="1276" vert-adv-y="2275" d="m638 1659 155-384H658l-176 384h156zm0-1683q-119 0-220 47T250.5 148 147 326t-37 206 37 205.5T250.5 915 418 1040t220 47 220-47 167.5-125T1129 737.5t37-205.5-37-206-103.5-178T858 23 638-24zm0 125q103 0 196 55 94 53 143 156.5t49 219.5q0 115-49.5 218.5T834 908q-95 54-196 54-102 0-196-54T298.5 750 249 532q0-115 49.5-218.5T442 156q93-55 196-55z"/><glyph glyph-name="oacute" unicode="ó" horiz-adv-x="1276" vert-adv-y="2275" d="m794 1659-175-384H484l155 384h155zM638-24q-119 0-220 47T250.5 148 147 326t-37 206 37 205.5T250.5 915 418 1040t220 47 220-47 167.5-125T1129 737.5t37-205.5-37-206-103.5-178T858 23 638-24zm0 125q103 0 196 55 94 53 143 156.5t49 219.5q0 115-49.5 218.5T834 908q-95 54-196 54-102 0-196-54T298.5 750 249 532q0-115 49.5-218.5T442 156q93-55 196-55z"/><glyph glyph-name="ocircumflex" unicode="ô" horiz-adv-x="1276" vert-adv-y="2275" d="m917 1272-279 140-279-141v145l279 143 279-143v-144zM638-24q-119 0-220 47T250.5 148 147 326t-37 206 37 205.5T250.5 915 418 1040t220 47 220-47 167.5-125T1129 737.5t37-205.5-37-206-103.5-178T858 23 638-24zm0 125q103 0 196 55 94 53 143 156.5t49 219.5q0 115-49.5 218.5T834 908q-95 54-196 54-102 0-196-54T298.5 750 249 532q0-115 49.5-218.5T442 156q93-55 196-55z"/><glyph glyph-name="otilde" unicode="õ" horiz-adv-x="1276" vert-adv-y="2275" d="M767 1372q-55 0-147 43-42 20-62 27-34 12-54 12-33 0-49.5-14t-22.5-46l-3-16H296l3 22q11 82 66 132.5t143 50.5q57 0 149-43 45-21 61-27 33-12 53-12 35 0 50.5 13.5T845 1562l3 15h131l-2-22q-11-82-66-132.5T767 1372zM638-24q-119 0-220 47T250.5 148 147 326t-37 206 37 205.5T250.5 915 418 1040t220 47 220-47 167.5-125T1129 737.5t37-205.5-37-206-103.5-178T858 23 638-24zm0 125q103 0 196 55 94 53 143 156.5t49 219.5q0 115-49.5 218.5T834 908q-95 54-196 54-102 0-196-54T298.5 750 249 532q0-115 49.5-218.5T442 156q93-55 196-55z"/><glyph glyph-name="odieresis" unicode="ö" horiz-adv-x="1276" vert-adv-y="2275" d="M498 1300q-44 0-72 28t-28 68q0 41 28 70t72 29 72.5-29.5T599 1396t-28.5-68-72.5-28zm280 0q-44 0-72 27.5t-28 68.5 28 70 72 29 72.5-29.5T879 1396t-28.5-68-72.5-28zM638-24q-119 0-220 47T250.5 148 147 326t-37 206 37 205.5T250.5 915 418 1040t220 47 220-47 167.5-125T1129 737.5t37-205.5-37-206-103.5-178T858 23 638-24zm0 125q103 0 196 55 94 53 143 156.5t49 219.5q0 115-49.5 218.5T834 908q-95 54-196 54-102 0-196-54T298.5 750 249 532q0-115 49.5-218.5T442 156q93-55 196-55z"/><glyph glyph-name="divide" unicode="÷" horiz-adv-x="1238" vert-adv-y="2275" d="M620 755q-46 0-76 29t-30 71q0 44 29.5 73t76.5 29q45 0 74.5-30t29.5-72q0-41-30-70.5T620 755zm548-158V464H71v133h1097zM620 106q-46 0-76 29t-30 71q0 44 29.5 73t76.5 29q45 0 74.5-30t29.5-72q0-41-30-70.5T620 106z"/><glyph glyph-name="oslash" unicode="ø" horiz-adv-x="1276" vert-adv-y="2275" d="m535-15-77-240H309l92 286q-139 71-215 209t-76 292q0 106 37 205.5T250.5 915 418 1040t220 47q55 0 99-8l81 251h149l-95-297q96-51 154-118 67-77 103.5-179t36.5-204q0-106-37-206t-103.5-178T858 23 638-24q-59 0-103 9zm-94 171 257 801q-25 5-60 5-102 0-196-54T298.5 750 249 532t49.5-219T441 156zm197-55q103 0 196 55 94 54 143 157t49 219q0 115-49 218.5T834 908l-2 2-258-803q31-6 64-6z"/><glyph glyph-name="ugrave" unicode="ù" vert-adv-y="2275" d="m553 1659 155-384H573l-176 384h156zM553 0Q329 0 219 115 110 230 110 408v679h137V436q0-154 73.5-233.5T553 123q160 0 234 81 32 36 51.5 91T858 401v686h138V0H858v85q-54-45-139.5-65T553 0z"/><glyph glyph-name="uacute" unicode="ú" vert-adv-y="2275" d="m709 1659-176-384H399l155 384h155zM553 0Q329 0 219 115 110 230 110 408v679h137V436q0-154 73.5-233.5T553 123q160 0 234 81 32 36 51.5 91T858 401v686h138V0H858v85q-54-45-139.5-65T553 0z"/><glyph glyph-name="ucircumflex" unicode="û" vert-adv-y="2275" d="m832 1272-279 140-279-141v145l279 143 279-143v-144zM553 0Q329 0 219 115 110 230 110 408v679h137V436q0-154 73.5-233.5T553 123q160 0 234 81 32 36 51.5 91T858 401v686h138V0H858v85q-54-45-139.5-65T553 0z"/><glyph glyph-name="udieresis" unicode="ü" vert-adv-y="2275" d="M413 1300q-44 0-72 27.5t-28 68.5 28 70 72 29 72.5-29.5T514 1396t-28.5-68-72.5-28zm280 0q-44 0-72 27.5t-28 68.5 28 70 72 29 72.5-29.5T794 1396t-28.5-68-72.5-28zM553 0Q329 0 219 115 110 230 110 408v679h137V436q0-154 73.5-233.5T553 123q160 0 234 81 32 36 51.5 91T858 401v686h138V0H858v85q-54-45-139.5-65T553 0z"/><glyph glyph-name="yacute" unicode="ý" horiz-adv-x="1292" vert-adv-y="2275" d="m802 1659-176-384H492l155 384h155zm380-570L526-445H378L574 19 110 1089h152l383-906 383 906h154z"/><glyph glyph-name="ydieresis" unicode="ÿ" horiz-adv-x="1292" vert-adv-y="2275" d="M506 1300q-44 0-72 27.5t-28 68.5 28 70 72 29 72.5-29.5T607 1396t-28.5-68-72.5-28zm280 0q-44 0-72 27.5t-28 68.5 28 70 72 29 72.5-29.5T887 1396t-28.5-68-72.5-28zm396-211L526-445H378L574 19 110 1089h152l383-906 383 906h154z"/><glyph glyph-name="Amacron" unicode="Ā" horiz-adv-x="1629" vert-adv-y="2275" d="M1147 1833v-127H483v127h664zM436 408 264 0H110l636 1482h138L1519 0h-157l-172 408H436zm696 134-319 756-320-756h639z"/><glyph glyph-name="amacron" unicode="ā" horiz-adv-x="1141" vert-adv-y="2275" d="M902 1439v-127H239v127h663zM515-24q-285 0-373 180-32 65-32 146 0 118 64.5 199T360 611q43 10 104 15 11 1 48.5 3.5T567 634l327 21v31q0 278-307 278-306 0-306-278v-19l-137-3v20q0 195 117 299t326 104 326.5-104T1031 684V0H894v118Q763-24 515-24zm0 123q119 0 202 41 86 42 131.5 114.5T894 419v115l-219-15q-116-7-160-11-118-13-150-28-116-50-116-178 0-105 72-154t194-49z"/><glyph glyph-name="Abreve" unicode="Ă" horiz-adv-x="1629" vert-adv-y="2275" d="M815 1696q-128 0-206 71t-78 191v19h132v-19q0-66 40.5-102.5T815 1819t112 36.5 41 102.5v19h130v-19q0-120-77.5-191T815 1696zM436 408 264 0H110l636 1482h138L1519 0h-157l-172 408H436zm696 134-319 756-320-756h639z"/><glyph glyph-name="abreve" unicode="ă" horiz-adv-x="1141" vert-adv-y="2275" d="M571 1302q-128 0-206 71t-78 191v19h132v-19q0-66 40-103t112-37q71 0 112 37t40 103v19h131v-19q0-121-77.5-191.5T571 1302zM515-24q-285 0-373 180-32 65-32 146 0 118 64.5 199T360 611q43 10 104 15 11 1 48.5 3.5T567 634l327 21v31q0 278-307 278-306 0-306-278v-19l-137-3v20q0 195 117 299t326 104 326.5-104T1031 684V0H894v118Q763-24 515-24zm0 123q119 0 202 41 86 42 131.5 114.5T894 419v115l-219-15q-116-7-160-11-118-13-150-28-116-50-116-178 0-105 72-154t194-49z"/><glyph glyph-name="Cacute" unicode="Ć" horiz-adv-x="1667" vert-adv-y="2275" d="m987 2054-176-384H677l155 384h155zM848-30Q722-30 597 9 468 48 359 144q-108 95-162 212-87 185-87 385 0 116 34 246 35 130 117.5 245T460 1411q184 101 388 101 269 0 458-148t246-395l5-23h-146l-3 14q-46 193-198 308t-362 115q-132 0-238-46-119-51-201-146.5T291 982t-36-241q0-127 36-240.5T409 291t201-146q110-46 238-46 210 0 362 115t198 307l3 15h146l-5-23q-57-247-246-395T848-30z"/><glyph glyph-name="cacute" unicode="ć" horiz-adv-x="1264" vert-adv-y="2275" d="m785 1659-175-384H475l155 384h155zM638-23q-119 0-220 47T250.5 149 147 326.5 110 532t37 205.5T250.5 915 418 1040t220 47q195 0 329.5-115.5T1148 674l6-23h-142l-4 14q-46 169-174 243-95 54-196 54-102 0-196-54T298.5 750 249 532t49.5-218T442 156q91-54 196-54 103 0 196 54 128 74 174 243l4 14h142l-6-24q-46-181-181-296.5T638-23z"/><glyph glyph-name="Ccircumflex" unicode="Ĉ" horiz-adv-x="1667" vert-adv-y="2275" d="m1110 1666-279 140-279-140v145l279 142 279-142v-145zM848-30Q722-30 597 9 468 48 359 144q-108 95-162 212-87 185-87 385 0 116 34 246 35 130 117.5 245T460 1411q184 101 388 101 269 0 458-148t246-395l5-23h-146l-3 14q-46 193-198 308t-362 115q-132 0-238-46-119-51-201-146.5T291 982t-36-241q0-127 36-240.5T409 291t201-146q110-46 238-46 210 0 362 115t198 307l3 15h146l-5-23q-57-247-246-395T848-30z"/><glyph glyph-name="ccircumflex" unicode="ĉ" horiz-adv-x="1264" vert-adv-y="2275" d="m908 1272-279 140-279-141v145l279 143 279-143v-144zM638-23q-119 0-220 47T250.5 149 147 326.5 110 532t37 205.5T250.5 915 418 1040t220 47q195 0 329.5-115.5T1148 674l6-23h-142l-4 14q-46 169-174 243-95 54-196 54-102 0-196-54T298.5 750 249 532t49.5-218T442 156q91-54 196-54 103 0 196 54 128 74 174 243l4 14h142l-6-24q-46-181-181-296.5T638-23z"/><glyph glyph-name="Cdotaccent" unicode="Ċ" horiz-adv-x="1667" vert-adv-y="2275" d="M832 1761q-44 0-72.5 28t-28.5 68q0 41 28 70t73 29q43 0 71.5-29.5T932 1857t-28.5-68-71.5-28zM848-30Q722-30 597 9 468 48 359 144q-108 95-162 212-87 185-87 385 0 116 34 246 35 130 117.5 245T460 1411q184 101 388 101 269 0 458-148t246-395l5-23h-146l-3 14q-46 193-198 308t-362 115q-132 0-238-46-119-51-201-146.5T291 982t-36-241q0-127 36-240.5T409 291t201-146q110-46 238-46 210 0 362 115t198 307l3 15h146l-5-23q-57-247-246-395T848-30z"/><glyph glyph-name="cdotaccent" unicode="ċ" horiz-adv-x="1264" vert-adv-y="2275" d="M630 1367q-44 0-72 27.5t-28 68.5q0 40 28 69t72 29q43 0 71.5-29.5T730 1463q0-40-28-68t-72-28zm8-1390q-119 0-220 47T250.5 149 147 326.5 110 532t37 205.5T250.5 915 418 1040t220 47q195 0 329.5-115.5T1148 674l6-23h-142l-4 14q-46 169-174 243-95 54-196 54-102 0-196-54T298.5 750 249 532t49.5-218T442 156q91-54 196-54 103 0 196 54 128 74 174 243l4 14h142l-6-24q-46-181-181-296.5T638-23z"/><glyph glyph-name="Ccaron" unicode="Č" horiz-adv-x="1667" vert-adv-y="2275" d="M1110 1985v-145l-279-142-279 142v145l279-140zM848-30Q722-30 597 9 468 48 359 144q-108 95-162 212-87 185-87 385 0 116 34 246 35 130 117.5 245T460 1411q184 101 388 101 269 0 458-148t246-395l5-23h-146l-3 14q-46 193-198 308t-362 115q-132 0-238-46-119-51-201-146.5T291 982t-36-241q0-127 36-240.5T409 291t201-146q110-46 238-46 210 0 362 115t198 307l3 15h146l-5-23q-57-247-246-395T848-30z"/><glyph glyph-name="ccaron" unicode="č" horiz-adv-x="1264" vert-adv-y="2275" d="M908 1591v-145l-279-143-279 143v145l279-141zM638-23q-119 0-220 47T250.5 149 147 326.5 110 532t37 205.5T250.5 915 418 1040t220 47q195 0 329.5-115.5T1148 674l6-23h-142l-4 14q-46 169-174 243-95 54-196 54-102 0-196-54T298.5 750 249 532t49.5-218T442 156q91-54 196-54 103 0 196 54 128 74 174 243l4 14h142l-6-24q-46-181-181-296.5T638-23z"/><glyph glyph-name="Emacron" unicode="Ē" horiz-adv-x="1215" vert-adv-y="2275" d="M940 1833v-127H276v127h664zm165-1699V0H110v1482h995v-134H250V819h720V685H250V134h855z"/><glyph glyph-name="emacron" unicode="ē" horiz-adv-x="1305" vert-adv-y="2275" d="M985 1439v-127H321v127h664zM653-24q-121 0-224.5 46T256 145 148.5 322.5 110 532t38.5 209.5 107.5 177T428.5 1041t224.5 46 224-46 172-122.5 107.5-177T1195 532q0-20-1-29l-2-17H252q8-106 57.5-192.5T449 154t204-53q133 0 232 71t142 192l7 17 130-38-6-19q-57-157-193-252.5T653-24zM255 612h794q-22 152-129 251t-267 99q-87 0-165-33-97-43-156-126.5T255 612z"/><glyph glyph-name="Ebreve" unicode="Ĕ" horiz-adv-x="1215" vert-adv-y="2275" d="M608 1696q-128 0-205.5 71T325 1958v19h131v-19q0-66 40.5-102.5T608 1819t112 36.5 41 102.5v19h131v-19q0-120-78-191t-206-71zm497-1562V0H110v1482h995v-134H250V819h720V685H250V134h855z"/><glyph glyph-name="ebreve" unicode="ĕ" horiz-adv-x="1305" vert-adv-y="2275" d="M653 1302q-128 0-206 71t-78 191v19h132v-19q0-66 40-103t112-37q71 0 112 37t41 103v19h130v-19q0-121-77.5-191.5T653 1302zm0-1326q-121 0-224.5 46T256 145 148.5 322.5 110 532t38.5 209.5 107.5 177T428.5 1041t224.5 46 224-46 172-122.5 107.5-177T1195 532q0-20-1-29l-2-17H252q8-106 57.5-192.5T449 154t204-53q133 0 232 71t142 192l7 17 130-38-6-19q-57-157-193-252.5T653-24zM255 612h794q-22 152-129 251t-267 99q-87 0-165-33-97-43-156-126.5T255 612z"/><glyph glyph-name="Edotaccent" unicode="Ė" horiz-adv-x="1215" vert-adv-y="2275" d="M608 1761q-44 0-72 27.5t-28 68.5 28 70 72 29 72.5-29.5T709 1857t-28.5-68-72.5-28zm497-1627V0H110v1482h995v-134H250V819h720V685H250V134h855z"/><glyph glyph-name="edotaccent" unicode="ė" horiz-adv-x="1305" vert-adv-y="2275" d="M653 1367q-44 0-72.5 27.5T552 1463q0 40 28.5 69t72.5 29q43 0 71.5-29.5T753 1463q0-40-28.5-68t-71.5-28zm0-1391q-121 0-224.5 46T256 145 148.5 322.5 110 532t38.5 209.5 107.5 177T428.5 1041t224.5 46 224-46 172-122.5 107.5-177T1195 532q0-20-1-29l-2-17H252q8-106 57.5-192.5T449 154t204-53q133 0 232 71t142 192l7 17 130-38-6-19q-57-157-193-252.5T653-24zM255 612h794q-22 152-129 251t-267 99q-87 0-165-33-97-43-156-126.5T255 612z"/><glyph glyph-name="Ecaron" unicode="Ě" horiz-adv-x="1215" vert-adv-y="2275" d="M887 1985v-145l-280-142-278 142v145l278-140zm218-1851V0H110v1482h995v-134H250V819h720V685H250V134h855z"/><glyph glyph-name="ecaron" unicode="ě" horiz-adv-x="1305" vert-adv-y="2275" d="M932 1591v-145l-279-143-279 143v145l279-141zM653-24q-121 0-224.5 46T256 145 148.5 322.5 110 532t38.5 209.5 107.5 177T428.5 1041t224.5 46 224-46 172-122.5 107.5-177T1195 532q0-20-1-29l-2-17H252q8-106 57.5-192.5T449 154t204-53q133 0 232 71t142 192l7 17 130-38-6-19q-57-157-193-252.5T653-24zM255 612h794q-22 152-129 251t-267 99q-87 0-165-33-97-43-156-126.5T255 612z"/><glyph glyph-name="Gcircumflex" unicode="Ĝ" horiz-adv-x="1662" vert-adv-y="2275" d="m1108 1666-279 140-279-140v145l279 142 279-142v-145zM848-30Q722-30 597 9 468 48 359 144q-108 95-162 212-87 185-87 385 0 116 34 246 35 130 117.5 245T460 1411q184 101 388 101 264 0 451-137.5T1546 997l6-23h-146l-4 14q-51 186-199 290.5T848 1383q-132 0-238-46-119-51-201-146.5T291 982t-36-241 36-241 118-208.5T610 145q110-46 238-46 114 0 220 41 165 65 254 207t94 318H829v134h720V0h-133v264q-90-142-238-218T848-30z"/><glyph glyph-name="gcircumflex" unicode="ĝ" horiz-adv-x="1274" vert-adv-y="2275" d="m916 1272-279 140-279-141v145l279 143 279-143v-144zM663-445q-130 0-228 41-101 43-155 100t-78 110q-24 52-30 74l-7 24h147l4-14q14-45 59-97 47-54 127.5-83.5T667-320q167 0 263.5 100T1027 40v111Q876-24 638-24q-119 0-220 47T250.5 148 147 326t-37 206 37 205.5T250.5 915 418 1040t220 47q238 0 389-175v151h137V74q0-110-31.5-204T1040-294.5 882-405t-219-40zm-25 546q103 0 196 55 94 53 143 156.5t49 219.5q0 115-49.5 218.5T834 908q-95 54-196 54-102 0-196-54T298.5 750 249 532q0-115 49.5-218.5T442 156q93-55 196-55z"/><glyph glyph-name="Gbreve" unicode="Ğ" horiz-adv-x="1662" vert-adv-y="2275" d="M830 1696q-128 0-206 71t-78 191v19h132v-19q0-66 40.5-102.5T830 1819t112 36.5 41 102.5v19h130v-19q0-120-77.5-191T830 1696zM848-30Q722-30 597 9 468 48 359 144q-108 95-162 212-87 185-87 385 0 116 34 246 35 130 117.5 245T460 1411q184 101 388 101 264 0 451-137.5T1546 997l6-23h-146l-4 14q-51 186-199 290.5T848 1383q-132 0-238-46-119-51-201-146.5T291 982t-36-241 36-241 118-208.5T610 145q110-46 238-46 114 0 220 41 165 65 254 207t94 318H829v134h720V0h-133v264q-90-142-238-218T848-30z"/><glyph glyph-name="gbreve" unicode="ğ" horiz-adv-x="1274" vert-adv-y="2275" d="M637 1302q-128 0-206 71t-78 191v19h132v-19q0-66 40.5-103t111.5-37 112 37 41 103v19h130v-19q0-121-77.5-191.5T637 1302zm26-1747q-130 0-228 41-101 43-155 100t-78 110q-24 52-30 74l-7 24h147l4-14q14-45 59-97 47-54 127.5-83.5T667-320q167 0 263.5 100T1027 40v111Q876-24 638-24q-119 0-220 47T250.5 148 147 326t-37 206 37 205.5T250.5 915 418 1040t220 47q238 0 389-175v151h137V74q0-110-31.5-204T1040-294.5 882-405t-219-40zm-25 546q103 0 196 55 94 53 143 156.5t49 219.5q0 115-49.5 218.5T834 908q-95 54-196 54-102 0-196-54T298.5 750 249 532q0-115 49.5-218.5T442 156q93-55 196-55z"/><glyph glyph-name="Gdotaccent" unicode="Ġ" horiz-adv-x="1662" vert-adv-y="2275" d="M830 1761q-44 0-72.5 28t-28.5 68q0 41 28 70t73 29q43 0 71.5-29.5T930 1857t-28.5-68-71.5-28zM848-30Q722-30 597 9 468 48 359 144q-108 95-162 212-87 185-87 385 0 116 34 246 35 130 117.5 245T460 1411q184 101 388 101 264 0 451-137.5T1546 997l6-23h-146l-4 14q-51 186-199 290.5T848 1383q-132 0-238-46-119-51-201-146.5T291 982t-36-241 36-241 118-208.5T610 145q110-46 238-46 114 0 220 41 165 65 254 207t94 318H829v134h720V0h-133v264q-90-142-238-218T848-30z"/><glyph glyph-name="gdotaccent" unicode="ġ" horiz-adv-x="1274" vert-adv-y="2275" d="M637 1367q-44 0-72.5 27.5T536 1463q0 40 28.5 69t72.5 29q43 0 71.5-29.5T737 1463q0-40-28.5-68t-71.5-28zm26-1812q-130 0-228 41-101 43-155 100t-78 110q-24 52-30 74l-7 24h147l4-14q14-45 59-97 47-54 127.5-83.5T667-320q167 0 263.5 100T1027 40v111Q876-24 638-24q-119 0-220 47T250.5 148 147 326t-37 206 37 205.5T250.5 915 418 1040t220 47q238 0 389-175v151h137V74q0-110-31.5-204T1040-294.5 882-405t-219-40zm-25 546q103 0 196 55 94 53 143 156.5t49 219.5q0 115-49.5 218.5T834 908q-95 54-196 54-102 0-196-54T298.5 750 249 532q0-115 49.5-218.5T442 156q93-55 196-55z"/><glyph glyph-name="Itilde" unicode="Ĩ" horiz-adv-x="693" vert-adv-y="2275" d="M476 1767q-58 0-148 42-47 23-61 28-31 11-54 11-34 0-50.5-13.5T141 1789l-3-16H5l3 21q11 82 66 132.5t143 50.5q59 0 149-42 47-22 61-28 30-11 53-11 34 0 49.5 13t23.5 47l4 15h131l-3-21q-11-82-66-132.5T476 1767zM581 127V0H112v127h164v1228H112v127h469v-127H417V127h164z"/><glyph glyph-name="itilde" unicode="ĩ" horiz-adv-x="421" vert-adv-y="2275" d="M340 1372q-56 0-148 43-45 21-61 27-34 12-54 12-33 0-50-14t-22-46l-3-16h-133l3 22q11 82 66 132.5T81 1583q57 0 149-43 45-21 61-27 33-12 53-12 34 0 49.5 13.5T417 1562l4 15h131l-3-22q-11-82-66-132.5T340 1372zm-62-285V0H141v1087h137z"/><glyph glyph-name="Imacron" unicode="Ī" horiz-adv-x="688" vert-adv-y="2275" d="M676 1833v-127H12v127h664zM579 127V0H109v127h164v1228H109v127h470v-127H415V127h164z"/><glyph glyph-name="imacron" unicode="ī" horiz-adv-x="416" vert-adv-y="2275" d="M540 1439v-127h-664v127h664zm-264-352V0H138v1087h138z"/><glyph glyph-name="dotlessi" unicode="ı" horiz-adv-x="421" vert-adv-y="1800" d="M278 1087V0H141v1087h137z"/><glyph glyph-name="Nacute" unicode="Ń" horiz-adv-x="1394" vert-adv-y="2275" d="m854 2054-176-384H543l155 384h156zm-604-808V0H110v1482h142l892-1248v1248h140V0h-141z"/><glyph glyph-name="nacute" unicode="ń" vert-adv-y="2275" d="m709 1659-176-384H399l155 384h155zM247 687V0H110v1087h137v-84q55 45 140 64.5t166 19.5q224 0 333-115 110-113 110-292V0H859v651q0 155-73 234t-233 79q-162 0-234-80-33-37-52.5-91.5T247 687z"/><glyph glyph-name="Ncaron" unicode="Ň" horiz-adv-x="1394" vert-adv-y="2275" d="M977 1985v-145l-280-142-278 142v145l278-140zm-727-739V0H110v1482h142l892-1248v1248h140V0h-141z"/><glyph glyph-name="ncaron" unicode="ň" vert-adv-y="2275" d="M832 1591v-145l-279-143-279 143v145l279-141zM247 687V0H110v1087h137v-84q55 45 140 64.5t166 19.5q224 0 333-115 110-113 110-292V0H859v651q0 155-73 234t-233 79q-162 0-234-80-33-37-52.5-91.5T247 687z"/><glyph glyph-name="Omacron" unicode="Ō" horiz-adv-x="1741" vert-adv-y="2275" d="M1202 1833v-127H538v127h664zM870-30q-137 0-258 40T400 122 243 290t-99.5 211.5T110 741q0 156 53.5 296t150 245.5 241 167.5 315.5 62 316-62 241.5-167.5 150-245.5 53.5-296-53.5-296-150-245.5T1186 32 870-30zm0 129q130 0 244 46 122 50 207 144.5t124.5 209T1485 741q0 198-95 359.5T1114 1337q-114 46-244 46-128 0-242-46-182-75-277.5-236.5T255 741q0-129 40-243.5T420.5 289 628 145q113-46 242-46z"/><glyph glyph-name="omacron" unicode="ō" horiz-adv-x="1276" vert-adv-y="2275" d="M970 1439v-127H306v127h664zM638-24q-119 0-220 47T250.5 148 147 326t-37 206 37 205.5T250.5 915 418 1040t220 47 220-47 167.5-125T1129 737.5t37-205.5-37-206-103.5-178T858 23 638-24zm0 125q103 0 196 55 94 53 143 156.5t49 219.5q0 115-49.5 218.5T834 908q-95 54-196 54-102 0-196-54T298.5 750 249 532q0-115 49.5-218.5T442 156q93-55 196-55z"/><glyph glyph-name="Obreve" unicode="Ŏ" horiz-adv-x="1741" vert-adv-y="2275" d="M870 1696q-128 0-205.5 71T587 1958v19h131v-19q0-66 40.5-102.5T870 1819t112 36.5 41 102.5v19h131v-19q0-120-78-191t-206-71zm0-1726q-137 0-258 40T400 122 243 290t-99.5 211.5T110 741q0 156 53.5 296t150 245.5 241 167.5 315.5 62 316-62 241.5-167.5 150-245.5 53.5-296-53.5-296-150-245.5T1186 32 870-30zm0 129q130 0 244 46 122 50 207 144.5t124.5 209T1485 741q0 198-95 359.5T1114 1337q-114 46-244 46-128 0-242-46-182-75-277.5-236.5T255 741q0-129 40-243.5T420.5 289 628 145q113-46 242-46z"/><glyph glyph-name="obreve" unicode="ŏ" horiz-adv-x="1276" vert-adv-y="2275" d="M638 1302q-128 0-206 71t-78 191v19h132v-19q0-66 40.5-103t111.5-37 112 37 41 103v19h130v-19q0-121-77.5-191.5T638 1302zm0-1326q-119 0-220 47T250.5 148 147 326t-37 206 37 205.5T250.5 915 418 1040t220 47 220-47 167.5-125T1129 737.5t37-205.5-37-206-103.5-178T858 23 638-24zm0 125q103 0 196 55 94 53 143 156.5t49 219.5q0 115-49.5 218.5T834 908q-95 54-196 54-102 0-196-54T298.5 750 249 532q0-115 49.5-218.5T442 156q93-55 196-55z"/><glyph glyph-name="Ohungarumlaut" unicode="Ő" horiz-adv-x="1741" vert-adv-y="2275" d="m890 2092-192-384H570l153 384h167zm284 0-192-384H854l153 384h167zM870-30q-137 0-258 40T400 122 243 290t-99.5 211.5T110 741q0 156 53.5 296t150 245.5 241 167.5 315.5 62 316-62 241.5-167.5 150-245.5 53.5-296-53.5-296-150-245.5T1186 32 870-30zm0 129q130 0 244 46 122 50 207 144.5t124.5 209T1485 741q0 198-95 359.5T1114 1337q-114 46-244 46-128 0-242-46-182-75-277.5-236.5T255 741q0-129 40-243.5T420.5 289 628 145q113-46 242-46z"/><glyph glyph-name="ohungarumlaut" unicode="ő" horiz-adv-x="1276" vert-adv-y="2275" d="m658 1697-192-383H338l152 383h168zm284 0-192-383H622l152 383h168zM638-24q-119 0-220 47T250.5 148 147 326t-37 206 37 205.5T250.5 915 418 1040t220 47 220-47 167.5-125T1129 737.5t37-205.5-37-206-103.5-178T858 23 638-24zm0 125q103 0 196 55 94 53 143 156.5t49 219.5q0 115-49.5 218.5T834 908q-95 54-196 54-102 0-196-54T298.5 750 249 532q0-115 49.5-218.5T442 156q93-55 196-55z"/><glyph glyph-name="OE" unicode="Œ" horiz-adv-x="2887" vert-adv-y="2275" d="M870-30q-137 0-258 40T400 122 243 290t-99.5 211.5T110 741q0 156 53.5 296t150 245.5 241 167.5 315.5 62q193 0 352.5-78t263.5-225v273h996v-134h-855l2-529h717V685h-716l-3-551h855V0h-996v273q-103-146-263.5-224.5T870-30zm0 129q130 0 244 46 122 50 207 144.5t124.5 209T1485 741q0 198-95 359.5T1114 1337q-114 46-244 46-128 0-242-46-182-75-277.5-236.5T255 741q0-129 40-243.5T420.5 289 628 145q113-46 242-46z"/><glyph glyph-name="oe" unicode="œ" horiz-adv-x="2482" vert-adv-y="2275" d="M898-24q-119 0-220 47T510.5 148 407 326t-37 206 37 205.5T510.5 915 678 1040t220 47q152 0 271.5-74T1356 811q68 128 194 202t279 74q121 0 224-46t172-122.5 108-177 39-209.5q0-20-1-29l-2-17h-941q8-106 57.5-192.5T1625 154t204-53q133 0 232 71t143 192l6 17 131-38-7-19q-57-157-193-252.5T1829-24q-154 0-279 74t-194 202q-67-128-186.5-202T898-24zm0 125q103 0 196 55 94 53 143 156.5t49 219.5q0 115-49.5 218.5T1094 908q-95 54-196 54-102 0-196-54T558.5 750 509 532q0-115 49.5-218.5T702 156q93-55 196-55zm534 511h794q-23 152-130 251t-267 99q-85 0-165-33-98-43-156.5-126.5T1432 612z"/><glyph glyph-name="Racute" unicode="Ŕ" horiz-adv-x="1307" vert-adv-y="2275" d="m807 2054-176-384H497l155 384h155zM250 685V0H110v1482h584q249 0 373-107 124-106 124-292 0-175-105-273.5T799 691L1197 0h-170L644 685H250zm0 663V819h452q348 0 348 265 0 264-348 264H250z"/><glyph glyph-name="racute" unicode="ŕ" horiz-adv-x="683" vert-adv-y="2275" d="m497 1659-175-384H187l155 384h155zM247 687V0H110v1087h137v-84q55 45 140 64.5t166 19.5h20V964h-20q-162-2-234-80-33-36-52.5-91.5T247 687z"/><glyph glyph-name="Rcaron" unicode="Ř" horiz-adv-x="1307" vert-adv-y="2275" d="M930 1985v-145l-279-142-279 142v145l279-140zM250 685V0H110v1482h584q249 0 373-107 124-106 124-292 0-175-105-273.5T799 691L1197 0h-170L644 685H250zm0 663V819h452q348 0 348 265 0 264-348 264H250z"/><glyph glyph-name="rcaron" unicode="ř" horiz-adv-x="682" vert-adv-y="2275" d="M620 1591v-145l-280-143-278 143v145l279-141zM247 687V0H109v1087h138v-84q54 45 139 64.5t166 19.5h21V964h-20q-163-2-235-80-32-36-51.5-91.5T247 687z"/><glyph glyph-name="Sacute" unicode="Ś" horiz-adv-x="1339" vert-adv-y="2275" d="m826 2054-176-384H516l154 384h156zM670-28Q449-28 304 77q-83 61-132 148.5T112 414l-2 20h150l2-16q16-129 119-219 105-93 289-93 142 0 240 47 166 83 166 235 0 98-69 166-41 41-173 80-67 19-202 46-114 22-185 41-101 27-167 64-168 96-168 303 0 102 51 184t133 131.5 178.5 76T670 1506t196-26 169-79q169-123 192-337l2-21h-150l-2 17q-17 130-118 219-108 93-289 93-143 0-240-47-167-83-167-235 0-98 69-166 41-41 173-80 71-20 203-46 114-22 185-41 101-27 166-64 168-96 168-303 0-102-51-184T1043 74.5t-178.5-76T670-28z"/><glyph glyph-name="sacute" unicode="ś" horiz-adv-x="1018" vert-adv-y="2275" d="m665 1659-176-384H355l155 384h155zM511-14q-250 0-355 185-39 70-45 150l-1 20h137l2-17q10-99 81.5-155T511 113q75 0 143 25.5t94 76.5q21 40 21 77 0 93-91 135-39 19-101 32-16 4-120 24-42 8-71 14.5t-68 19-66 27-55.5 37-46 50T122 696t-11 84q0 125 111 216 108 91 286 91 248 0 354-184 39-67 45-150l1-21H771l-1 17q-11 100-82.5 155.5T508 960q-76 0-143-25.5T271 858q-22-42-22-76 0-92 91-136 37-17 102-32 22-5 64.5-13t55.5-10q42-8 71-15t68-19.5 65.5-26.5 55.5-36.5 46-50 28-65.5 11-84q0-124-111-217-109-91-285-91z"/><glyph glyph-name="Scircumflex" unicode="Ŝ" horiz-adv-x="1339" vert-adv-y="2275" d="m949 1666-279 140-279-140v145l279 142 279-142v-145zM670-28Q449-28 304 77q-83 61-132 148.5T112 414l-2 20h150l2-16q16-129 119-219 105-93 289-93 142 0 240 47 166 83 166 235 0 98-69 166-41 41-173 80-67 19-202 46-114 22-185 41-101 27-167 64-168 96-168 303 0 102 51 184t133 131.5 178.5 76T670 1506t196-26 169-79q169-123 192-337l2-21h-150l-2 17q-17 130-118 219-108 93-289 93-143 0-240-47-167-83-167-235 0-98 69-166 41-41 173-80 71-20 203-46 114-22 185-41 101-27 166-64 168-96 168-303 0-102-51-184T1043 74.5t-178.5-76T670-28z"/><glyph glyph-name="scircumflex" unicode="ŝ" horiz-adv-x="1018" vert-adv-y="2275" d="m788 1272-279 140-279-141v145l279 143 279-143v-144zM511-14q-250 0-355 185-39 70-45 150l-1 20h137l2-17q10-99 81.5-155T511 113q75 0 143 25.5t94 76.5q21 40 21 77 0 93-91 135-39 19-101 32-16 4-120 24-42 8-71 14.5t-68 19-66 27-55.5 37-46 50T122 696t-11 84q0 125 111 216 108 91 286 91 248 0 354-184 39-67 45-150l1-21H771l-1 17q-11 100-82.5 155.5T508 960q-76 0-143-25.5T271 858q-22-42-22-76 0-92 91-136 37-17 102-32 22-5 64.5-13t55.5-10q42-8 71-15t68-19.5 65.5-26.5 55.5-36.5 46-50 28-65.5 11-84q0-124-111-217-109-91-285-91z"/><glyph glyph-name="Scedilla" unicode="Ş" horiz-adv-x="1339" vert-adv-y="2275" d="M637-480q-101 0-162 57l-11 10 64 103 19-18q34-34 94-34 45 0 72 23.5t27 64.5q0 42-24 64.5T647-187q-57 0-83-37l-11-14-87 47 72 175q-38 8-57 13-156 39-254.5 151.5T112 414l-2 20h150l2-16q17-129 119-219 107-93 289-93 142 0 240 47 166 83 166 235 0 100-69 166-41 41-173 80-73 21-202 46-113 22-186 41-100 27-166 64-168 96-168 303 0 102 51 184t133 131.5 178.5 76T670 1506t196-26 169-79q169-123 192-337l2-21h-150l-2 17q-17 130-118 219-108 93-289 93-143 0-240-47-167-83-167-235 0-100 69-166 41-41 173-80 71-20 203-46 118-23 185-41 101-27 166-64 168-96 168-303 0-102-50.5-184T1044 74.5t-178.5-76T670-28h-15l-21-50q11 2 32 2 91 0 148-56.5T871-274q0-93-67.5-149.5T637-480z"/><glyph glyph-name="scedilla" unicode="ş" horiz-adv-x="1018" vert-adv-y="2275" d="M476-480q-101 0-162 57l-11 10 64 103 19-18q34-34 94-34 45 0 72 23.5t27 64.5q0 42-24 64.5T486-187q-57 0-83-37l-11-14-87 47L384 2Q265 31 192.5 117T111 321l-1 20h137l2-17q10-99 81.5-155T511 113q75 0 143 25.5t94 76.5q21 40 21 77 0 93-91 135-39 19-101 32-16 4-120 24-42 8-71 14.5t-68 19-66 27-55.5 37-46 50T122 696t-11 84q0 125 111 216 108 91 286 91 248 0 354-184 39-67 45-150l1-21H771l-1 17q-11 100-82.5 155.5T508 960q-76 0-143.5-25.5T271 858q-22-42-22-76 0-92 91-136 37-17 102-32 22-5 64.5-13t55.5-10q42-8 71-15t68-19.5 65.5-26.5 55.5-36.5 46-50 28-65.5 11-84q0-124-111-217-110-91-285-91h-12l-26-64q11 2 32 2 91 0 148-56.5T710-274q0-93-67.5-149.5T476-480z"/><glyph glyph-name="Scaron" unicode="Š" horiz-adv-x="1339" vert-adv-y="2275" d="M949 1985v-145l-279-142-279 142v145l279-140zM670-28Q449-28 304 77q-83 61-132 148.5T112 414l-2 20h150l2-16q16-129 119-219 105-93 289-93 142 0 240 47 166 83 166 235 0 98-69 166-41 41-173 80-67 19-202 46-114 22-185 41-101 27-167 64-168 96-168 303 0 102 51 184t133 131.5 178.5 76T670 1506t196-26 169-79q169-123 192-337l2-21h-150l-2 17q-17 130-118 219-108 93-289 93-143 0-240-47-167-83-167-235 0-98 69-166 41-41 173-80 71-20 203-46 114-22 185-41 101-27 166-64 168-96 168-303 0-102-51-184T1043 74.5t-178.5-76T670-28z"/><glyph glyph-name="scaron" unicode="š" horiz-adv-x="1018" vert-adv-y="2275" d="M788 1591v-145l-279-143-279 143v145l279-141zM511-14q-250 0-355 185-39 70-45 150l-1 20h137l2-17q10-99 81.5-155T511 113q75 0 143 25.5t94 76.5q21 40 21 77 0 93-91 135-39 19-101 32-16 4-120 24-42 8-71 14.5t-68 19-66 27-55.5 37-46 50T122 696t-11 84q0 125 111 216 108 91 286 91 248 0 354-184 39-67 45-150l1-21H771l-1 17q-11 100-82.5 155.5T508 960q-76 0-143-25.5T271 858q-22-42-22-76 0-92 91-136 37-17 102-32 22-5 64.5-13t55.5-10q42-8 71-15t68-19.5 65.5-26.5 55.5-36.5 46-50 28-65.5 11-84q0-124-111-217-109-91-285-91z"/><glyph glyph-name="Tcaron" unicode="Ť" horiz-adv-x="1340" vert-adv-y="2275" d="M949 1985v-145l-280-142-278 142v145l279-140zm-209-637V0H599v1348H110v134h1120v-134H740z"/><glyph glyph-name="tcaron" unicode="ť" horiz-adv-x="1224" vert-adv-y="2275" d="M542-2Q329-2 329 238v724H110v125h219v444h137v-444h226V962H466V255q0-71 20-101.5t84-30.5q34 0 102 2l21 1V3l-20-1q-15 0-61-2t-70-2zm578 1484-135-384H859l95 384h166z"/><glyph glyph-name="Utilde" unicode="Ũ" horiz-adv-x="1395" vert-adv-y="2275" d="M828 1767q-58 0-148 42-42 20-62 28-30 11-53 11-34 0-50.5-13.5T493 1789l-3-16H357l2 21q11 82 66 132.5t144 50.5q60 0 148-42 42-20 61-28 31-11 54-11 34 0 49.5 13t23.5 47l3 15h132l-3-21q-11-82-66-132.5T828 1767zM697-30Q574-30 474.5 4T308 97 195.5 238.5t-65.5 177T110 617v865h141V599q0-104 27-193t80-158.5 140-109T697 99t199 39.5 140.5 109T1117 406t27 193v883h141V617q0-108-20.5-202T1199 238.5 1086.5 97t-167-93T697-30z"/><glyph glyph-name="utilde" unicode="ũ" vert-adv-y="2275" d="M682 1372q-55 0-147 43-42 20-62 27-34 12-54 12-33 0-49.5-14t-22.5-46l-3-16H211l3 22q11 82 66 132.5t143 50.5q57 0 149-43 45-21 61-27 33-12 53-12 35 0 50.5 13.5T760 1562l3 15h131l-3-22q-10-82-65-132.5T682 1372zM553 0Q329 0 219 115 110 230 110 408v679h137V436q0-154 73.5-233.5T553 123q160 0 234 81 32 36 51.5 91T858 401v686h138V0H858v85q-54-45-139.5-65T553 0z"/><glyph glyph-name="Umacron" unicode="Ū" horiz-adv-x="1395" vert-adv-y="2275" d="M1030 1833v-127H366v127h664zM697-30Q574-30 474.5 4T308 97 195.5 238.5t-65.5 177T110 617v865h141V599q0-104 27-193t80-158.5 140-109T697 99t199 39.5 140.5 109T1117 406t27 193v883h141V617q0-108-20.5-202T1199 238.5 1086.5 97t-167-93T697-30z"/><glyph glyph-name="umacron" unicode="ū" vert-adv-y="2275" d="M885 1439v-127H221v127h664zM553 0Q329 0 219 115 110 230 110 408v679h137V436q0-154 73.5-233.5T553 123q160 0 234 81 32 36 51.5 91T858 401v686h138V0H858v85q-54-45-139.5-65T553 0z"/><glyph glyph-name="Ubreve" unicode="Ŭ" horiz-adv-x="1395" vert-adv-y="2275" d="M698 1696q-128 0-205.5 71T415 1958v19h131v-19q0-66 40.5-102.5T698 1819t112 36.5 41 102.5v19h131v-19q0-120-78-191t-206-71zM697-30Q574-30 474.5 4T308 97 195.5 238.5t-65.5 177T110 617v865h141V599q0-104 27-193t80-158.5 140-109T697 99t199 39.5 140.5 109T1117 406t27 193v883h141V617q0-108-20.5-202T1199 238.5 1086.5 97t-167-93T697-30z"/><glyph glyph-name="ubreve" unicode="ŭ" vert-adv-y="2275" d="M553 1302q-128 0-206 71t-78 191v19h132v-19q0-66 40-103t112-37q71 0 112 37t41 103v19h130v-19q0-121-77.5-191.5T553 1302zM553 0Q329 0 219 115 110 230 110 408v679h137V436q0-154 73.5-233.5T553 123q160 0 234 81 32 36 51.5 91T858 401v686h138V0H858v85q-54-45-139.5-65T553 0z"/><glyph glyph-name="Uring" unicode="Ů" horiz-adv-x="1395" vert-adv-y="2275" d="M699 1672q-52 0-106 23-63 26-99 85.5T458 1906q0 97 69 166t172 69q49 0 104-24 63-26 98.5-85.5T937 1906q0-98-66.5-166T699 1672zm0 117q51 0 81.5 33t30.5 84-30.5 84-81.5 33-81-33-30-84 30-84 81-33zM697-30Q574-30 474.5 4T308 97 195.5 238.5t-65.5 177T110 617v865h141V599q0-104 27-193t80-158.5 140-109T697 99t199 39.5 140.5 109T1117 406t27 193v883h141V617q0-108-20.5-202T1199 238.5 1086.5 97t-167-93T697-30z"/><glyph glyph-name="uring" unicode="ů" vert-adv-y="2275" d="M555 1277q-51 0-106 24-63 26-99 85.5T314 1512q0 97 68.5 165.5T555 1746q49 0 104-23 63-26 98.5-85.5T793 1512q0-98-67-166.5T555 1277zm0 118q50 0 80.5 33t30.5 84-30.5 84-80.5 33q-51 0-81.5-33t-30.5-84 30.5-84 81.5-33zM553 0Q329 0 219 115 110 230 110 408v679h137V436q0-154 73.5-233.5T553 123q160 0 234 81 32 36 51.5 91T858 401v686h138V0H858v85q-54-45-139.5-65T553 0z"/><glyph glyph-name="Uhungarumlaut" unicode="Ű" horiz-adv-x="1395" vert-adv-y="2275" d="m717 2092-192-384H397l153 384h167zm284 0-192-384H681l153 384h167zM697-30Q574-30 474.5 4T308 97 195.5 238.5t-65.5 177T110 617v865h141V599q0-104 27-193t80-158.5 140-109T697 99t199 39.5 140.5 109T1117 406t27 193v883h141V617q0-108-20.5-202T1199 238.5 1086.5 97t-167-93T697-30z"/><glyph glyph-name="uhungarumlaut" unicode="ű" vert-adv-y="2275" d="m573 1697-192-383H252l153 383h168zm284 0-192-383H536l153 383h168zM553 0Q329 0 219 115 110 230 110 408v679h137V436q0-154 73.5-233.5T553 123q160 0 234 81 32 36 51.5 91T858 401v686h138V0H858v85q-54-45-139.5-65T553 0z"/><glyph glyph-name="Wcircumflex" unicode="Ŵ" horiz-adv-x="2305" vert-adv-y="2275" d="m1432 1666-279 140-279-140v145l279 142 279-142v-145zm763-184L1706-2h-145l-408 1282L742 0H596L110 1482h155L670 202l410 1280h149l408-1282 407 1282h151z"/><glyph glyph-name="wcircumflex" unicode="ŵ" horiz-adv-x="1863" vert-adv-y="2275" d="m1211 1272-279 140-279-141v145l279 143 279-143v-144zM933 863 627-5H498L110 1094h143l308-885 297 855-31 30h188l-11-27 299-857 307 884h143L1365-5h-127z"/><glyph glyph-name="Ycircumflex" unicode="Ŷ" horiz-adv-x="1596" vert-adv-y="2275" d="m1077 1666-280 140-278-140v145l278 142 280-142v-145zM866 727V0H726v733l-616 749h183l506-624 508 624h179z"/><glyph glyph-name="ycircumflex" unicode="ŷ" horiz-adv-x="1292" vert-adv-y="2275" d="m925 1272-279 140-279-141v145l279 143 279-143v-144zm257-183L526-445H378L574 19 110 1089h152l383-906 383 906h154z"/><glyph glyph-name="Ydieresis" unicode="Ÿ" horiz-adv-x="1596" vert-adv-y="2275" d="M658 1694q-44 0-72.5 28t-28.5 69q0 40 28.5 69t72.5 29q43 0 71.5-29.5T758 1791q0-40-28.5-68.5T658 1694zm280 0q-44 0-72.5 28t-28.5 69 28 69.5 73 28.5q43 0 71.5-29.5t28.5-68.5q0-40-28.5-68.5T938 1694zm-72-967V0H726v733l-616 749h183l506-624 508 624h179z"/><glyph glyph-name="Zacute" unicode="Ź" horiz-adv-x="1384" vert-adv-y="2275" d="m848 2054-176-384H537l155 384h156zm426-1920V0H110v108l966 1240H119v134h1146v-109L300 134h974z"/><glyph glyph-name="zacute" unicode="ź" horiz-adv-x="1100" vert-adv-y="2275" d="m706 1659-176-384H396l155 384h155zM990 125V0H112v103l676 859H110v125h877v-98L310 125h680z"/><glyph glyph-name="Zdotaccent" unicode="Ż" horiz-adv-x="1384" vert-adv-y="2275" d="M692 1761q-44 0-72 27.5t-28 68.5 28 70 72 29 72.5-29.5T793 1857t-28.5-68-72.5-28zm582-1627V0H110v108l966 1240H119v134h1146v-109L300 134h974z"/><glyph glyph-name="zdotaccent" unicode="ż" horiz-adv-x="1100" vert-adv-y="2275" d="M550 1367q-44 0-72.5 27.5T449 1463q0 40 28.5 69t72.5 29q43 0 71.5-29.5T650 1463q0-40-28.5-68t-71.5-28zM990 125V0H112v103l676 859H110v125h877v-98L310 125h680z"/><glyph glyph-name="Zcaron" unicode="Ž" horiz-adv-x="1384" vert-adv-y="2275" d="M971 1985v-145l-280-142-278 142v145l278-140zm303-1851V0H110v108l966 1240H119v134h1146v-109L300 134h974z"/><glyph glyph-name="zcaron" unicode="ž" horiz-adv-x="1100" vert-adv-y="2275" d="M829 1591v-145l-279-143-279 143v145l279-141zM990 125V0H112v103l676 859H110v125h877v-98L310 125h680z"/><glyph glyph-name="circumflex" unicode="ˆ" horiz-adv-x="853" vert-adv-y="2275" d="m706 1272-279 140-279-141v145l278 143 280-143v-144z"/><glyph glyph-name="caron" unicode="ˇ" horiz-adv-x="853" vert-adv-y="2275" d="M706 1591v-145l-280-143-278 143v145l279-141z"/><glyph glyph-name="breve" unicode="˘" horiz-adv-x="795" vert-adv-y="2275" d="M397 1302q-127 0-205 71t-78 191v19h132v-19q-1-66 39.5-103t111.5-37q72 0 112.5 37t40.5 103v19h131v-19q0-121-77.5-191.5T397 1302z"/><glyph glyph-name="dotaccent" unicode="˙" horiz-adv-x="533" vert-adv-y="2275" d="M266 1367q-44 0-72 27.5t-28 68.5q0 40 28 69t72 29 72.5-29 28.5-69-28.5-68-72.5-28z"/><glyph glyph-name="ring" unicode="˚" horiz-adv-x="661" vert-adv-y="2275" d="M332 1277q-49 0-106 24-63 26-99 85.5T91 1512q0 97 69 165.5t172 68.5q49 0 104-23 63-26 98.5-85.5T570 1512q0-98-67-166.5T332 1277zm0 118q50 0 80.5 33t30.5 84-30.5 84-80.5 33q-51 0-81-33t-30-84 30-84 81-33z"/><glyph glyph-name="ogonek" unicode="˛" horiz-adv-x="619" vert-adv-y="2275" d="M313-409q-100 0-154.5 63.5T104-189q0 102 63 180.5T332 110l17 7 61-106-21-8q-66-23-108-75t-42-115q0-44 23.5-72t65.5-28q59 0 96 51l16 21 75-91-7-11q-27-44-83-68t-112-24z"/><glyph glyph-name="tilde" unicode="˜" horiz-adv-x="907" vert-adv-y="2275" d="M583 1372q-56 0-148 43-45 21-61 27-34 12-54 12-33 0-50-14t-22-46l-3-16H112l3 22q11 82 66 132.5t143 50.5q57 0 149-43 45-21 61-27 33-12 53-12 34 0 49.5 13.5T660 1562l4 15h131l-3-22q-11-82-66-132.5T583 1372z"/><glyph glyph-name="hungarumlaut" unicode="˝" horiz-adv-x="878" vert-adv-y="2275" d="m457 1697-192-383H137l153 383h167zm284 0-192-383H421l153 383h167z"/><glyph glyph-name="Wgrave" unicode="Ẁ" horiz-adv-x="2305" vert-adv-y="2275" d="m1153 2054 155-384h-135l-176 384h156zm1042-572L1706-2h-145l-408 1282L742 0H596L110 1482h155L670 202l410 1280h149l408-1282 407 1282h151z"/><glyph glyph-name="wgrave" unicode="ẁ" horiz-adv-x="1863" vert-adv-y="2275" d="m932 1659 155-384H952l-176 384h156zm1-796L627-5H498L110 1094h143l308-885 297 855-31 30h188l-11-27 299-857 307 884h143L1365-5h-127z"/><glyph glyph-name="Wacute" unicode="Ẃ" horiz-adv-x="2305" vert-adv-y="2275" d="m1309 2054-176-384H999l154 384h156zm886-572L1706-2h-145l-408 1282L742 0H596L110 1482h155L670 202l410 1280h149l408-1282 407 1282h151z"/><glyph glyph-name="wacute" unicode="ẃ" horiz-adv-x="1863" vert-adv-y="2275" d="m1088 1659-176-384H778l154 384h156zM933 863 627-5H498L110 1094h143l308-885 297 855-31 30h188l-11-27 299-857 307 884h143L1365-5h-127z"/><glyph glyph-name="Wdieresis" unicode="Ẅ" horiz-adv-x="2305" vert-adv-y="2275" d="M1013 1694q-44 0-72 28t-28 69q0 40 28 69t72 29 72.5-29 28.5-69-28.5-68.5-72.5-28.5zm280 0q-44 0-72 28t-28 69 27.5 69.5 72.5 28.5q44 0 72.5-29t28.5-69-28.5-68.5-72.5-28.5zm902-212L1706-2h-145l-408 1282L742 0H596L110 1482h155L670 202l410 1280h149l408-1282 407 1282h151z"/><glyph glyph-name="wdieresis" unicode="ẅ" horiz-adv-x="1863" vert-adv-y="2275" d="M792 1300q-44 0-72 27.5t-28 68.5 28 70 72 29 72-29.5 28-69.5-28.5-68-71.5-28zm280 0q-44 0-72 27.5t-28 68.5 28 70 72 29 72.5-29.5 28.5-69.5-28.5-68-72.5-28zM933 863 627-5H498L110 1094h143l308-885 297 855-31 30h188l-11-27 299-857 307 884h143L1365-5h-127z"/><glyph glyph-name="endash" unicode="–" horiz-adv-x="1069" vert-adv-y="2275" d="M1069 595V468H0v127h1069z"/><glyph glyph-name="emdash" unicode="—" horiz-adv-x="2097" vert-adv-y="2275" d="M2097 595V468H0v127h2097z"/><glyph glyph-name="quoteleft" unicode="‘" horiz-adv-x="469" vert-adv-y="2275" d="m365 1482-96-384H104l134 384h127z"/><glyph glyph-name="quoteright" unicode="’" horiz-adv-x="469" vert-adv-y="2275" d="m365 1482-135-384H104l96 384h165z"/><glyph glyph-name="quotesinglbase" unicode="‚" horiz-adv-x="469" vert-adv-y="2275" d="M365 185 230-200H104l96 385h165z"/><glyph glyph-name="quotedblleft" unicode="“" horiz-adv-x="747" vert-adv-y="2275" d="m365 1482-96-384H104l134 384h127zm277 0-95-384H381l135 384h126z"/><glyph glyph-name="quotedblright" unicode="”" horiz-adv-x="747" vert-adv-y="2275" d="m365 1482-135-384H104l96 384h165zm277 0-134-384H381l97 384h164z"/><glyph glyph-name="quotedblbase" unicode="„" horiz-adv-x="747" vert-adv-y="2275" d="M365 187 230-198H104l96 385h165zm277 0L508-198H381l97 385h164z"/><glyph glyph-name="dagger" unicode="†" horiz-adv-x="1114" vert-adv-y="2275" d="M625 936V-162H488V936H114v127h374v419h137v-419h375V936H625z"/><glyph glyph-name="daggerdbl" unicode="‡" horiz-adv-x="1114" vert-adv-y="2275" d="M625 256v-418H488v418H114v128h374v552H114v127h374v419h137v-419h375V936H625V384h375V256H625z"/><glyph glyph-name="bullet" unicode="•" horiz-adv-x="1108" vert-adv-y="2275" d="M553 427q-132 0-228 94-94 91-94 224 0 130 91.5 225t230.5 95q138 0 231.5-95.5T878 745t-93.5-223.5T553 427z"/><glyph glyph-name="ellipsis" unicode="…" horiz-adv-x="1289" vert-adv-y="2275" d="M229-17q-45 0-74.5 29T125 84t28.5 73 75.5 30q46 0 75.5-30.5T334 84q0-41-30-71t-75-30zm416 0q-46 0-75.5 29T540 84t29 73 76 30q46 0 75-30.5T749 84q0-41-30-71t-74-30zm415 0q-46 0-75.5 29T955 84t28.5 73 76.5 30q46 0 75-30.5t29-72.5-30-71.5-74-29.5z"/><glyph glyph-name="guilsinglleft" unicode="‹" horiz-adv-x="684" vert-adv-y="2275" d="M302 542 538 96H382L145 542l237 446h156z"/><glyph glyph-name="guilsinglright" unicode="›" horiz-adv-x="686" vert-adv-y="2275" d="M538 542 302 96H145l237 446-237 446h157z"/><glyph glyph-name="fraction" unicode="⁄" horiz-adv-x="755" vert-adv-y="2275" d="M824 1482 77 0H-69l747 1482h146z"/><glyph glyph-name="Euro" unicode="€" horiz-adv-x="1238" vert-adv-y="2275" d="M874-30q-139 0-250 42T438 131 316 308.5 248 533H87v128h148q-2 54-2 80 0 29 4 85H87v127h163q21 124 68 223.5t122 176 185.5 118T874 1512q177 0 293-65l9-6v-147l-31 19q-54 32-128.5 51T874 1383q-403 0-480-430h485V826H382q-3-84-3-85 0-13 .5-39.5t.5-40.5h499V533H394Q467 99 874 99q68 0 142.5 19t128.5 51l31 19V41l-9-6q-115-65-293-65z"/><glyph glyph-name="trademark" unicode="™" horiz-adv-x="1846" vert-adv-y="2275" d="M492 1359V610H363v749H91v123h672v-123H492zm479-104V610H838v872h113l299-380 301 380h112V610h-132v645l-266-336h-29z"/><glyph glyph-name="arrowleft" unicode="←" horiz-adv-x="1242" vert-adv-y="2275" d="M259 468 604 0H440L42 532l398 531h164L259 595h942V468H259z"/><glyph glyph-name="arrowright" unicode="→" horiz-adv-x="1242" vert-adv-y="2275" d="M1201 532 802 0H638l345 468H42v127h941l-345 468h164z"/><glyph glyph-name="minus" unicode="−" horiz-adv-x="1238" vert-adv-y="2275" d="M1168 597V464H71v133h1097z"/><glyph glyph-name="approxequal" unicode="≈" horiz-adv-x="1251" vert-adv-y="2275" d="m237 584-12-18-109 85 8 14q23 38 70 75 85 70 220 70 82 0 225-47 54-19 103-32 58-14 98-14 51 0 98.5 24t74.5 64l13 18 109-86-9-14q-22-37-70-74-88-71-218-71-85 0-225 48-77 25-103 31-57 15-98 15-51 0-99.5-24.5T237 584zm0-325-13-17-108 84 8 14q23 38 70 75 86 70 220 70 79 0 222-47 54-19 103-32 59-14 101-14 51 0 98.5 24t74.5 63l13 18 109-85-9-14q-24-39-70-75-86-70-218-70-94 0-227 47-134 46-199 46-51 0-99-23.5T237 259z"/><glyph glyph-name="notequal" unicode="≠" horiz-adv-x="1238" vert-adv-y="2275" d="M554 260 421 0H269l133 260H71v134h399l142 273H71v134h609l136 262h153L832 801h336V667H764L622 394h546V260H554z"/><glyph glyph-name="lessequal" unicode="≤" horiz-adv-x="1239" vert-adv-y="2275" d="m307 721 820-329V246L112 663v114l1015 418v-145zm816-557V31H115v133h1008z"/><glyph glyph-name="greaterequal" unicode="≥" horiz-adv-x="1239" vert-adv-y="2275" d="M1127 777V663L112 246v146l820 329-820 329v145zm-3-613V31H116v133h1008z"/><glyph glyph-name="uniF8FF" unicode="" horiz-adv-x="1008" vert-adv-y="2275" d="M978 1142V126H30v1016h948zM172 366h109v189h373v98H281v266h373v97H171V370zm553 101H354V366h483v650H725V834H354V730h371V467zM563 241q8 0 14 4 2 0 5 1h2q7 0 7 5v25q-5 0-7 4l-3 3-7 1h-8l-5 4-4 1q-1 2-2 3.5t-1 2.5q0 7 7 7h5q5-3 6-4 4-3 7-3 1 0 3-1l2-1 7 15q0 1-2 1.5t-5.5 1.5-6.5 2q-12 4-14 4-4 0-14-4-5-3-8-3l-4-6q-3-3-3-11 0-2 .5-4t.5-3q0-2 2-3l2.5-2.5 1.5-2.5 5-2q1 0 2.5-.5t2.5-.5q4 0 8-4h4l3-2 5-3 1-3q0-5-2-5-4-2-7-2-2 0-14 5-3 0-14 7l-4-15q6-8 15-8 1 0 3.5-1t4.5-1q3-2 9-2zm-293 0q18 0 28 10 9 9 12 27 0 14-9 20 0 4-3 6-1 1-3 3.5t-4 2.5q-5 5-21 5-12 0-19-5-7-2-15-12-5-12-5-20 0-11 5-18 8-14 13-15 7-4 21-4zm461 0q13 0 17 4 7 2 14 9l-12 12q-3-5-10-5-2-3-9-3-6 0-9 3l-2 2q-1 0-5 6-2 0-2 11 0 6 2 9 0 1 3 3.5t4 3.5q3 4 9 4 7 0 9-4 7-1 10-7l10 13q0 1-1 2t-2 2.5-2 3.5l-7 1-8 4h-9q-18 0-24-11-12-5-12-26 0-12 3-18 9-13 15-15 5-4 18-4zm-503 72h-56v-70h21v26h31v14h-31v17h35v13zm107 0h-16v-70h18v41l31-41h19v70h-19v-42zm59-13h23v-57h17v57h21v13h-61v-13zm105 13h-20l-32-70h20l6 11h29l5-11h22zm97-13h20v-57h20v57h22v13h-62v-13zm87 13h-18v-70h18v70zm129 0h-20l-32-70h20l6 11h33l2-11h22zm-542-57q-5 0-14 7-5 8-5 15 0 6 2 11l3 4 5 3q2 4 9 4 5 0 11-4 4-1 7-7l2-5v-11q0-1-1-3l-1-2q-6-7-7-7-7-5-11-5zm219 39 8-26h-20zm312 0 9-26h-20zM59 50l-4-20h-5l-4 1-11 44q2 2 4 2h7l4-30q2 0 2 3 0 5 3 10 1 3 2 5.5t1.5 4T59 72v5h9l6-15 3-15q2 2 2 4l2 11 3 13q0 2 4 2l6-2q-6-9-6-18 0-1-4-13l-2-11v-3H72v3l-2 5-3 12-3 14zm70-3-4-17h-8q0 1-3 1v7l-7 31-3 6q3 2 5 2h5v-7q3-3 3-8l4-15 8 30h8l2-2 5-15 1-13 9 28q0 2 4 2l5-2v-5l-2-8q-1-2-2-5t-1-4l-6-23h-5l-3 1-7 16v8q0 1-3 3-4-2-4-3 0-5-1-8zm73 17-8-33-5-1-3 1-2 7q0 7-5 17l-1 15-2 7h8l3-15 4-15 3 4 4 26h11l4-15q1-15 7-15v15l2 15h6l5-2-2-5q0-6-2-8 0-2-.5-5t-.5-4l-7-22-1-1h-7l-6 17-3 13zm82-14V31h-7v44l1 2h28v-8h-22V57h17v-7h-17zm59-20q-14 0-17 12-3 9-3 11 0 9 3 12 0 5 6 5l5 7h8q13 0 20-15 3-10 0-15-3-8-7-12-5-5-15-5zm51 30V30h-9v47h9l18-30v30h6V31l-1-1h-5zm66 9V30h-9v39h-13v8h36v-8h-14zm33-38-6-1h-3q0 1-2 1l2 6 5 12 6 15q1 1 2.5 4.5T501 75q0 2 1 2h5l19-46q-2 0-2-1h-2l-7 1-2 11h-18zm66-1q-3 0-6 .5t-4 .5q-2 1-4 4t-3 3l-1 4v5h8q7-9 10-9 2 0 5 2 2 2 2 4v3q-1 2-9 4-11 0-11 4-6 7-4 12 5 8 11 10h8q9 0 10-7 3 0 3-6v-2h-8v2q0 6-7 6h-2q-6-4-6-6l10-4q2-1 6.5-3.5T574 53q0-1 1-3t1-3q0-8-4-10-1-6-6-6-2-1-7-1zm55 39V30h-8v39h-14v8h36v-8h-14zm40 8V30h-7v47h7zm42-47q-12 0-21 17-2 0-2 6l2 9q1 8 14 15h6q9 0 12-7 3 0 3-3l1-3-4-2h-2l-3 2q-4 6-7 6l-10-5q-3-4-3-8l1-7q0-3 2-5 0-7 8-7 5 0 9 9h5q4 0 4-2l-1-3q-5-12-14-12zm41 1-6-1h-1l-2 1 2 6 3 12q4 8 5 15l7 11q0 2 3 2h7l17-46q-2 0-2-1h-4l-4 1-5 11h-17zm99-1q-4 0-12 3-1 2-5 9-7 11 0 25 3 3 5 3 1 1 2 2.5t2 2.5 1 2h8q6 0 8-2 4 0 4-5 5 0 5-3v-3q-2 0-5-2h-4v2q-2 5-8 5-8 0-8-5-3-3-3-11 0-6 3-11 0-4 8-4 6 0 8 9h9v-7l-4-3q-4-7-14-7zm58 0q-12 0-16 7-7 9-7 16 0 1 5 14 9 9 11 10 4 0 11-2.5t8-2.5q8-2 8-17 0-12-5-18-3-7-15-7zm48 1-4-1h-4v47h14l3-15 2-11v-4l7 13q2 9 2 15v2h16V30h-10v35l-6-15V38l-2-7v-1h-7l-2 1-3 16-6 17V31zm-597 7q12 0 12 9v13q0 2-2.5 4t-2.5 3q-6 3-7 3l-10-5q0-3-2-3v-9q0-1 4-11 4-4 8-4zm549 0q4 0 5 2 5 2 5 13 0 12-5 14l-1 1q-1 1-2 1 0 1-2 1-9 0-9-6 0-1-1-5t-1-6q0-6 2-11 0-4 9-4zM504 64l-3-2-2-12h10q-2 1-2 7l-1 5zm246 0-3-2-3-12h11l-3 7-2 5v2zM255 40v-9h-9v9h9zm542 0v-9h-9v9h9z"/><glyph glyph-name="_FSHallmark" horiz-adv-x="1414" vert-adv-y="2275" d="M1354 1133V981H63v152h1291zm-279-875q-62 0-105 14-79 21-130 80t-51 139l150-3q0-6 9-26 3-19 22-38.5t38-25.5q26-16 74-16 54 0 84 18 27 16 27 42 0 46-122 71-100 28-188 70-78 38-78 127 0 70 44.5 112T970 890q93 12 105 12 62 0 145-30 55-20 88-69.5t33-108.5h-154q0 34-41 63-4 1-16.5 7.5T1109 772q-5 0-18 3.5t-19 3.5q-36 0-72-22-30-17-30-47 0-50 29-63 3-1 16.5-7t25-9.5 23.5-5.5l58-16 47-11q6-1 22-5.5t24-4.5q29-6 36-11l32-15q31-20 50-42 18-39 19-70 2-29-16-76-62-116-261-116zM232 466V258H63v643h543V756H232V609h312V466H232zm437-205q-28 0-51 25-27 23-27 51 0 29 24 53 21 21 54 21 38 0 62-23 26-23 26-51 0-30-26-56-29-20-62-20zm683-82V27H60v152h1292z"/><glyph glyph-name="_Fontastica" horiz-adv-x="1085" vert-adv-y="2275" d="M220 456V187H65l-5 6v934h700V989H220V601h540V456H220zm805 671V187H325v146h540v382H325v149h540v263h160zM212 33q-13 0-29 7-11 3-19.5 17.5T155 86q0 22 17.5 37t39.5 15q26 0 46-28 8-8 8-24 0-23-15.5-38T212 33zm411 0q-27 0-48 16l11 20q17-15 37-15 12 0 12 10l-1 2q-2 1-2 3l-5 4q-2 0-11 3-3 1-9.5 2t-9.5 3q-15 8-15 27 0 30 41 30 22 0 41-11l-11-22q-13 12-40 12l-1-1-2-7q0-1 1-2t1-2l4-6q3 0 6.5-1t4.5-1q12 0 24.5-10T664 65q0-15-12.5-23.5T623 33zm236 0q-16 0-27 7-12 5-20 18.5T804 86q0 10 9 25.5t19 19.5q14 7 27 7 7 0 23-4 9-5 18-14l-16-18q-3 3-11.5 8.5T860 116q-14 0-23-14-4-5-4-16 0-20 12-25 8-6 15-6 4 0 13.5 5t10.5 8l16-15q-12-20-41-20zM101 72V35H75v101h75v-20h-49V92h47V72h-47zm203 23V35h-26v101h25l45-61v61h26V35h-24zm138 19V35h-27v79h-30v22h85v-22h-28zm52-60-6-19h-27l42 101h28l42-101h-28l-6 19h-45zm230 60V35h-26v79h-30v22h87v-22h-31zm68 22V35h-26v101h26zm143-82-9-19h-26l44 101h28l42-101h-29l-8 19h-42zm-723 0q11 0 19.5 9.5T240 86q0 10-9 20t-19 10q-6 0-16-6-13-7-13-24 0-14 8-23t21-9zm319 19-15 36-14-36h29zm438 0-14 36-12-36h26z"/><glyph glyph-name="_www.fontastica.com" horiz-adv-x="1953" vert-adv-y="2275" d="M66 353v-60H32l-2 1v209h158v-31H66v-87h122v-32H66zm181 150V293H89v32h122v86H89v33h122v59h36zm1003-193q-46 0-81 28l18 36q11-10 30.5-18.5t32.5-8.5q4 0 16 4 7 3 7 11t-5 10q-9 6-29 12-28 8-31 10-11 5-20 15-7 10-7 28 0 27 20.5 40.5T1250 491q39 0 70-20l-17-36q-34 18-57 18-18 0-18-12t33-22q24-5 31-10 16-9 20-16 8-11 8-29 0-27-20.5-40.5T1250 310zm-707-1q-39 0-66.5 26T449 400t27 64.5 67 25.5 67-25.5 27-64.5q0-40-26.5-65.5T543 309zm1113 0q-38 0-64.5 26.5T1565 400q0 39 27 64.5t66 25.5q44 0 70-30l-26-32q-16 23-43 23-21 0-34.5-14.5T1611 401q0-16 6-26 16-25 42-25 23 0 43 20l27-28q-33-33-73-33zM354 375v-62h-45v174h130v-36h-85v-39h78v-37h-78zm349 42V313h-43v174h40l80-105-1 105h43V313h-40zm235 33V313h-45v137h-52v37h150v-37h-53zm93-107-12-30h-47l75 174h47l73-174h-48l-12 30h-76zm395 107V313h-46v137h-52v37h150v-37h-52zm116 37V313h-45v174h45zm245-144-12-30h-47l75 174h47l73-174h-49l-11 30h-76zm-1243 5q20 0 33.5 16t13.5 36q0 7-7 26-9 25-40 25-21 0-34.5-14.5T496 400q0-21 13.5-36.5T544 348zm549 30-23 63-25-63h48zm756 0-24 63-24-63h48z"/></font>
</defs>
</svg>
